SplineFontDB: 3.2
FontName: RisingSun-Black
FullName: Rising Sun Black
FamilyName: Rising Sun Black
Weight: Black
Copyright: Copyright (c) 2012, The Raleway Project Authors (matt@pixelspread.com)
Version: 4.321
ItalicAngle: 0
UnderlinePosition: -125
UnderlineWidth: 50
Ascent: 800
Descent: 200
InvalidEm: 0
sfntRevision: 0x0004526e
LayerCount: 2
Layer: 0 1 "Back" 1
Layer: 1 1 "Fore" 0
XUID: [1021 158 994486733 14355581]
StyleMap: 0x0040
FSType: 0
OS2Version: 4
OS2_WeightWidthSlopeOnly: 0
OS2_UseTypoMetrics: 1
CreationTime: 1683072783
ModificationTime: 1710185391
PfmFamily: 81
TTFWeight: 900
TTFWidth: 5
LineGap: 21
VLineGap: 0
Panose: 0 0 0 0 0 0 0 0 0 0
OS2TypoAscent: 923
OS2TypoAOffset: 0
OS2TypoDescent: -213
OS2TypoDOffset: 0
OS2TypoLinegap: 21
OS2WinAscent: 944
OS2WinAOffset: 0
OS2WinDescent: 234
OS2WinDOffset: 0
HheadAscent: 923
HheadAOffset: 0
HheadDescent: -213
HheadDOffset: 0
OS2SubXSize: 650
OS2SubYSize: 600
OS2SubXOff: 0
OS2SubYOff: 75
OS2SupXSize: 650
OS2SupYSize: 600
OS2SupXOff: 0
OS2SupYOff: 350
OS2StrikeYSize: 50
OS2StrikeYPos: 300
OS2CapHeight: 710
OS2XHeight: 526
OS2Vendor: '    '
OS2CodePages: 2000019f.00000000
OS2UnicodeRanges: a00002ff.4000205b.00000000.00000000
Lookup: 1 0 0 "'aalt' Access All Alternates lookup 0" { "'aalt' Access All Alternates lookup 0 subtable"  } ['aalt' ('DFLT' <'dflt' > 'cyrl' <'BGR ' 'SRB ' 'dflt' > 'latn' <'AZE ' 'CAT ' 'CRT ' 'KAZ ' 'MOL ' 'ROM ' 'TAT ' 'TRK ' 'dflt' > ) ]
Lookup: 3 0 0 "'aalt' Access All Alternates lookup 1" { "'aalt' Access All Alternates lookup 1 subtable"  } ['aalt' ('DFLT' <'dflt' > 'cyrl' <'BGR ' 'SRB ' 'dflt' > 'latn' <'AZE ' 'CAT ' 'CRT ' 'KAZ ' 'MOL ' 'ROM ' 'TAT ' 'TRK ' 'dflt' > ) ]

StartChar: .notdef
Encoding: 65536 -1 0
Width: 608
GlyphClass: 1
Flags: W
LayerCount: 2
Fore
SplineSet
558 689 m 2,0,1
 558 699 558 699 553 704.5 c 128,-1,2
 548 710 548 710 540 710 c 2,3,-1
 69 710 l 2,4,5
 61 710 61 710 55.5 704 c 128,-1,6
 50 698 50 698 50 687 c 2,7,-1
 50 25 l 2,8,9
 50 12 50 12 55.5 6 c 128,-1,10
 61 0 61 0 77 0 c 2,11,-1
 525 0 l 2,12,13
 542 0 542 0 550 6.5 c 128,-1,14
 558 13 558 13 558 29 c 2,15,-1
 558 689 l 2,0,1
506 74 m 2,16,17
 506 61 506 61 499 55.5 c 128,-1,18
 492 50 492 50 478 50 c 2,19,-1
 125 50 l 2,20,21
 111 50 111 50 106.5 55 c 128,-1,22
 102 60 102 60 102 71 c 2,23,-1
 102 641 l 2,24,25
 102 650 102 650 106.5 655 c 128,-1,26
 111 660 111 660 118 660 c 2,27,-1
 491 660 l 2,28,29
 498 660 498 660 502 655 c 128,-1,30
 506 650 506 650 506 642 c 2,31,-1
 506 74 l 2,16,17
538 33 m 1,32,-1
 123 696 l 1,33,-1
 71 669 l 1,34,-1
 478 28 l 1,35,-1
 538 33 l 1,32,-1
EndSplineSet
EndChar

StartChar: exclam
Encoding: 33 33 4
Width: 362
GlyphClass: 1
Flags: W
LayerCount: 2
Fore
SplineSet
68 103 m 256,0,1
 68 80 68 80 77 59.5 c 128,-1,2
 86 39 86 39 101.5 23.5 c 128,-1,3
 117 8 117 8 137.5 -1 c 128,-1,4
 158 -10 158 -10 181 -10 c 256,5,6
 204 -10 204 -10 224.5 -1 c 128,-1,7
 245 8 245 8 260.5 23.5 c 128,-1,8
 276 39 276 39 285 59.5 c 128,-1,9
 294 80 294 80 294 103 c 256,10,11
 294 126 294 126 285 146.5 c 128,-1,12
 276 167 276 167 260.5 182.5 c 128,-1,13
 245 198 245 198 224.5 207 c 128,-1,14
 204 216 204 216 181 216 c 256,15,16
 158 216 158 216 137.5 207 c 128,-1,17
 117 198 117 198 101.5 182.5 c 128,-1,18
 86 167 86 167 77 146.5 c 128,-1,19
 68 126 68 126 68 103 c 256,0,1
236 300 m 1,20,-1
 276 550 l 1,21,-1
 276 717 l 1,22,-1
 86 717 l 1,23,-1
 86 550 l 1,24,-1
 126 300 l 1,25,-1
 236 300 l 1,20,-1
EndSplineSet
EndChar

StartChar: numbersign
Encoding: 35 35 6
Width: 757
GlyphClass: 1
Flags: W
LayerCount: 2
Fore
SplineSet
721 527 m 1,0,-1
 594 527 l 1,1,-1
 640 710 l 1,2,-1
 489 710 l 1,3,-1
 444 527 l 1,4,-1
 384 527 l 1,5,-1
 430 710 l 1,6,-1
 279 710 l 1,7,-1
 234 527 l 1,8,-1
 87 527 l 1,9,-1
 87 397 l 1,10,-1
 202 397 l 1,11,-1
 182 310 l 1,12,-1
 36 310 l 1,13,-1
 36 170 l 1,14,-1
 148 170 l 1,15,-1
 106 0 l 1,16,-1
 257 0 l 1,17,-1
 298 170 l 1,18,-1
 358 170 l 1,19,-1
 316 0 l 1,20,-1
 467 0 l 1,21,-1
 508 170 l 1,22,-1
 670 170 l 1,23,-1
 670 310 l 1,24,-1
 542 310 l 1,25,-1
 562 397 l 1,26,-1
 721 397 l 1,27,-1
 721 527 l 1,0,-1
332 310 m 1,28,-1
 352 397 l 1,29,-1
 412 397 l 1,30,-1
 392 310 l 1,31,-1
 332 310 l 1,28,-1
EndSplineSet
EndChar

StartChar: dollar
Encoding: 36 36 7
Width: 649
GlyphClass: 1
Flags: W
LayerCount: 2
Fore
SplineSet
291 -129 m 1,0,-1
 371 -129 l 1,1,-1
 371 95 l 1,2,-1
 291 95 l 1,3,-1
 291 -129 l 1,0,-1
357 115 m 1,4,-1
 357 603 l 1,5,-1
 305 589 l 1,6,-1
 305 117 l 1,7,-1
 357 115 l 1,4,-1
291 609 m 1,8,-1
 371 623 l 1,9,-1
 371 815 l 1,10,-1
 291 815 l 1,11,-1
 291 609 l 1,8,-1
594 639 m 1,12,13
 570 651 570 651 540 664.5 c 128,-1,14
 510 678 510 678 475.5 689.5 c 128,-1,15
 441 701 441 701 404 708.5 c 128,-1,16
 367 716 367 716 328 716 c 0,17,18
 276 716 276 716 228 700.5 c 128,-1,19
 180 685 180 685 143 655 c 128,-1,20
 106 625 106 625 84.5 580 c 128,-1,21
 63 535 63 535 63 476 c 0,22,23
 63 437 63 437 73.5 407 c 128,-1,24
 84 377 84 377 106 353.5 c 128,-1,25
 128 330 128 330 162 311.5 c 128,-1,26
 196 293 196 293 243 277 c 0,27,28
 275 266 275 266 303.5 258 c 128,-1,29
 332 250 332 250 354 242 c 128,-1,30
 376 234 376 234 388.5 223.5 c 128,-1,31
 401 213 401 213 401 198 c 0,32,33
 401 184 401 184 388.5 175.5 c 128,-1,34
 376 167 376 167 344 167 c 0,35,36
 303 167 303 167 262.5 179 c 128,-1,37
 222 191 222 191 189.5 206 c 128,-1,38
 157 221 157 221 136.5 233 c 128,-1,39
 116 245 116 245 116 245 c 1,40,-1
 32 74 l 1,41,42
 64 55 64 55 101.5 40 c 128,-1,43
 139 25 139 25 179.5 14 c 128,-1,44
 220 3 220 3 261 -3 c 128,-1,45
 302 -9 302 -9 341 -9 c 0,46,47
 391 -9 391 -9 439 2.5 c 128,-1,48
 487 14 487 14 525.5 40 c 128,-1,49
 564 66 564 66 587.5 109.5 c 128,-1,50
 611 153 611 153 611 217 c 0,51,52
 611 267 611 267 596 302 c 128,-1,53
 581 337 581 337 553 361.5 c 128,-1,54
 525 386 525 386 485.5 404 c 128,-1,55
 446 422 446 422 397 437 c 0,56,57
 366 447 366 447 341.5 454 c 128,-1,58
 317 461 317 461 300 468.5 c 128,-1,59
 283 476 283 476 274 485 c 128,-1,60
 265 494 265 494 265 508 c 0,61,62
 265 527 265 527 281 535 c 128,-1,63
 297 543 297 543 322 543 c 0,64,65
 354 543 354 543 387.5 533 c 128,-1,66
 421 523 421 523 448 510.5 c 128,-1,67
 475 498 475 498 492.5 488 c 128,-1,68
 510 478 510 478 510 478 c 1,69,-1
 594 639 l 1,12,13
EndSplineSet
EndChar

StartChar: percent
Encoding: 37 37 8
Width: 851
GlyphClass: 1
Flags: W
LayerCount: 2
Fore
SplineSet
211 404 m 0,0,1
 249 404 249 404 281.5 416.5 c 128,-1,2
 314 429 314 429 338 450 c 128,-1,3
 362 471 362 471 375.5 500 c 128,-1,4
 389 529 389 529 389 562 c 256,5,6
 389 595 389 595 375.5 624 c 128,-1,7
 362 653 362 653 338 674 c 128,-1,8
 314 695 314 695 281.5 707.5 c 128,-1,9
 249 720 249 720 211 720 c 0,10,11
 174 720 174 720 141.5 707.5 c 128,-1,12
 109 695 109 695 85 674 c 128,-1,13
 61 653 61 653 47 624 c 128,-1,14
 33 595 33 595 33 562 c 256,15,16
 33 529 33 529 47 500 c 128,-1,17
 61 471 61 471 85 450 c 128,-1,18
 109 429 109 429 141.5 416.5 c 128,-1,19
 174 404 174 404 211 404 c 0,0,1
211 494 m 256,20,21
 201 494 201 494 192.5 499.5 c 128,-1,22
 184 505 184 505 177.5 514 c 128,-1,23
 171 523 171 523 167 535.5 c 128,-1,24
 163 548 163 548 163 562 c 256,25,26
 163 576 163 576 167 588.5 c 128,-1,27
 171 601 171 601 177.5 610 c 128,-1,28
 184 619 184 619 192.5 624.5 c 128,-1,29
 201 630 201 630 211 630 c 256,30,31
 221 630 221 630 229.5 624.5 c 128,-1,32
 238 619 238 619 244.5 610 c 128,-1,33
 251 601 251 601 255 588.5 c 128,-1,34
 259 576 259 576 259 562 c 256,35,36
 259 548 259 548 255 535.5 c 128,-1,37
 251 523 251 523 244.5 514 c 128,-1,38
 238 505 238 505 229.5 499.5 c 128,-1,39
 221 494 221 494 211 494 c 256,20,21
640 -10 m 0,40,41
 678 -10 678 -10 710.5 2.5 c 128,-1,42
 743 15 743 15 767 36 c 128,-1,43
 791 57 791 57 804.5 86 c 128,-1,44
 818 115 818 115 818 148 c 256,45,46
 818 181 818 181 804.5 210 c 128,-1,47
 791 239 791 239 767 260 c 128,-1,48
 743 281 743 281 710.5 293.5 c 128,-1,49
 678 306 678 306 640 306 c 0,50,51
 603 306 603 306 570.5 293.5 c 128,-1,52
 538 281 538 281 514 260 c 128,-1,53
 490 239 490 239 476 210 c 128,-1,54
 462 181 462 181 462 148 c 256,55,56
 462 115 462 115 476 86 c 128,-1,57
 490 57 490 57 514 36 c 128,-1,58
 538 15 538 15 570.5 2.5 c 128,-1,59
 603 -10 603 -10 640 -10 c 0,40,41
640 80 m 256,60,61
 630 80 630 80 621.5 85.5 c 128,-1,62
 613 91 613 91 606.5 100 c 128,-1,63
 600 109 600 109 596 121.5 c 128,-1,64
 592 134 592 134 592 148 c 256,65,66
 592 162 592 162 596 174.5 c 128,-1,67
 600 187 600 187 606.5 196 c 128,-1,68
 613 205 613 205 621.5 210.5 c 128,-1,69
 630 216 630 216 640 216 c 256,70,71
 650 216 650 216 658.5 210.5 c 128,-1,72
 667 205 667 205 673.5 196 c 128,-1,73
 680 187 680 187 684 174.5 c 128,-1,74
 688 162 688 162 688 148 c 256,75,76
 688 134 688 134 684 121.5 c 128,-1,77
 680 109 680 109 673.5 100 c 128,-1,78
 667 91 667 91 658.5 85.5 c 128,-1,79
 650 80 650 80 640 80 c 256,60,61
200 -10 m 1,80,-1
 463 337 l 1,81,-1
 734 646 l 1,82,-1
 651 721 l 1,83,-1
 400 384 l 1,84,-1
 117 65 l 1,85,-1
 200 -10 l 1,80,-1
EndSplineSet
EndChar

StartChar: ampersand
Encoding: 38 38 9
Width: 749
GlyphClass: 1
Flags: W
LayerCount: 2
Fore
SplineSet
755 0 m 1,0,-1
 340 438 l 2,1,2
 314 465 314 465 296.5 481.5 c 128,-1,3
 279 498 279 498 268.5 508.5 c 128,-1,4
 258 519 258 519 253.5 526.5 c 128,-1,5
 249 534 249 534 249 544 c 0,6,7
 249 552 249 552 251.5 558.5 c 128,-1,8
 254 565 254 565 258.5 570 c 128,-1,9
 263 575 263 575 269.5 578 c 128,-1,10
 276 581 276 581 285 581 c 0,11,12
 301 581 301 581 310.5 572 c 128,-1,13
 320 563 320 563 320 546 c 0,14,15
 320 533 320 533 313.5 523.5 c 128,-1,16
 307 514 307 514 293 503.5 c 128,-1,17
 279 493 279 493 257 480 c 128,-1,18
 235 467 235 467 203 447 c 0,19,20
 175 429 175 429 145 407 c 128,-1,21
 115 385 115 385 90.5 357 c 128,-1,22
 66 329 66 329 50.5 294 c 128,-1,23
 35 259 35 259 35 216 c 0,24,25
 35 175 35 175 51 134.5 c 128,-1,26
 67 94 67 94 98.5 62 c 128,-1,27
 130 30 130 30 176.5 10 c 128,-1,28
 223 -10 223 -10 285 -10 c 0,29,30
 352 -10 352 -10 418.5 15.5 c 128,-1,31
 485 41 485 41 538.5 93.5 c 128,-1,32
 592 146 592 146 625.5 226.5 c 128,-1,33
 659 307 659 307 660 416 c 1,34,-1
 507 416 l 1,35,36
 507 347 507 347 488 295 c 128,-1,37
 469 243 469 243 439.5 208 c 128,-1,38
 410 173 410 173 374 155.5 c 128,-1,39
 338 138 338 138 305 138 c 0,40,41
 281 138 281 138 264 146.5 c 128,-1,42
 247 155 247 155 236.5 167 c 128,-1,43
 226 179 226 179 221.5 192.5 c 128,-1,44
 217 206 217 206 217 216 c 0,45,46
 217 231 217 231 225 243.5 c 128,-1,47
 233 256 233 256 248 268.5 c 128,-1,48
 263 281 263 281 283.5 294 c 128,-1,49
 304 307 304 307 328 321 c 0,50,51
 364 342 364 342 394 366 c 128,-1,52
 424 390 424 390 446.5 418 c 128,-1,53
 469 446 469 446 481.5 478.5 c 128,-1,54
 494 511 494 511 494 548 c 0,55,56
 494 594 494 594 476 626.5 c 128,-1,57
 458 659 458 659 428.5 679.5 c 128,-1,58
 399 700 399 700 361.5 709.5 c 128,-1,59
 324 719 324 719 285 719 c 0,60,61
 240 719 240 719 202 706.5 c 128,-1,62
 164 694 164 694 136.5 671 c 128,-1,63
 109 648 109 648 93 614 c 128,-1,64
 77 580 77 580 77 536 c 0,65,66
 77 511 77 511 83 490 c 128,-1,67
 89 469 89 469 102 446.5 c 128,-1,68
 115 424 115 424 137 398 c 128,-1,69
 159 372 159 372 190 338 c 2,70,-1
 506 0 l 1,71,-1
 755 0 l 1,0,-1
EndSplineSet
EndChar

StartChar: quotesingle
Encoding: 39 39 10
Width: 266
GlyphClass: 1
Flags: W
LayerCount: 2
Fore
SplineSet
109 495 m 1,0,-1
 238 730 l 1,1,-1
 81 730 l 1,2,-1
 27 495 l 1,3,-1
 109 495 l 1,0,-1
EndSplineSet
EndChar

StartChar: parenleft
Encoding: 40 40 11
Width: 342
GlyphClass: 1
Flags: W
LayerCount: 2
Fore
SplineSet
25 348 m 0,0,1
 25 294 25 294 38 240 c 128,-1,2
 51 186 51 186 73 133.5 c 128,-1,3
 95 81 95 81 123.5 30.5 c 128,-1,4
 152 -20 152 -20 183 -66 c 1,5,-1
 321 1 l 1,6,7
 296 48 296 48 274 92.5 c 128,-1,8
 252 137 252 137 236 179.5 c 128,-1,9
 220 222 220 222 211 263 c 128,-1,10
 202 304 202 304 202 345 c 0,11,12
 202 399 202 399 217 456.5 c 128,-1,13
 232 514 232 514 252.5 565 c 128,-1,14
 273 616 273 616 293.5 655.5 c 128,-1,15
 314 695 314 695 326 714 c 1,16,-1
 181 772 l 1,17,18
 148 716 148 716 119.5 661.5 c 128,-1,19
 91 607 91 607 70 554.5 c 128,-1,20
 49 502 49 502 37 450.5 c 128,-1,21
 25 399 25 399 25 348 c 0,0,1
EndSplineSet
EndChar

StartChar: parenright
Encoding: 41 41 12
Width: 341
GlyphClass: 1
Flags: W
LayerCount: 2
Fore
SplineSet
316 348 m 0,0,1
 316 399 316 399 304 450.5 c 128,-1,2
 292 502 292 502 271 554.5 c 128,-1,3
 250 607 250 607 221.5 661.5 c 128,-1,4
 193 716 193 716 160 772 c 1,5,-1
 15 714 l 1,6,7
 27 695 27 695 47.5 655.5 c 128,-1,8
 68 616 68 616 88.5 565 c 128,-1,9
 109 514 109 514 124 456.5 c 128,-1,10
 139 399 139 399 139 345 c 0,11,12
 139 304 139 304 130 263 c 128,-1,13
 121 222 121 222 105 179.5 c 128,-1,14
 89 137 89 137 67 92.5 c 128,-1,15
 45 48 45 48 20 1 c 1,16,-1
 158 -66 l 1,17,18
 189 -20 189 -20 217.5 30.5 c 128,-1,19
 246 81 246 81 268 133.5 c 128,-1,20
 290 186 290 186 303 240 c 128,-1,21
 316 294 316 294 316 348 c 0,0,1
EndSplineSet
EndChar

StartChar: asterisk
Encoding: 42 42 13
Width: 364
GlyphClass: 1
Flags: W
LayerCount: 2
Fore
SplineSet
134 454 m 1,0,-1
 182 537 l 1,1,-1
 230 454 l 1,2,-1
 299 499 l 1,3,-1
 250 577 l 1,4,-1
 322 598 l 1,5,-1
 298 675 l 1,6,-1
 223 639 l 1,7,-1
 230 721 l 1,8,-1
 134 721 l 1,9,-1
 141 639 l 1,10,-1
 66 675 l 1,11,-1
 42 598 l 1,12,-1
 114 577 l 1,13,-1
 65 499 l 1,14,-1
 134 454 l 1,0,-1
EndSplineSet
EndChar

StartChar: plus
Encoding: 43 43 14
Width: 428
GlyphClass: 1
Flags: W
LayerCount: 2
Fore
SplineSet
299 430 m 1,0,-1
 299 525 l 1,1,-1
 129 525 l 1,2,-1
 129 430 l 1,3,-1
 44 430 l 1,4,-1
 44 280 l 1,5,-1
 129 280 l 1,6,-1
 129 185 l 1,7,-1
 299 185 l 1,8,-1
 299 280 l 1,9,-1
 384 280 l 1,10,-1
 384 430 l 1,11,-1
 299 430 l 1,0,-1
EndSplineSet
EndChar

StartChar: comma
Encoding: 44 44 15
Width: 257
GlyphClass: 1
Flags: W
LayerCount: 2
Fore
SplineSet
93 -160 m 1,0,-1
 229 100 l 1,1,-1
 72 100 l 1,2,-1
 11 -160 l 1,3,-1
 93 -160 l 1,0,-1
EndSplineSet
EndChar

StartChar: hyphen
Encoding: 45 45 16
Width: 413
GlyphClass: 1
Flags: W
LayerCount: 2
Fore
SplineSet
363 191 m 1,0,-1
 363 361 l 1,1,-1
 50 361 l 1,2,-1
 50 191 l 1,3,-1
 363 191 l 1,0,-1
EndSplineSet
EndChar

StartChar: period
Encoding: 46 46 17
Width: 254
GlyphClass: 1
Flags: W
LayerCount: 2
Fore
SplineSet
33 84 m 256,0,1
 33 45 33 45 60.5 17.5 c 128,-1,2
 88 -10 88 -10 127 -10 c 256,3,4
 166 -10 166 -10 193.5 17.5 c 128,-1,5
 221 45 221 45 221 84 c 256,6,7
 221 123 221 123 193.5 150.5 c 128,-1,8
 166 178 166 178 127 178 c 256,9,10
 88 178 88 178 60.5 150.5 c 128,-1,11
 33 123 33 123 33 84 c 256,0,1
EndSplineSet
EndChar

StartChar: slash
Encoding: 47 47 18
Width: 777
GlyphClass: 1
Flags: W
LayerCount: 2
Fore
SplineSet
541 710 m 1,0,-1
 26 0 l 1,1,-1
 235 0 l 1,2,-1
 751 710 l 1,3,-1
 541 710 l 1,0,-1
EndSplineSet
Substitution2: "'frac' Diagonal Fractions lookup 21 subtable" fraction
Substitution2: "'aalt' Access All Alternates lookup 0 subtable" fraction
EndChar

StartChar: zero
Encoding: 48 48 19
Width: 714
GlyphClass: 1
Flags: W
LayerCount: 2
Fore
SplineSet
357 -10 m 0,0,1
 432 -10 432 -10 491.5 22 c 128,-1,2
 551 54 551 54 592.5 105 c 128,-1,3
 634 156 634 156 656.5 220.5 c 128,-1,4
 679 285 679 285 679 350 c 0,5,6
 679 408 679 408 658.5 471.5 c 128,-1,7
 638 535 638 535 597.5 588 c 128,-1,8
 557 641 557 641 497 675.5 c 128,-1,9
 437 710 437 710 357 710 c 0,10,11
 282 710 282 710 222.5 678 c 128,-1,12
 163 646 163 646 121.5 594.5 c 128,-1,13
 80 543 80 543 57.5 478.5 c 128,-1,14
 35 414 35 414 35 350 c 0,15,16
 35 290 35 290 55.5 226.5 c 128,-1,17
 76 163 76 163 116.5 110.5 c 128,-1,18
 157 58 157 58 217.5 24 c 128,-1,19
 278 -10 278 -10 357 -10 c 0,0,1
233 350 m 0,20,21
 233 380 233 380 239.5 412.5 c 128,-1,22
 246 445 246 445 260.5 473 c 128,-1,23
 275 501 275 501 299 519 c 128,-1,24
 323 537 323 537 357 537 c 0,25,26
 390 537 390 537 413.5 520 c 128,-1,27
 437 503 437 503 452 476 c 128,-1,28
 467 449 467 449 474 416 c 128,-1,29
 481 383 481 383 481 350 c 0,30,31
 481 320 481 320 474.5 287.5 c 128,-1,32
 468 255 468 255 453.5 227 c 128,-1,33
 439 199 439 199 415.5 181 c 128,-1,34
 392 163 392 163 357 163 c 0,35,36
 324 163 324 163 300.5 180 c 128,-1,37
 277 197 277 197 262 224 c 128,-1,38
 247 251 247 251 240 284 c 128,-1,39
 233 317 233 317 233 350 c 0,20,21
EndSplineSet
Substitution2: "'tnum' Tabular Numbers lookup 41 subtable" zero.tnum
Substitution2: "'frac' Diagonal Fractions lookup 22 subtable" zero.numr
Substitution2: "'dnom' Denominators lookup 20 subtable" zero.dnom
Substitution2: "'numr' Numerators lookup 19 subtable" zero.numr
Substitution2: "'sups' Superscript lookup 18 subtable" uni2070
Substitution2: "'sinf' Scientific Inferiors lookup 17 subtable" zero.subs
Substitution2: "'subs' Subscript lookup 16 subtable" uni2080
AlternateSubs2: "'aalt' Access All Alternates lookup 1 subtable" uni2080 zero.subs uni2070 zero.numr zero.dnom
EndChar

StartChar: one
Encoding: 49 49 20
Width: 488
GlyphClass: 1
Flags: W
LayerCount: 2
Fore
SplineSet
401 715 m 1,0,-1
 207 715 l 2,1,2
 206 714 206 714 190.5 698.5 c 128,-1,3
 175 683 175 683 151 666 c 128,-1,4
 127 649 127 649 98 634.5 c 128,-1,5
 69 620 69 620 42 620 c 1,6,-1
 42 446 l 1,7,8
 62 446 62 446 87.5 455 c 128,-1,9
 113 464 113 464 136.5 477.5 c 128,-1,10
 160 491 160 491 179.5 505.5 c 128,-1,11
 199 520 199 520 207 532 c 1,12,-1
 207 0 l 1,13,-1
 401 0 l 1,14,-1
 401 715 l 1,0,-1
EndSplineSet
Substitution2: "'tnum' Tabular Numbers lookup 41 subtable" one.tnum
Substitution2: "'frac' Diagonal Fractions lookup 22 subtable" one.numr
Substitution2: "'dnom' Denominators lookup 20 subtable" one.dnom
Substitution2: "'numr' Numerators lookup 19 subtable" one.numr
Substitution2: "'sups' Superscript lookup 18 subtable" onesuperior
Substitution2: "'sinf' Scientific Inferiors lookup 17 subtable" one.subs
Substitution2: "'subs' Subscript lookup 16 subtable" uni2081
AlternateSubs2: "'aalt' Access All Alternates lookup 1 subtable" uni2081 one.subs onesuperior one.numr one.dnom
EndChar

StartChar: two
Encoding: 50 50 21
Width: 631
GlyphClass: 1
Flags: W
LayerCount: 2
Fore
SplineSet
583 0 m 1,0,-1
 583 170 l 1,1,-1
 277 170 l 1,2,3
 290 179 290 179 303 188 c 128,-1,4
 316 197 316 197 334 209 c 128,-1,5
 352 221 352 221 377.5 237.5 c 128,-1,6
 403 254 403 254 441 278 c 0,7,8
 474 299 474 299 500 322 c 128,-1,9
 526 345 526 345 544 372.5 c 128,-1,10
 562 400 562 400 572 432 c 128,-1,11
 582 464 582 464 582 502 c 0,12,13
 582 552 582 552 565 592 c 128,-1,14
 548 632 548 632 515.5 660 c 128,-1,15
 483 688 483 688 435.5 703 c 128,-1,16
 388 718 388 718 327 718 c 0,17,18
 278 718 278 718 234 709 c 128,-1,19
 190 700 190 700 152.5 684 c 128,-1,20
 115 668 115 668 85.5 648 c 128,-1,21
 56 628 56 628 36 605 c 1,22,-1
 153 478 l 1,23,24
 167 492 167 492 184.5 505 c 128,-1,25
 202 518 202 518 221 528 c 128,-1,26
 240 538 240 538 260.5 544 c 128,-1,27
 281 550 281 550 300 550 c 0,28,29
 313 550 313 550 324.5 547 c 128,-1,30
 336 544 336 544 345 536.5 c 128,-1,31
 354 529 354 529 359.5 517.5 c 128,-1,32
 365 506 365 506 365 489 c 0,33,34
 365 457 365 457 346 432 c 128,-1,35
 327 407 327 407 298.5 386 c 128,-1,36
 270 365 270 365 236 347 c 128,-1,37
 202 329 202 329 172 311 c 0,38,39
 127 283 127 283 100 254.5 c 128,-1,40
 73 226 73 226 58.5 190.5 c 128,-1,41
 44 155 44 155 40 109 c 128,-1,42
 36 63 36 63 36 0 c 1,43,-1
 583 0 l 1,0,-1
EndSplineSet
Substitution2: "'tnum' Tabular Numbers lookup 41 subtable" two.tnum
Substitution2: "'frac' Diagonal Fractions lookup 22 subtable" two.numr
Substitution2: "'dnom' Denominators lookup 20 subtable" two.dnom
Substitution2: "'numr' Numerators lookup 19 subtable" two.numr
Substitution2: "'sups' Superscript lookup 18 subtable" twosuperior
Substitution2: "'sinf' Scientific Inferiors lookup 17 subtable" two.subs
Substitution2: "'subs' Subscript lookup 16 subtable" uni2082
AlternateSubs2: "'aalt' Access All Alternates lookup 1 subtable" uni2082 two.subs twosuperior two.numr two.dnom
EndChar

StartChar: three
Encoding: 51 51 22
Width: 586
GlyphClass: 1
Flags: W
LayerCount: 2
Fore
SplineSet
261 -5 m 0,0,1
 327 -5 327 -5 380 9 c 128,-1,2
 433 23 433 23 469.5 49.5 c 128,-1,3
 506 76 506 76 526 114 c 128,-1,4
 546 152 546 152 546 199 c 0,5,6
 546 234 546 234 535.5 264 c 128,-1,7
 525 294 525 294 506.5 318 c 128,-1,8
 488 342 488 342 462.5 358 c 128,-1,9
 437 374 437 374 406 379 c 1,10,11
 434 384 434 384 457.5 399 c 128,-1,12
 481 414 481 414 498.5 436 c 128,-1,13
 516 458 516 458 525.5 485 c 128,-1,14
 535 512 535 512 535 542 c 0,15,16
 535 582 535 582 517 614.5 c 128,-1,17
 499 647 499 647 467 670 c 128,-1,18
 435 693 435 693 389.5 705.5 c 128,-1,19
 344 718 344 718 288 718 c 0,20,21
 248 718 248 718 208.5 711.5 c 128,-1,22
 169 705 169 705 134.5 693 c 128,-1,23
 100 681 100 681 72.5 664.5 c 128,-1,24
 45 648 45 648 27 628 c 1,25,-1
 147 487 l 1,26,27
 170 522 170 522 200.5 539.5 c 128,-1,28
 231 557 231 557 266 557 c 0,29,30
 281 557 281 557 293.5 553.5 c 128,-1,31
 306 550 306 550 314 543.5 c 128,-1,32
 322 537 322 537 326.5 527.5 c 128,-1,33
 331 518 331 518 331 506 c 0,34,35
 331 474 331 474 302 455.5 c 128,-1,36
 273 437 273 437 225 437 c 2,37,-1
 190 437 l 1,38,-1
 190 305 l 1,39,-1
 221 305 l 2,40,41
 255 305 255 305 279 301 c 128,-1,42
 303 297 303 297 318.5 288.5 c 128,-1,43
 334 280 334 280 341.5 266.5 c 128,-1,44
 349 253 349 253 349 234 c 0,45,46
 349 217 349 217 343.5 205 c 128,-1,47
 338 193 338 193 326 185 c 128,-1,48
 314 177 314 177 295.5 173 c 128,-1,49
 277 169 277 169 251 169 c 0,50,51
 230 169 230 169 211.5 171.5 c 128,-1,52
 193 174 193 174 176.5 179.5 c 128,-1,53
 160 185 160 185 144.5 193.5 c 128,-1,54
 129 202 129 202 115 213 c 1,55,-1
 18 75 l 1,56,57
 42 55 42 55 68.5 40 c 128,-1,58
 95 25 95 25 125 15 c 128,-1,59
 155 5 155 5 189 0 c 128,-1,60
 223 -5 223 -5 261 -5 c 0,0,1
EndSplineSet
Substitution2: "'tnum' Tabular Numbers lookup 41 subtable" three.tnum
Substitution2: "'frac' Diagonal Fractions lookup 22 subtable" three.numr
Substitution2: "'dnom' Denominators lookup 20 subtable" three.dnom
Substitution2: "'numr' Numerators lookup 19 subtable" three.numr
Substitution2: "'sups' Superscript lookup 18 subtable" threesuperior
Substitution2: "'sinf' Scientific Inferiors lookup 17 subtable" three.subs
Substitution2: "'subs' Subscript lookup 16 subtable" uni2083
AlternateSubs2: "'aalt' Access All Alternates lookup 1 subtable" uni2083 three.subs threesuperior three.numr three.dnom
EndChar

StartChar: four
Encoding: 52 52 23
Width: 597
GlyphClass: 1
Flags: W
LayerCount: 2
Fore
SplineSet
472 1 m 1,0,-1
 472 137 l 1,1,-1
 560 137 l 1,2,-1
 560 307 l 1,3,-1
 472 307 l 1,4,-1
 472 711 l 1,5,-1
 342 711 l 1,6,-1
 25 307 l 1,7,-1
 25 137 l 1,8,-1
 282 137 l 1,9,-1
 282 1 l 1,10,-1
 472 1 l 1,0,-1
304 427 m 1,11,-1
 304 307 l 1,12,-1
 212 307 l 1,13,-1
 304 427 l 1,11,-1
EndSplineSet
Substitution2: "'tnum' Tabular Numbers lookup 41 subtable" four.tnum
Substitution2: "'frac' Diagonal Fractions lookup 22 subtable" four.numr
Substitution2: "'dnom' Denominators lookup 20 subtable" four.dnom
Substitution2: "'numr' Numerators lookup 19 subtable" four.numr
Substitution2: "'sups' Superscript lookup 18 subtable" uni2074
Substitution2: "'sinf' Scientific Inferiors lookup 17 subtable" four.subs
Substitution2: "'subs' Subscript lookup 16 subtable" uni2084
AlternateSubs2: "'aalt' Access All Alternates lookup 1 subtable" uni2084 four.subs uni2074 four.numr four.dnom
EndChar

StartChar: five
Encoding: 53 53 24
Width: 582
GlyphClass: 1
Flags: W
LayerCount: 2
Fore
SplineSet
271 -9 m 0,0,1
 332 -9 332 -9 382.5 9 c 128,-1,2
 433 27 433 27 469.5 59 c 128,-1,3
 506 91 506 91 526 136 c 128,-1,4
 546 181 546 181 546 235 c 0,5,6
 546 286 546 286 528.5 328.5 c 128,-1,7
 511 371 511 371 479.5 401.5 c 128,-1,8
 448 432 448 432 405 449 c 128,-1,9
 362 466 362 466 310 466 c 0,10,11
 286 466 286 466 275 463.5 c 128,-1,12
 264 461 264 461 264 461 c 1,13,-1
 275 538 l 1,14,-1
 494 538 l 1,15,-1
 494 711 l 1,16,-1
 138 711 l 1,17,-1
 54 269 l 1,18,-1
 217 269 l 1,19,20
 226 285 226 285 243.5 294.5 c 128,-1,21
 261 304 261 304 282 304 c 0,22,23
 297 304 297 304 310 299 c 128,-1,24
 323 294 323 294 332 284 c 128,-1,25
 341 274 341 274 346 261 c 128,-1,26
 351 248 351 248 351 231 c 256,27,28
 351 214 351 214 345.5 200.5 c 128,-1,29
 340 187 340 187 330 177 c 128,-1,30
 320 167 320 167 305 162 c 128,-1,31
 290 157 290 157 272 157 c 0,32,33
 238 157 238 157 202.5 174.5 c 128,-1,34
 167 192 167 192 138 223 c 1,35,-1
 34 103 l 1,36,37
 68 49 68 49 130.5 20 c 128,-1,38
 193 -9 193 -9 271 -9 c 0,0,1
EndSplineSet
Substitution2: "'tnum' Tabular Numbers lookup 41 subtable" five.tnum
Substitution2: "'frac' Diagonal Fractions lookup 22 subtable" five.numr
Substitution2: "'dnom' Denominators lookup 20 subtable" five.dnom
Substitution2: "'numr' Numerators lookup 19 subtable" five.numr
Substitution2: "'sups' Superscript lookup 18 subtable" uni2075
Substitution2: "'sinf' Scientific Inferiors lookup 17 subtable" five.subs
Substitution2: "'subs' Subscript lookup 16 subtable" uni2085
AlternateSubs2: "'aalt' Access All Alternates lookup 1 subtable" uni2085 five.subs uni2075 five.numr five.dnom
EndChar

StartChar: six
Encoding: 54 54 25
Width: 609
GlyphClass: 1
Flags: W
LayerCount: 2
Fore
SplineSet
572 240 m 0,0,1
 572 188 572 188 552 142 c 128,-1,2
 532 96 532 96 496 62.5 c 128,-1,3
 460 29 460 29 411.5 9.5 c 128,-1,4
 363 -10 363 -10 306 -10 c 0,5,6
 242 -10 242 -10 192.5 13.5 c 128,-1,7
 143 37 143 37 109 82 c 128,-1,8
 75 127 75 127 57 192 c 128,-1,9
 39 257 39 257 39 340 c 0,10,11
 39 428 39 428 58.5 497.5 c 128,-1,12
 78 567 78 567 115 615.5 c 128,-1,13
 152 664 152 664 205 690 c 128,-1,14
 258 716 258 716 325 716 c 0,15,16
 390 716 390 716 446.5 692 c 128,-1,17
 503 668 503 668 551 620 c 1,18,-1
 446 498 l 1,19,20
 420 524 420 524 388 538 c 128,-1,21
 356 552 356 552 322 552 c 0,22,23
 298 552 298 552 278.5 544.5 c 128,-1,24
 259 537 259 537 245 522.5 c 128,-1,25
 231 508 231 508 223 487 c 128,-1,26
 215 466 215 466 214 439 c 1,27,28
 224 448 224 448 235.5 454 c 128,-1,29
 247 460 247 460 260.5 464.5 c 128,-1,30
 274 469 274 469 289 471 c 128,-1,31
 304 473 304 473 322 473 c 0,32,33
 376 473 376 473 421.5 455.5 c 128,-1,34
 467 438 467 438 500.5 406.5 c 128,-1,35
 534 375 534 375 553 332.5 c 128,-1,36
 572 290 572 290 572 240 c 0,0,1
306 149 m 256,37,38
 323 149 323 149 338.5 156.5 c 128,-1,39
 354 164 354 164 365.5 176.5 c 128,-1,40
 377 189 377 189 384 205.5 c 128,-1,41
 391 222 391 222 391 240 c 256,42,43
 391 258 391 258 384.5 273 c 128,-1,44
 378 288 378 288 366.5 299.5 c 128,-1,45
 355 311 355 311 339.5 317.5 c 128,-1,46
 324 324 324 324 306 324 c 256,47,48
 288 324 288 324 272.5 317.5 c 128,-1,49
 257 311 257 311 245.5 299.5 c 128,-1,50
 234 288 234 288 227.5 273 c 128,-1,51
 221 258 221 258 221 240 c 256,52,53
 221 222 221 222 228 205.5 c 128,-1,54
 235 189 235 189 246.5 176.5 c 128,-1,55
 258 164 258 164 273.5 156.5 c 128,-1,56
 289 149 289 149 306 149 c 256,37,38
EndSplineSet
Substitution2: "'tnum' Tabular Numbers lookup 41 subtable" six.tnum
Substitution2: "'frac' Diagonal Fractions lookup 22 subtable" six.numr
Substitution2: "'dnom' Denominators lookup 20 subtable" six.dnom
Substitution2: "'numr' Numerators lookup 19 subtable" six.numr
Substitution2: "'sups' Superscript lookup 18 subtable" uni2076
Substitution2: "'sinf' Scientific Inferiors lookup 17 subtable" six.subs
Substitution2: "'subs' Subscript lookup 16 subtable" uni2086
AlternateSubs2: "'aalt' Access All Alternates lookup 1 subtable" uni2086 six.subs uni2076 six.numr six.dnom
EndChar

StartChar: seven
Encoding: 55 55 26
Width: 598
GlyphClass: 1
Flags: W
LayerCount: 2
Fore
SplineSet
44 1 m 1,0,-1
 259 1 l 1,1,-1
 606 711 l 1,2,-1
 36 711 l 1,3,-1
 36 538 l 1,4,-1
 307 538 l 1,5,-1
 44 1 l 1,0,-1
EndSplineSet
Substitution2: "'tnum' Tabular Numbers lookup 41 subtable" seven.tnum
Substitution2: "'frac' Diagonal Fractions lookup 22 subtable" seven.numr
Substitution2: "'dnom' Denominators lookup 20 subtable" seven.dnom
Substitution2: "'numr' Numerators lookup 19 subtable" seven.numr
Substitution2: "'sups' Superscript lookup 18 subtable" uni2077
Substitution2: "'sinf' Scientific Inferiors lookup 17 subtable" seven.subs
Substitution2: "'subs' Subscript lookup 16 subtable" uni2087
AlternateSubs2: "'aalt' Access All Alternates lookup 1 subtable" uni2087 seven.subs uni2077 seven.numr seven.dnom
EndChar

StartChar: eight
Encoding: 56 56 27
Width: 611
GlyphClass: 1
Flags: W
LayerCount: 2
Fore
SplineSet
573 221 m 0,0,1
 573 249 573 249 565 273 c 128,-1,2
 557 297 557 297 545 317 c 128,-1,3
 533 337 533 337 517.5 352.5 c 128,-1,4
 502 368 502 368 487 379 c 1,5,6
 501 387 501 387 513.5 401 c 128,-1,7
 526 415 526 415 535 431.5 c 128,-1,8
 544 448 544 448 549 466 c 128,-1,9
 554 484 554 484 554 501 c 0,10,11
 554 552 554 552 530.5 591.5 c 128,-1,12
 507 631 507 631 470.5 657 c 128,-1,13
 434 683 434 683 390 696.5 c 128,-1,14
 346 710 346 710 305 710 c 256,15,16
 264 710 264 710 220 696.5 c 128,-1,17
 176 683 176 683 140 656 c 128,-1,18
 104 629 104 629 80.5 589.5 c 128,-1,19
 57 550 57 550 57 499 c 0,20,21
 57 482 57 482 62 464 c 128,-1,22
 67 446 67 446 76 430 c 128,-1,23
 85 414 85 414 97 401 c 128,-1,24
 109 388 109 388 123 379 c 1,25,26
 108 368 108 368 93 353 c 128,-1,27
 78 338 78 338 65.5 319 c 128,-1,28
 53 300 53 300 45 277 c 128,-1,29
 37 254 37 254 37 227 c 0,30,31
 37 173 37 173 59 129 c 128,-1,32
 81 85 81 85 118 54 c 128,-1,33
 155 23 155 23 203.5 6.5 c 128,-1,34
 252 -10 252 -10 305 -10 c 0,35,36
 361 -10 361 -10 409.5 6.5 c 128,-1,37
 458 23 458 23 494.5 53.5 c 128,-1,38
 531 84 531 84 552 126.5 c 128,-1,39
 573 169 573 169 573 221 c 0,0,1
380 232 m 0,40,41
 380 218 380 218 374.5 205.5 c 128,-1,42
 369 193 369 193 359 183.5 c 128,-1,43
 349 174 349 174 335.5 168.5 c 128,-1,44
 322 163 322 163 305 163 c 0,45,46
 289 163 289 163 275.5 168.5 c 128,-1,47
 262 174 262 174 252 183 c 128,-1,48
 242 192 242 192 236 204.5 c 128,-1,49
 230 217 230 217 230 232 c 0,50,51
 230 248 230 248 235.5 260.5 c 128,-1,52
 241 273 241 273 251 282 c 128,-1,53
 261 291 261 291 275 296 c 128,-1,54
 289 301 289 301 305 301 c 256,55,56
 321 301 321 301 335 296.5 c 128,-1,57
 349 292 349 292 359 283 c 128,-1,58
 369 274 369 274 374.5 261.5 c 128,-1,59
 380 249 380 249 380 232 c 0,40,41
250 495 m 0,60,61
 250 505 250 505 254 513.5 c 128,-1,62
 258 522 258 522 265 528.5 c 128,-1,63
 272 535 272 535 282.5 539 c 128,-1,64
 293 543 293 543 305 543 c 256,65,66
 317 543 317 543 327.5 539 c 128,-1,67
 338 535 338 535 345.5 528.5 c 128,-1,68
 353 522 353 522 357 513.5 c 128,-1,69
 361 505 361 505 361 495 c 0,70,71
 361 482 361 482 356 472 c 128,-1,72
 351 462 351 462 343 455 c 128,-1,73
 335 448 335 448 325 445 c 128,-1,74
 315 442 315 442 305 442 c 256,75,76
 295 442 295 442 285 445 c 128,-1,77
 275 448 275 448 267.5 455 c 128,-1,78
 260 462 260 462 255 472 c 128,-1,79
 250 482 250 482 250 495 c 0,60,61
EndSplineSet
Substitution2: "'tnum' Tabular Numbers lookup 41 subtable" eight.tnum
Substitution2: "'frac' Diagonal Fractions lookup 22 subtable" eight.numr
Substitution2: "'dnom' Denominators lookup 20 subtable" eight.dnom
Substitution2: "'numr' Numerators lookup 19 subtable" eight.numr
Substitution2: "'sups' Superscript lookup 18 subtable" uni2078
Substitution2: "'sinf' Scientific Inferiors lookup 17 subtable" eight.subs
Substitution2: "'subs' Subscript lookup 16 subtable" uni2088
AlternateSubs2: "'aalt' Access All Alternates lookup 1 subtable" uni2088 eight.subs uni2078 eight.numr eight.dnom
EndChar

StartChar: nine
Encoding: 57 57 28
Width: 608
GlyphClass: 1
Flags: W
LayerCount: 2
Fore
SplineSet
36 466 m 0,0,1
 36 519 36 519 56 564.5 c 128,-1,2
 76 610 76 610 112 643.5 c 128,-1,3
 148 677 148 677 196.5 696.5 c 128,-1,4
 245 716 245 716 302 716 c 0,5,6
 366 716 366 716 415.5 692.5 c 128,-1,7
 465 669 465 669 499 624 c 128,-1,8
 533 579 533 579 551 514 c 128,-1,9
 569 449 569 449 569 366 c 0,10,11
 569 278 569 278 549.5 208.5 c 128,-1,12
 530 139 530 139 493 90.5 c 128,-1,13
 456 42 456 42 403 16 c 128,-1,14
 350 -10 350 -10 283 -10 c 0,15,16
 218 -10 218 -10 161.5 14 c 128,-1,17
 105 38 105 38 57 86 c 1,18,-1
 162 208 l 1,19,20
 188 182 188 182 220 168 c 128,-1,21
 252 154 252 154 286 154 c 0,22,23
 310 154 310 154 329.5 161.5 c 128,-1,24
 349 169 349 169 363 183.5 c 128,-1,25
 377 198 377 198 385 219 c 128,-1,26
 393 240 393 240 394 267 c 1,27,28
 384 258 384 258 372.5 252 c 128,-1,29
 361 246 361 246 347.5 241.5 c 128,-1,30
 334 237 334 237 319 235 c 128,-1,31
 304 233 304 233 286 233 c 0,32,33
 232 233 232 233 186.5 250.5 c 128,-1,34
 141 268 141 268 107.5 299.5 c 128,-1,35
 74 331 74 331 55 373.5 c 128,-1,36
 36 416 36 416 36 466 c 0,0,1
302 557 m 256,37,38
 285 557 285 557 269.5 549.5 c 128,-1,39
 254 542 254 542 242.5 529.5 c 128,-1,40
 231 517 231 517 224 500.5 c 128,-1,41
 217 484 217 484 217 466 c 256,42,43
 217 448 217 448 223.5 433 c 128,-1,44
 230 418 230 418 241.5 406.5 c 128,-1,45
 253 395 253 395 268.5 388.5 c 128,-1,46
 284 382 284 382 302 382 c 256,47,48
 320 382 320 382 335.5 388.5 c 128,-1,49
 351 395 351 395 362.5 406.5 c 128,-1,50
 374 418 374 418 380.5 433 c 128,-1,51
 387 448 387 448 387 466 c 256,52,53
 387 484 387 484 380 500.5 c 128,-1,54
 373 517 373 517 361.5 529.5 c 128,-1,55
 350 542 350 542 334.5 549.5 c 128,-1,56
 319 557 319 557 302 557 c 256,37,38
EndSplineSet
Substitution2: "'tnum' Tabular Numbers lookup 41 subtable" nine.tnum
Substitution2: "'frac' Diagonal Fractions lookup 22 subtable" nine.numr
Substitution2: "'dnom' Denominators lookup 20 subtable" nine.dnom
Substitution2: "'numr' Numerators lookup 19 subtable" nine.numr
Substitution2: "'sups' Superscript lookup 18 subtable" uni2079
Substitution2: "'sinf' Scientific Inferiors lookup 17 subtable" nine.subs
Substitution2: "'subs' Subscript lookup 16 subtable" uni2089
AlternateSubs2: "'aalt' Access All Alternates lookup 1 subtable" uni2089 nine.subs uni2079 nine.numr nine.dnom
EndChar

StartChar: less
Encoding: 60 60 31
Width: 521
GlyphClass: 1
Flags: W
LayerCount: 2
Fore
SplineSet
31 210 m 1,0,-1
 455 -40 l 1,1,-1
 455 172 l 1,2,-1
 307 259 l 1,3,-1
 455 354 l 1,4,-1
 455 556 l 1,5,-1
 31 298 l 1,6,-1
 31 210 l 1,0,-1
EndSplineSet
EndChar

StartChar: equal
Encoding: 61 61 32
Width: 433
GlyphClass: 1
Flags: W
LayerCount: 2
Fore
SplineSet
378 101 m 1,0,-1
 378 221 l 1,1,-1
 55 221 l 1,2,-1
 55 101 l 1,3,-1
 378 101 l 1,0,-1
378 331 m 1,4,-1
 378 451 l 1,5,-1
 55 451 l 1,6,-1
 55 331 l 1,7,-1
 378 331 l 1,4,-1
EndSplineSet
EndChar

StartChar: greater
Encoding: 62 62 33
Width: 521
GlyphClass: 1
Flags: W
LayerCount: 2
Fore
SplineSet
490 298 m 1,0,-1
 66 556 l 1,1,-1
 66 354 l 1,2,-1
 214 259 l 1,3,-1
 66 172 l 1,4,-1
 66 -40 l 1,5,-1
 490 210 l 1,6,-1
 490 298 l 1,0,-1
EndSplineSet
EndChar

StartChar: question
Encoding: 63 63 34
Width: 495
GlyphClass: 1
Flags: W
LayerCount: 2
Fore
SplineSet
250 259 m 1,0,1
 250 276 250 276 262.5 287.5 c 128,-1,2
 275 299 275 299 294.5 310 c 128,-1,3
 314 321 314 321 337 332 c 128,-1,4
 360 343 360 343 382 358 c 256,5,6
 404 373 404 373 419.5 390.5 c 128,-1,7
 435 408 435 408 444.5 427.5 c 128,-1,8
 454 447 454 447 458 469 c 128,-1,9
 462 491 462 491 462 515 c 0,10,11
 462 571 462 571 442.5 610 c 128,-1,12
 423 649 423 649 391.5 673 c 128,-1,13
 360 697 360 697 321 708 c 128,-1,14
 282 719 282 719 244 719 c 0,15,16
 208 719 208 719 175.5 710 c 128,-1,17
 143 701 143 701 116 684.5 c 128,-1,18
 89 668 89 668 68 644 c 128,-1,19
 47 620 47 620 34 590 c 1,20,-1
 155 504 l 1,21,22
 161 511 161 511 167.5 521.5 c 128,-1,23
 174 532 174 532 183.5 542 c 128,-1,24
 193 552 193 552 206 559 c 128,-1,25
 219 566 219 566 237 566 c 0,26,27
 249 566 249 566 260 562.5 c 128,-1,28
 271 559 271 559 279 552.5 c 128,-1,29
 287 546 287 546 292 536.5 c 128,-1,30
 297 527 297 527 297 516 c 0,31,32
 297 495 297 495 282 477.5 c 128,-1,33
 267 460 267 460 247 446 c 128,-1,34
 227 432 227 432 206 422 c 128,-1,35
 185 412 185 412 174 406 c 0,36,37
 147 392 147 392 131 375 c 128,-1,38
 115 358 115 358 107 339.5 c 128,-1,39
 99 321 99 321 97 300.5 c 128,-1,40
 95 280 95 280 95 259 c 1,41,-1
 250 259 l 1,0,1
83 84 m 256,42,43
 83 45 83 45 110.5 17.5 c 128,-1,44
 138 -10 138 -10 177 -10 c 256,45,46
 216 -10 216 -10 243.5 17.5 c 128,-1,47
 271 45 271 45 271 84 c 256,48,49
 271 123 271 123 243.5 150.5 c 128,-1,50
 216 178 216 178 177 178 c 256,51,52
 138 178 138 178 110.5 150.5 c 128,-1,53
 83 123 83 123 83 84 c 256,42,43
EndSplineSet
EndChar

StartChar: at
Encoding: 64 64 35
Width: 852
GlyphClass: 1
Flags: W
LayerCount: 2
Fore
SplineSet
425 603 m 0,0,1
 348 603 348 603 278 579.5 c 128,-1,2
 208 556 208 556 154.5 509 c 128,-1,3
 101 462 101 462 69 392.5 c 128,-1,4
 37 323 37 323 37 231 c 0,5,6
 37 144 37 144 65.5 74.5 c 128,-1,7
 94 5 94 5 143.5 -44 c 128,-1,8
 193 -93 193 -93 259 -119.5 c 128,-1,9
 325 -146 325 -146 400 -146 c 0,10,11
 445 -146 445 -146 491.5 -136 c 128,-1,12
 538 -126 538 -126 581 -106 c 1,13,-1
 561 -38 l 1,14,15
 524 -52 524 -52 489.5 -64 c 128,-1,16
 455 -76 455 -76 403 -76 c 0,17,18
 333 -76 333 -76 279 -52 c 128,-1,19
 225 -28 225 -28 187.5 13.5 c 128,-1,20
 150 55 150 55 130.5 110.5 c 128,-1,21
 111 166 111 166 111 229 c 0,22,23
 111 295 111 295 132 351 c 128,-1,24
 153 407 153 407 192.5 447.5 c 128,-1,25
 232 488 232 488 289.5 510.5 c 128,-1,26
 347 533 347 533 419 533 c 0,27,28
 492 533 492 533 550 510 c 128,-1,29
 608 487 608 487 649 446 c 128,-1,30
 690 405 690 405 712 348.5 c 128,-1,31
 734 292 734 292 734 225 c 0,32,33
 734 209 734 209 732 182 c 128,-1,34
 730 155 730 155 722.5 128.5 c 128,-1,35
 715 102 715 102 701.5 83 c 128,-1,36
 688 64 688 64 664 64 c 0,37,38
 646 64 646 64 636.5 75 c 128,-1,39
 627 86 627 86 622 104 c 128,-1,40
 617 122 617 122 616 144 c 128,-1,41
 615 166 615 166 615 188 c 2,42,-1
 615 255 l 2,43,44
 615 288 615 288 611.5 325 c 128,-1,45
 608 362 608 362 589 394 c 128,-1,46
 570 426 570 426 530 447 c 128,-1,47
 490 468 490 468 418 468 c 0,48,49
 368 468 368 468 323 456.5 c 128,-1,50
 278 445 278 445 240 419 c 1,51,-1
 272 322 l 1,52,53
 292 341 292 341 324.5 352 c 128,-1,54
 357 363 357 363 399 363 c 0,55,56
 431 363 431 363 451.5 356.5 c 128,-1,57
 472 350 472 350 484 338 c 128,-1,58
 496 326 496 326 500.5 309 c 128,-1,59
 505 292 505 292 505 272 c 1,60,61
 491 279 491 279 466 285.5 c 128,-1,62
 441 292 441 292 403 292 c 0,63,64
 368 292 368 292 334.5 284.5 c 128,-1,65
 301 277 301 277 275 259 c 128,-1,66
 249 241 249 241 233 211.5 c 128,-1,67
 217 182 217 182 217 138 c 0,68,69
 217 72 217 72 256 33 c 128,-1,70
 295 -6 295 -6 372 -6 c 0,71,72
 419 -6 419 -6 463 9.5 c 128,-1,73
 507 25 507 25 541 57 c 1,74,75
 543 46 543 46 549 33 c 128,-1,76
 555 20 555 20 567 9 c 128,-1,77
 579 -2 579 -2 598 -9 c 128,-1,78
 617 -16 617 -16 645 -16 c 0,79,80
 703 -16 703 -16 735.5 13.5 c 128,-1,81
 768 43 768 43 784 82 c 128,-1,82
 800 121 800 121 803.5 160.5 c 128,-1,83
 807 200 807 200 807 221 c 0,84,85
 807 321 807 321 775 393 c 128,-1,86
 743 465 743 465 689.5 511.5 c 128,-1,87
 636 558 636 558 567.5 580.5 c 128,-1,88
 499 603 499 603 425 603 c 0,0,1
465 100 m 0,89,90
 445 89 445 89 422 86 c 128,-1,91
 399 83 399 83 385 83 c 0,92,93
 370 83 370 83 358.5 86.5 c 128,-1,94
 347 90 347 90 340 97 c 128,-1,95
 333 104 333 104 329.5 114.5 c 128,-1,96
 326 125 326 125 326 139 c 0,97,98
 326 156 326 156 330.5 169 c 128,-1,99
 335 182 335 182 345 190.5 c 128,-1,100
 355 199 355 199 369.5 203.5 c 128,-1,101
 384 208 384 208 405 208 c 0,102,103
 419 208 419 208 433.5 206 c 128,-1,104
 448 204 448 204 461 201.5 c 128,-1,105
 474 199 474 199 485.5 195.5 c 128,-1,106
 497 192 497 192 504 189 c 1,107,-1
 504 148 l 2,108,109
 504 140 504 140 500.5 132.5 c 128,-1,110
 497 125 497 125 491 119 c 128,-1,111
 485 113 485 113 478 108 c 128,-1,112
 471 103 471 103 465 100 c 0,89,90
EndSplineSet
EndChar

StartChar: A
Encoding: 65 65 36
Width: 667
GlyphClass: 1
Flags: W
LayerCount: 2
Fore
SplineSet
-2 0 m 1,0,-1
 197 0 l 1,1,-1
 239 139 l 1,2,-1
 428 139 l 1,3,-1
 471 0 l 1,4,-1
 669 0 l 1,5,-1
 443 710 l 1,6,-1
 225 710 l 1,7,-1
 -2 0 l 1,0,-1
268 269 m 1,8,-1
 334 519 l 1,9,-1
 397 269 l 1,10,-1
 268 269 l 1,8,-1
EndSplineSet
Substitution2: "Single Substitution lookup 45 subtable" ordfeminine
Substitution2: "'aalt' Access All Alternates lookup 0 subtable" ordfeminine
EndChar

StartChar: B
Encoding: 66 66 37
Width: 690
GlyphClass: 1
Flags: W
LayerCount: 2
Fore
SplineSet
665 182 m 0,0,1
 665 219 665 219 656 249 c 128,-1,2
 647 279 647 279 629.5 301.5 c 128,-1,3
 612 324 612 324 587.5 339.5 c 128,-1,4
 563 355 563 355 533 364 c 1,5,6
 584 387 584 387 609.5 432.5 c 128,-1,7
 635 478 635 478 635 528 c 0,8,9
 635 562 635 562 624 594.5 c 128,-1,10
 613 627 613 627 592 652.5 c 128,-1,11
 571 678 571 678 541 694 c 128,-1,12
 511 710 511 710 473 710 c 2,13,-1
 61 710 l 1,14,-1
 61 0 l 1,15,-1
 410 0 l 2,16,17
 463 0 463 0 509 10.5 c 128,-1,18
 555 21 555 21 590 43 c 128,-1,19
 625 65 625 65 645 99.5 c 128,-1,20
 665 134 665 134 665 182 c 0,0,1
467 222 m 0,21,22
 467 208 467 208 462.5 197.5 c 128,-1,23
 458 187 458 187 450.5 179.5 c 128,-1,24
 443 172 443 172 432.5 168 c 128,-1,25
 422 164 422 164 410 164 c 2,26,-1
 256 164 l 1,27,-1
 256 283 l 1,28,-1
 417 283 l 2,29,30
 428 283 428 283 437 278.5 c 128,-1,31
 446 274 446 274 453 265.5 c 128,-1,32
 460 257 460 257 463.5 246 c 128,-1,33
 467 235 467 235 467 222 c 0,21,22
395 544 m 2,34,35
 404 544 404 544 412.5 541 c 128,-1,36
 421 538 421 538 427.5 531.5 c 128,-1,37
 434 525 434 525 438 515 c 128,-1,38
 442 505 442 505 442 490 c 0,39,40
 442 474 442 474 437.5 463 c 128,-1,41
 433 452 433 452 425.5 446 c 128,-1,42
 418 440 418 440 408.5 437.5 c 128,-1,43
 399 435 399 435 389 435 c 2,44,-1
 256 435 l 1,45,-1
 256 544 l 1,46,-1
 395 544 l 2,34,35
EndSplineSet
EndChar

StartChar: C
Encoding: 67 67 38
Width: 691
GlyphClass: 1
Flags: W
LayerCount: 2
Fore
SplineSet
22 361 m 0,0,1
 22 293 22 293 48.5 227 c 128,-1,2
 75 161 75 161 122 109.5 c 128,-1,3
 169 58 169 58 234.5 26 c 128,-1,4
 300 -6 300 -6 379 -6 c 0,5,6
 424 -6 424 -6 471.5 5 c 128,-1,7
 519 16 519 16 560.5 37 c 128,-1,8
 602 58 602 58 634.5 89 c 128,-1,9
 667 120 667 120 683 159 c 1,10,-1
 524 254 l 1,11,12
 515 230 515 230 499.5 213.5 c 128,-1,13
 484 197 484 197 464.5 186.5 c 128,-1,14
 445 176 445 176 424 171.5 c 128,-1,15
 403 167 403 167 383 167 c 0,16,17
 345 167 345 167 314.5 182.5 c 128,-1,18
 284 198 284 198 263 224 c 128,-1,19
 242 250 242 250 231 284 c 128,-1,20
 220 318 220 318 220 355 c 0,21,22
 220 388 220 388 229.5 421.5 c 128,-1,23
 239 455 239 455 258.5 481.5 c 128,-1,24
 278 508 278 508 308.5 524.5 c 128,-1,25
 339 541 339 541 381 541 c 0,26,27
 401 541 401 541 422.5 537 c 128,-1,28
 444 533 444 533 464 523 c 128,-1,29
 484 513 484 513 500.5 496 c 128,-1,30
 517 479 517 479 527 453 c 1,31,-1
 676 559 l 1,32,33
 639 629 639 629 563.5 671.5 c 128,-1,34
 488 714 488 714 385 714 c 0,35,36
 300 714 300 714 232.5 683 c 128,-1,37
 165 652 165 652 118 602 c 128,-1,38
 71 552 71 552 46.5 489 c 128,-1,39
 22 426 22 426 22 361 c 0,0,1
EndSplineSet
EndChar

StartChar: D
Encoding: 68 68 39
Width: 716
GlyphClass: 1
Flags: W
LayerCount: 2
Fore
SplineSet
334 0 m 2,0,1
 415 0 415 0 481 25.5 c 128,-1,2
 547 51 547 51 594 97.5 c 128,-1,3
 641 144 641 144 666.5 209.5 c 128,-1,4
 692 275 692 275 692 356 c 0,5,6
 692 430 692 430 669.5 494.5 c 128,-1,7
 647 559 647 559 602 607 c 128,-1,8
 557 655 557 655 490 682.5 c 128,-1,9
 423 710 423 710 334 710 c 2,10,-1
 61 710 l 1,11,-1
 61 0 l 1,12,-1
 334 0 l 2,0,1
494 356 m 0,13,14
 494 316 494 316 483.5 282 c 128,-1,15
 473 248 473 248 452.5 223 c 128,-1,16
 432 198 432 198 402 184 c 128,-1,17
 372 170 372 170 334 170 c 2,18,-1
 256 170 l 1,19,-1
 256 540 l 1,20,-1
 334 540 l 2,21,22
 372 540 372 540 401.5 526.5 c 128,-1,23
 431 513 431 513 451.5 489 c 128,-1,24
 472 465 472 465 483 431 c 128,-1,25
 494 397 494 397 494 356 c 0,13,14
EndSplineSet
EndChar

StartChar: E
Encoding: 69 69 40
Width: 597
GlyphClass: 1
Flags: W
LayerCount: 2
Fore
SplineSet
256 170 m 1,0,-1
 256 282 l 1,1,-1
 514 282 l 1,2,-1
 514 440 l 1,3,-1
 256 440 l 1,4,-1
 256 540 l 1,5,-1
 558 540 l 1,6,-1
 558 710 l 1,7,-1
 61 710 l 1,8,-1
 61 0 l 1,9,-1
 567 0 l 1,10,-1
 567 170 l 1,11,-1
 256 170 l 1,0,-1
EndSplineSet
EndChar

StartChar: F
Encoding: 70 70 41
Width: 563
GlyphClass: 1
Flags: W
LayerCount: 2
Fore
SplineSet
256 0 m 1,0,-1
 256 264 l 1,1,-1
 494 264 l 1,2,-1
 494 422 l 1,3,-1
 256 422 l 1,4,-1
 256 540 l 1,5,-1
 548 540 l 1,6,-1
 548 710 l 1,7,-1
 61 710 l 1,8,-1
 61 0 l 1,9,-1
 256 0 l 1,0,-1
EndSplineSet
EndChar

StartChar: G
Encoding: 71 71 42
Width: 711
GlyphClass: 1
Flags: W
LayerCount: 2
Fore
SplineSet
364 -5 m 0,0,1
 406 -5 406 -5 442.5 -1 c 128,-1,2
 479 3 479 3 514.5 14 c 128,-1,3
 550 25 550 25 586 45.5 c 128,-1,4
 622 66 622 66 663 100 c 1,5,-1
 663 398 l 1,6,-1
 341 398 l 1,7,-1
 345 238 l 1,8,-1
 463 238 l 1,9,-1
 463 184 l 1,10,11
 447 177 447 177 438 172.5 c 128,-1,12
 429 168 429 168 420 166.5 c 128,-1,13
 411 165 411 165 399 164.5 c 128,-1,14
 387 164 387 164 367 164 c 0,15,16
 326 164 326 164 298 182.5 c 128,-1,17
 270 201 270 201 252.5 229 c 128,-1,18
 235 257 235 257 227.5 291 c 128,-1,19
 220 325 220 325 220 356 c 0,20,21
 220 391 220 391 228.5 424 c 128,-1,22
 237 457 237 457 254.5 483.5 c 128,-1,23
 272 510 272 510 299 526 c 128,-1,24
 326 542 326 542 362 542 c 0,25,26
 395 542 395 542 418.5 529.5 c 128,-1,27
 442 517 442 517 457.5 501 c 128,-1,28
 473 485 473 485 481 469.5 c 128,-1,29
 489 454 489 454 491 449 c 1,30,-1
 646 570 l 1,31,32
 606 641 606 641 536 678 c 128,-1,33
 466 715 466 715 374 715 c 0,34,35
 291 715 291 715 225.5 685.5 c 128,-1,36
 160 656 160 656 115 606.5 c 128,-1,37
 70 557 70 557 46 491.5 c 128,-1,38
 22 426 22 426 22 355 c 0,39,40
 22 287 22 287 44 222 c 128,-1,41
 66 157 66 157 109.5 106.5 c 128,-1,42
 153 56 153 56 217 25.5 c 128,-1,43
 281 -5 281 -5 364 -5 c 0,0,1
EndSplineSet
Substitution2: "'ss11' Style Set 11 lookup 39 subtable" G.ss11
Substitution2: "'aalt' Access All Alternates lookup 0 subtable" G.ss11
EndChar

StartChar: H
Encoding: 72 72 43
Width: 750
GlyphClass: 1
Flags: W
LayerCount: 2
Fore
SplineSet
494 710 m 1,0,-1
 494 448 l 1,1,-1
 256 448 l 1,2,-1
 256 710 l 1,3,-1
 61 710 l 1,4,-1
 61 0 l 1,5,-1
 256 0 l 1,6,-1
 256 278 l 1,7,-1
 494 278 l 1,8,-1
 494 0 l 1,9,-1
 689 0 l 1,10,-1
 689 710 l 1,11,-1
 494 710 l 1,0,-1
EndSplineSet
EndChar

StartChar: I
Encoding: 73 73 44
Width: 317
GlyphClass: 1
Flags: W
LayerCount: 2
Fore
SplineSet
256 0 m 1,0,-1
 256 710 l 1,1,-1
 61 710 l 1,2,-1
 61 0 l 1,3,-1
 256 0 l 1,0,-1
EndSplineSet
EndChar

StartChar: J
Encoding: 74 74 45
Width: 579
GlyphClass: 2
Flags: W
LayerCount: 2
Fore
SplineSet
251 -5 m 0,0,1
 206 -5 206 -5 166.5 8 c 128,-1,2
 127 21 127 21 95 45.5 c 128,-1,3
 63 70 63 70 39.5 104.5 c 128,-1,4
 16 139 16 139 4 182 c 1,5,-1
 165 254 l 1,6,7
 171 236 171 236 177.5 220.5 c 128,-1,8
 184 205 184 205 194 193 c 128,-1,9
 204 181 204 181 218 174.5 c 128,-1,10
 232 168 232 168 254 168 c 0,11,12
 279 168 279 168 294 175.5 c 128,-1,13
 309 183 309 183 317.5 196 c 128,-1,14
 326 209 326 209 329 227 c 128,-1,15
 332 245 332 245 332 266 c 2,16,-1
 332 710 l 1,17,-1
 518 710 l 1,18,-1
 518 253 l 2,19,20
 518 195 518 195 497.5 147.5 c 128,-1,21
 477 100 477 100 441 66 c 128,-1,22
 405 32 405 32 356.5 13.5 c 128,-1,23
 308 -5 308 -5 251 -5 c 0,0,1
EndSplineSet
EndChar

StartChar: K
Encoding: 75 75 46
Width: 690
GlyphClass: 1
Flags: W
LayerCount: 2
Fore
SplineSet
256 0 m 1,0,-1
 256 205 l 1,1,-1
 310 261 l 1,2,-1
 486 0 l 1,3,-1
 710 0 l 1,4,-1
 434 392 l 1,5,-1
 692 710 l 1,6,-1
 472 710 l 1,7,-1
 256 440 l 1,8,-1
 256 710 l 1,9,-1
 61 710 l 1,10,-1
 61 0 l 1,11,-1
 256 0 l 1,0,-1
EndSplineSet
EndChar

StartChar: L
Encoding: 76 76 47
Width: 585
GlyphClass: 1
Flags: W
LayerCount: 2
Fore
SplineSet
578 0 m 1,0,-1
 578 170 l 1,1,-1
 256 170 l 1,2,-1
 256 710 l 1,3,-1
 61 710 l 1,4,-1
 61 0 l 1,5,-1
 578 0 l 1,0,-1
EndSplineSet
EndChar

StartChar: M
Encoding: 77 77 48
Width: 854
GlyphClass: 1
Flags: W
LayerCount: 2
Fore
SplineSet
793 0 m 1,0,-1
 793 710 l 1,1,-1
 581 710 l 1,2,-1
 427 376 l 1,3,-1
 274 710 l 1,4,-1
 61 710 l 1,5,-1
 61 0 l 1,6,-1
 256 0 l 1,7,-1
 256 374 l 1,8,-1
 375 111 l 1,9,-1
 479 111 l 1,10,-1
 598 374 l 1,11,-1
 598 0 l 1,12,-1
 793 0 l 1,0,-1
EndSplineSet
EndChar

StartChar: N
Encoding: 78 78 49
Width: 754
GlyphClass: 1
Flags: W
LayerCount: 2
Fore
SplineSet
538 0 m 1,0,-1
 693 0 l 1,1,-1
 693 710 l 1,2,-1
 498 710 l 1,3,-1
 498 349 l 1,4,-1
 213 710 l 1,5,-1
 61 710 l 1,6,-1
 61 0 l 1,7,-1
 256 0 l 1,8,-1
 256 349 l 1,9,-1
 538 0 l 1,0,-1
EndSplineSet
EndChar

StartChar: O
Encoding: 79 79 50
Width: 765
GlyphClass: 1
Flags: W
LayerCount: 2
Fore
SplineSet
381 -6 m 0,0,1
 461 -6 461 -6 527.5 24 c 128,-1,2
 594 54 594 54 642 103.5 c 128,-1,3
 690 153 690 153 716.5 217.5 c 128,-1,4
 743 282 743 282 743 352 c 0,5,6
 743 420 743 420 717.5 485 c 128,-1,7
 692 550 692 550 645 601 c 128,-1,8
 598 652 598 652 532 683 c 128,-1,9
 466 714 466 714 385 714 c 0,10,11
 306 714 306 714 239.5 684.5 c 128,-1,12
 173 655 173 655 124.5 605.5 c 128,-1,13
 76 556 76 556 49 491.5 c 128,-1,14
 22 427 22 427 22 356 c 0,15,16
 22 287 22 287 48 222 c 128,-1,17
 74 157 74 157 121 106.5 c 128,-1,18
 168 56 168 56 234 25 c 128,-1,19
 300 -6 300 -6 381 -6 c 0,0,1
220 354 m 0,20,21
 220 389 220 389 229.5 422.5 c 128,-1,22
 239 456 239 456 259 482.5 c 128,-1,23
 279 509 279 509 309.5 525 c 128,-1,24
 340 541 340 541 382 541 c 0,25,26
 423 541 423 541 454 525.5 c 128,-1,27
 485 510 485 510 505 484.5 c 128,-1,28
 525 459 525 459 535 425.5 c 128,-1,29
 545 392 545 392 545 356 c 0,30,31
 545 321 545 321 535.5 287 c 128,-1,32
 526 253 526 253 506.5 226.5 c 128,-1,33
 487 200 487 200 456 183.5 c 128,-1,34
 425 167 425 167 383 167 c 256,35,36
 341 167 341 167 310.5 183 c 128,-1,37
 280 199 280 199 260 225 c 128,-1,38
 240 251 240 251 230 284.5 c 128,-1,39
 220 318 220 318 220 354 c 0,20,21
EndSplineSet
Substitution2: "Single Substitution lookup 45 subtable" ordmasculine
Substitution2: "'aalt' Access All Alternates lookup 0 subtable" ordmasculine
EndChar

StartChar: P
Encoding: 80 80 51
Width: 623
GlyphClass: 1
Flags: W
LayerCount: 2
Fore
SplineSet
256 0 m 1,0,-1
 256 218 l 1,1,-1
 372 218 l 2,2,3
 425 218 425 218 468 238.5 c 128,-1,4
 511 259 511 259 541.5 293.5 c 128,-1,5
 572 328 572 328 589 372.5 c 128,-1,6
 606 417 606 417 606 464 c 0,7,8
 606 509 606 509 588 553.5 c 128,-1,9
 570 598 570 598 538.5 632.5 c 128,-1,10
 507 667 507 667 463 688.5 c 128,-1,11
 419 710 419 710 367 710 c 2,12,-1
 61 710 l 1,13,-1
 61 0 l 1,14,-1
 256 0 l 1,0,-1
256 540 m 1,15,-1
 354 540 l 2,16,17
 363 540 363 540 372.5 536.5 c 128,-1,18
 382 533 382 533 390 524 c 128,-1,19
 398 515 398 515 403 500.5 c 128,-1,20
 408 486 408 486 408 464 c 0,21,22
 408 443 408 443 403.5 428.5 c 128,-1,23
 399 414 399 414 392.5 405 c 128,-1,24
 386 396 386 396 377 392 c 128,-1,25
 368 388 368 388 359 388 c 2,26,-1
 256 388 l 1,27,-1
 256 540 l 1,15,-1
EndSplineSet
EndChar

StartChar: Q
Encoding: 81 81 52
Width: 765
GlyphClass: 1
Flags: W
LayerCount: 2
Fore
SplineSet
381 -5 m 0,0,1
 461 -5 461 -5 527.5 24.5 c 128,-1,2
 594 54 594 54 642 103.5 c 128,-1,3
 690 153 690 153 716.5 217.5 c 128,-1,4
 743 282 743 282 743 352 c 0,5,6
 743 420 743 420 717.5 485 c 128,-1,7
 692 550 692 550 645 601 c 128,-1,8
 598 652 598 652 532 683.5 c 128,-1,9
 466 715 466 715 385 715 c 0,10,11
 306 715 306 715 239.5 685.5 c 128,-1,12
 173 656 173 656 124.5 606 c 128,-1,13
 76 556 76 556 49 491.5 c 128,-1,14
 22 427 22 427 22 356 c 0,15,16
 22 287 22 287 48 222 c 128,-1,17
 74 157 74 157 121 106.5 c 128,-1,18
 168 56 168 56 234 25.5 c 128,-1,19
 300 -5 300 -5 381 -5 c 0,0,1
383 168 m 256,20,21
 341 168 341 168 310.5 183.5 c 128,-1,22
 280 199 280 199 260 225 c 128,-1,23
 240 251 240 251 230 284.5 c 128,-1,24
 220 318 220 318 220 354 c 0,25,26
 220 389 220 389 229.5 422.5 c 128,-1,27
 239 456 239 456 259 482.5 c 128,-1,28
 279 509 279 509 309.5 525.5 c 128,-1,29
 340 542 340 542 382 542 c 0,30,31
 423 542 423 542 454 526.5 c 128,-1,32
 485 511 485 511 505 485 c 128,-1,33
 525 459 525 459 535 425.5 c 128,-1,34
 545 392 545 392 545 356 c 0,35,36
 545 321 545 321 535.5 287.5 c 128,-1,37
 526 254 526 254 506.5 227.5 c 128,-1,38
 487 201 487 201 456 184.5 c 128,-1,39
 425 168 425 168 383 168 c 256,20,21
621 -46 m 1,40,-1
 728 63 l 1,41,-1
 469 344 l 1,42,-1
 359 238 l 1,43,-1
 621 -46 l 1,40,-1
EndSplineSet
EndChar

StartChar: R
Encoding: 82 82 53
Width: 675
GlyphClass: 1
Flags: W
LayerCount: 2
Fore
SplineSet
256 0 m 1,0,-1
 256 218 l 1,1,-1
 335 218 l 1,2,-1
 460 0 l 1,3,-1
 674 0 l 1,4,-1
 524 261 l 1,5,6
 548 278 548 278 567 300 c 128,-1,7
 586 322 586 322 599 348.5 c 128,-1,8
 612 375 612 375 619 404 c 128,-1,9
 626 433 626 433 626 464 c 0,10,11
 626 509 626 509 608 553.5 c 128,-1,12
 590 598 590 598 558.5 632.5 c 128,-1,13
 527 667 527 667 483 688.5 c 128,-1,14
 439 710 439 710 387 710 c 2,15,-1
 61 710 l 1,16,-1
 61 0 l 1,17,-1
 256 0 l 1,0,-1
256 540 m 1,18,-1
 374 540 l 2,19,20
 383 540 383 540 392.5 535 c 128,-1,21
 402 530 402 530 410 520.5 c 128,-1,22
 418 511 418 511 423 496.5 c 128,-1,23
 428 482 428 482 428 464 c 256,24,25
 428 446 428 446 423.5 432 c 128,-1,26
 419 418 419 418 412.5 408 c 128,-1,27
 406 398 406 398 397 393 c 128,-1,28
 388 388 388 388 379 388 c 2,29,-1
 256 388 l 1,30,-1
 256 540 l 1,18,-1
EndSplineSet
EndChar

StartChar: S
Encoding: 83 83 54
Width: 617
GlyphClass: 1
Flags: W
LayerCount: 2
Fore
SplineSet
575 639 m 1,0,1
 551 651 551 651 521 664.5 c 128,-1,2
 491 678 491 678 456.5 689.5 c 128,-1,3
 422 701 422 701 385 708.5 c 128,-1,4
 348 716 348 716 309 716 c 0,5,6
 257 716 257 716 209 700.5 c 128,-1,7
 161 685 161 685 124 655 c 128,-1,8
 87 625 87 625 65.5 580 c 128,-1,9
 44 535 44 535 44 476 c 0,10,11
 44 437 44 437 54.5 407 c 128,-1,12
 65 377 65 377 87 353.5 c 128,-1,13
 109 330 109 330 143 311.5 c 128,-1,14
 177 293 177 293 224 277 c 0,15,16
 256 266 256 266 284.5 258 c 128,-1,17
 313 250 313 250 335 242 c 128,-1,18
 357 234 357 234 369.5 223.5 c 128,-1,19
 382 213 382 213 382 198 c 0,20,21
 382 184 382 184 369.5 175.5 c 128,-1,22
 357 167 357 167 325 167 c 0,23,24
 284 167 284 167 243.5 179 c 128,-1,25
 203 191 203 191 170.5 206 c 128,-1,26
 138 221 138 221 117.5 233 c 128,-1,27
 97 245 97 245 97 245 c 1,28,-1
 13 74 l 1,29,30
 45 55 45 55 82.5 40 c 128,-1,31
 120 25 120 25 160.5 14 c 128,-1,32
 201 3 201 3 242 -3 c 128,-1,33
 283 -9 283 -9 322 -9 c 0,34,35
 372 -9 372 -9 420 2.5 c 128,-1,36
 468 14 468 14 506.5 40 c 128,-1,37
 545 66 545 66 568.5 109.5 c 128,-1,38
 592 153 592 153 592 217 c 0,39,40
 592 267 592 267 577 302 c 128,-1,41
 562 337 562 337 534 361.5 c 128,-1,42
 506 386 506 386 466.5 404 c 128,-1,43
 427 422 427 422 378 437 c 0,44,45
 347 447 347 447 322.5 454 c 128,-1,46
 298 461 298 461 281 468.5 c 128,-1,47
 264 476 264 476 255 485 c 128,-1,48
 246 494 246 494 246 508 c 0,49,50
 246 527 246 527 262 535 c 128,-1,51
 278 543 278 543 303 543 c 0,52,53
 335 543 335 543 368.5 533 c 128,-1,54
 402 523 402 523 429 510.5 c 128,-1,55
 456 498 456 498 473.5 488 c 128,-1,56
 491 478 491 478 491 478 c 1,57,-1
 575 639 l 1,0,1
EndSplineSet
EndChar

StartChar: T
Encoding: 84 84 55
Width: 624
GlyphClass: 1
Flags: W
LayerCount: 2
Fore
SplineSet
614 710 m 1,0,-1
 10 710 l 1,1,-1
 10 540 l 1,2,-1
 215 540 l 1,3,-1
 215 0 l 1,4,-1
 410 0 l 1,5,-1
 410 540 l 1,6,-1
 614 540 l 1,7,-1
 614 710 l 1,0,-1
EndSplineSet
EndChar

StartChar: U
Encoding: 85 85 56
Width: 743
GlyphClass: 1
Flags: W
LayerCount: 2
Fore
SplineSet
371 -6 m 0,0,1
 454 -6 454 -6 514 21 c 128,-1,2
 574 48 574 48 614 95.5 c 128,-1,3
 654 143 654 143 673 207 c 128,-1,4
 692 271 692 271 692 345 c 2,5,-1
 692 710 l 1,6,-1
 497 710 l 1,7,-1
 497 345 l 2,8,9
 497 311 497 311 490.5 278.5 c 128,-1,10
 484 246 484 246 469 221.5 c 128,-1,11
 454 197 454 197 430 182 c 128,-1,12
 406 167 406 167 371 167 c 0,13,14
 337 167 337 167 313.5 181.5 c 128,-1,15
 290 196 290 196 275 220.5 c 128,-1,16
 260 245 260 245 253 277.5 c 128,-1,17
 246 310 246 310 246 345 c 2,18,-1
 246 710 l 1,19,-1
 51 710 l 1,20,-1
 51 345 l 2,21,22
 51 275 51 275 69 211 c 128,-1,23
 87 147 87 147 126 99 c 128,-1,24
 165 51 165 51 225.5 22.5 c 128,-1,25
 286 -6 286 -6 371 -6 c 0,0,1
EndSplineSet
EndChar

StartChar: V
Encoding: 86 86 57
Width: 672
GlyphClass: 1
Flags: W
LayerCount: 2
Fore
SplineSet
-8 710 m 1,0,-1
 240 0 l 1,1,-1
 434 0 l 1,2,-1
 679 710 l 1,3,-1
 474 710 l 1,4,-1
 337 225 l 1,5,-1
 198 710 l 1,6,-1
 -8 710 l 1,0,-1
EndSplineSet
EndChar

StartChar: W
Encoding: 87 87 58
Width: 1122
GlyphClass: 1
Flags: W
LayerCount: 2
Fore
SplineSet
226 0 m 1,0,-1
 404 0 l 1,1,-1
 562 427 l 1,2,-1
 723 1 l 1,3,-1
 905 1 l 1,4,-1
 1118 710 l 1,5,-1
 925 710 l 1,6,-1
 801 253 l 1,7,-1
 648 709 l 1,8,-1
 481 709 l 1,9,-1
 330 251 l 1,10,-1
 205 709 l 1,11,-1
 13 709 l 1,12,-1
 226 0 l 1,0,-1
EndSplineSet
Substitution2: "'ss09' Style Set 9 lookup 37 subtable" W.ss09
Substitution2: "'aalt' Access All Alternates lookup 0 subtable" W.ss09
EndChar

StartChar: X
Encoding: 88 88 59
Width: 657
GlyphClass: 1
Flags: W
LayerCount: 2
Fore
SplineSet
-11 710 m 1,0,-1
 212 350 l 1,1,-1
 -3 0 l 1,2,-1
 208 0 l 1,3,-1
 329 214 l 1,4,-1
 450 0 l 1,5,-1
 660 0 l 1,6,-1
 445 350 l 1,7,-1
 668 710 l 1,8,-1
 458 710 l 1,9,-1
 329 486 l 1,10,-1
 200 710 l 1,11,-1
 -11 710 l 1,0,-1
EndSplineSet
EndChar

StartChar: Y
Encoding: 89 89 60
Width: 666
GlyphClass: 1
Flags: W
LayerCount: 2
Fore
SplineSet
-6 710 m 1,0,-1
 235 237 l 1,1,-1
 235 0 l 1,2,-1
 429 0 l 1,3,-1
 429 235 l 1,4,-1
 674 710 l 1,5,-1
 462 710 l 1,6,-1
 332 420 l 1,7,-1
 205 710 l 1,8,-1
 -6 710 l 1,0,-1
EndSplineSet
EndChar

StartChar: Z
Encoding: 90 90 61
Width: 622
GlyphClass: 1
Flags: W
LayerCount: 2
Fore
SplineSet
27 0 m 1,0,-1
 590 0 l 1,1,-1
 590 170 l 1,2,-1
 282 170 l 1,3,-1
 584 565 l 1,4,-1
 584 710 l 1,5,-1
 42 710 l 1,6,-1
 42 540 l 1,7,-1
 349 540 l 1,8,-1
 27 145 l 1,9,-1
 27 0 l 1,0,-1
EndSplineSet
EndChar

StartChar: bracketleft
Encoding: 91 91 62
Width: 371
GlyphClass: 1
Flags: W
LayerCount: 2
Fore
SplineSet
324 -40 m 1,0,-1
 324 110 l 1,1,-1
 254 110 l 1,2,-1
 254 590 l 1,3,-1
 324 590 l 1,4,-1
 324 740 l 1,5,-1
 79 740 l 1,6,-1
 79 -40 l 1,7,-1
 324 -40 l 1,0,-1
EndSplineSet
EndChar

StartChar: backslash
Encoding: 92 92 63
Width: 694
GlyphClass: 1
Flags: W
LayerCount: 2
Fore
SplineSet
25 710 m 1,0,-1
 461 0 l 1,1,-1
 670 0 l 1,2,-1
 235 710 l 1,3,-1
 25 710 l 1,0,-1
EndSplineSet
EndChar

StartChar: bracketright
Encoding: 93 93 64
Width: 371
GlyphClass: 1
Flags: W
LayerCount: 2
Fore
SplineSet
292 -40 m 1,0,-1
 292 740 l 1,1,-1
 47 740 l 1,2,-1
 47 590 l 1,3,-1
 117 590 l 1,4,-1
 117 110 l 1,5,-1
 47 110 l 1,6,-1
 47 -40 l 1,7,-1
 292 -40 l 1,0,-1
EndSplineSet
EndChar

StartChar: asciicircum
Encoding: 94 94 65
Width: 625
GlyphClass: 1
Flags: W
LayerCount: 2
Fore
SplineSet
187 303 m 1,0,-1
 313 556 l 1,1,-1
 436 303 l 1,2,-1
 589 303 l 1,3,-1
 392 710 l 1,4,-1
 234 710 l 1,5,-1
 36 303 l 1,6,-1
 187 303 l 1,0,-1
EndSplineSet
EndChar

StartChar: underscore
Encoding: 95 95 66
Width: 441
GlyphClass: 1
Flags: W
LayerCount: 2
Fore
SplineSet
397 -170 m 1,0,-1
 397 0 l 1,1,-1
 44 0 l 1,2,-1
 44 -170 l 1,3,-1
 397 -170 l 1,0,-1
EndSplineSet
EndChar

StartChar: a
Encoding: 97 97 68
Width: 584
GlyphClass: 1
Flags: W
LayerCount: 2
Fore
SplineSet
542 0 m 1,0,-1
 542 312 l 2,1,2
 542 368 542 368 524.5 409.5 c 128,-1,3
 507 451 507 451 473.5 479.5 c 128,-1,4
 440 508 440 508 391.5 522 c 128,-1,5
 343 536 343 536 280 536 c 0,6,7
 212 536 212 536 154 519.5 c 128,-1,8
 96 503 96 503 43 469 c 1,9,-1
 98 351 l 1,10,11
 140 379 140 379 178 393.5 c 128,-1,12
 216 408 216 408 261 408 c 0,13,14
 285 408 285 408 302 403.5 c 128,-1,15
 319 399 319 399 330.5 390 c 128,-1,16
 342 381 342 381 347 367 c 128,-1,17
 352 353 352 353 352 335 c 2,18,-1
 352 319 l 1,19,20
 332 329 332 329 304.5 334 c 128,-1,21
 277 339 277 339 246 339 c 0,22,23
 196 339 196 339 154.5 326 c 128,-1,24
 113 313 113 313 83 289 c 128,-1,25
 53 265 53 265 36 232 c 128,-1,26
 19 199 19 199 19 159 c 0,27,28
 19 123 19 123 33 92 c 128,-1,29
 47 61 47 61 71.5 38.5 c 128,-1,30
 96 16 96 16 130 3 c 128,-1,31
 164 -10 164 -10 203 -10 c 0,32,33
 255 -10 255 -10 294 9 c 128,-1,34
 333 28 333 28 359 65 c 1,35,-1
 359 0 l 1,36,-1
 542 0 l 1,0,-1
327 146 m 0,37,38
 320 142 320 142 312 138 c 128,-1,39
 304 134 304 134 295.5 131.5 c 128,-1,40
 287 129 287 129 278 127.5 c 128,-1,41
 269 126 269 126 260 126 c 0,42,43
 247 126 247 126 235.5 129.5 c 128,-1,44
 224 133 224 133 215.5 140 c 128,-1,45
 207 147 207 147 202.5 156 c 128,-1,46
 198 165 198 165 198 176 c 0,47,48
 198 189 198 189 204 200 c 128,-1,49
 210 211 210 211 221 219 c 128,-1,50
 232 227 232 227 247 231.5 c 128,-1,51
 262 236 262 236 279 236 c 0,52,53
 295 236 295 236 315 232 c 128,-1,54
 335 228 335 228 352 222 c 1,55,-1
 352 183 l 2,56,57
 352 173 352 173 345 163.5 c 128,-1,58
 338 154 338 154 327 146 c 0,37,38
EndSplineSet
Substitution2: "Single Substitution lookup 45 subtable" ordfeminine
Substitution2: "'ss02' Style Set 2 lookup 30 subtable" a.ss02
Substitution2: "'ss01' Style Set 1 lookup 29 subtable" a.ss01
Substitution2: "'salt' Stylistic Alternatives lookup 28 subtable" a.ss01
AlternateSubs2: "'aalt' Access All Alternates lookup 1 subtable" ordfeminine a.ss01 a.ss02
EndChar

StartChar: b
Encoding: 98 98 69
Width: 647
GlyphClass: 1
Flags: W
LayerCount: 2
Fore
SplineSet
383 -10 m 0,0,1
 436 -10 436 -10 480.5 10.5 c 128,-1,2
 525 31 525 31 557.5 67 c 128,-1,3
 590 103 590 103 608.5 153 c 128,-1,4
 627 203 627 203 627 261 c 0,5,6
 627 320 627 320 610 370.5 c 128,-1,7
 593 421 593 421 563 458 c 128,-1,8
 533 495 533 495 491.5 515.5 c 128,-1,9
 450 536 450 536 402 536 c 0,10,11
 345 536 345 536 303 513.5 c 128,-1,12
 261 491 261 491 238 448 c 1,13,-1
 238 730 l 1,14,-1
 48 730 l 1,15,-1
 48 0 l 1,16,-1
 213 0 l 1,17,-1
 213 82 l 1,18,19
 225 60 225 60 242 42.5 c 128,-1,20
 259 25 259 25 280.5 13.5 c 128,-1,21
 302 2 302 2 327.5 -4 c 128,-1,22
 353 -10 353 -10 383 -10 c 0,0,1
328 150 m 0,23,24
 315 150 315 150 302.5 153.5 c 128,-1,25
 290 157 290 157 279 163.5 c 128,-1,26
 268 170 268 170 257.5 180.5 c 128,-1,27
 247 191 247 191 238 204 c 1,28,-1
 238 298 l 1,29,30
 245 315 245 315 255.5 329.5 c 128,-1,31
 266 344 266 344 279 354.5 c 128,-1,32
 292 365 292 365 306.5 370.5 c 128,-1,33
 321 376 321 376 336 376 c 0,34,35
 357 376 357 376 374.5 367 c 128,-1,36
 392 358 392 358 404.5 342 c 128,-1,37
 417 326 417 326 424.5 305 c 128,-1,38
 432 284 432 284 432 260 c 0,39,40
 432 235 432 235 424.5 215 c 128,-1,41
 417 195 417 195 403.5 180.5 c 128,-1,42
 390 166 390 166 370.5 158 c 128,-1,43
 351 150 351 150 328 150 c 0,23,24
EndSplineSet
EndChar

StartChar: c
Encoding: 99 99 70
Width: 577
GlyphClass: 1
Flags: W
LayerCount: 2
Fore
SplineSet
308 -10 m 0,0,1
 356 -10 356 -10 396 0.5 c 128,-1,2
 436 11 436 11 468 30 c 128,-1,3
 500 49 500 49 524.5 75.5 c 128,-1,4
 549 102 549 102 565 133 c 1,5,-1
 380 189 l 1,6,7
 374 180 374 180 366 172.5 c 128,-1,8
 358 165 358 165 349 160 c 128,-1,9
 340 155 340 155 329.5 152.5 c 128,-1,10
 319 150 319 150 307 150 c 0,11,12
 288 150 288 150 271 157.5 c 128,-1,13
 254 165 254 165 241 179.5 c 128,-1,14
 228 194 228 194 221 215 c 128,-1,15
 214 236 214 236 214 263 c 256,16,17
 214 290 214 290 221 311 c 128,-1,18
 228 332 228 332 241 346.5 c 128,-1,19
 254 361 254 361 271 368.5 c 128,-1,20
 288 376 288 376 307 376 c 0,21,22
 330 376 330 376 348.5 366 c 128,-1,23
 367 356 367 356 380 337 c 1,24,-1
 565 393 l 1,25,26
 533 456 533 456 468.5 496 c 128,-1,27
 404 536 404 536 308 536 c 0,28,29
 238 536 238 536 184.5 513.5 c 128,-1,30
 131 491 131 491 94 453.5 c 128,-1,31
 57 416 57 416 38 366.5 c 128,-1,32
 19 317 19 317 19 263 c 256,33,34
 19 209 19 209 38 159.5 c 128,-1,35
 57 110 57 110 94 72.5 c 128,-1,36
 131 35 131 35 184.5 12.5 c 128,-1,37
 238 -10 238 -10 308 -10 c 0,0,1
EndSplineSet
EndChar

StartChar: d
Encoding: 100 100 71
Width: 647
GlyphClass: 1
Flags: W
LayerCount: 2
Fore
SplineSet
599 0 m 1,0,-1
 599 730 l 1,1,-1
 409 730 l 1,2,-1
 409 448 l 1,3,4
 398 469 398 469 381.5 485 c 128,-1,5
 365 501 365 501 344 512.5 c 128,-1,6
 323 524 323 524 299 530 c 128,-1,7
 275 536 275 536 249 536 c 0,8,9
 199 536 199 536 157 515.5 c 128,-1,10
 115 495 115 495 84.5 458.5 c 128,-1,11
 54 422 54 422 37 372 c 128,-1,12
 20 322 20 322 20 264 c 0,13,14
 20 204 20 204 38.5 153.5 c 128,-1,15
 57 103 57 103 90 66.5 c 128,-1,16
 123 30 123 30 168.5 10 c 128,-1,17
 214 -10 214 -10 268 -10 c 0,18,19
 320 -10 320 -10 353.5 9.5 c 128,-1,20
 387 29 387 29 410 69 c 1,21,-1
 410 0 l 1,22,-1
 599 0 l 1,0,-1
410 204 m 1,23,24
 401 191 401 191 391 180.5 c 128,-1,25
 381 170 381 170 369.5 163.5 c 128,-1,26
 358 157 358 157 345.5 153.5 c 128,-1,27
 333 150 333 150 319 150 c 0,28,29
 297 150 297 150 278 158 c 128,-1,30
 259 166 259 166 245 180.5 c 128,-1,31
 231 195 231 195 223.5 215 c 128,-1,32
 216 235 216 235 216 260 c 0,33,34
 216 284 216 284 223.5 305 c 128,-1,35
 231 326 231 326 243.5 341.5 c 128,-1,36
 256 357 256 357 273.5 366.5 c 128,-1,37
 291 376 291 376 311 376 c 0,38,39
 326 376 326 376 340.5 370.5 c 128,-1,40
 355 365 355 365 368 355 c 128,-1,41
 381 345 381 345 392 330.5 c 128,-1,42
 403 316 403 316 410 298 c 1,43,-1
 410 204 l 1,23,24
EndSplineSet
Substitution2: "'ss03' Style Set 3 lookup 31 subtable" d.ss03
Substitution2: "'aalt' Access All Alternates lookup 0 subtable" d.ss03
EndChar

StartChar: e
Encoding: 101 101 72
Width: 609
GlyphClass: 1
Flags: W
LayerCount: 2
Fore
SplineSet
307 -10 m 0,0,1
 355 -10 355 -10 396 0.5 c 128,-1,2
 437 11 437 11 470 30 c 128,-1,3
 503 49 503 49 528 75.5 c 128,-1,4
 553 102 553 102 569 133 c 1,5,-1
 408 179 l 1,6,7
 404 167 404 167 394 157 c 128,-1,8
 384 147 384 147 371.5 140 c 128,-1,9
 359 133 359 133 343.5 129.5 c 128,-1,10
 328 126 328 126 313 126 c 0,11,12
 297 126 297 126 281 130.5 c 128,-1,13
 265 135 265 135 252 144.5 c 128,-1,14
 239 154 239 154 231 169 c 128,-1,15
 223 184 223 184 221 205 c 1,16,-1
 590 205 l 1,17,18
 592 217 592 217 593.5 232.5 c 128,-1,19
 595 248 595 248 595 263 c 0,20,21
 595 317 595 317 576.5 366.5 c 128,-1,22
 558 416 558 416 521.5 453.5 c 128,-1,23
 485 491 485 491 431.5 513.5 c 128,-1,24
 378 536 378 536 307 536 c 0,25,26
 237 536 237 536 183 513.5 c 128,-1,27
 129 491 129 491 92.5 453 c 128,-1,28
 56 415 56 415 37.5 364 c 128,-1,29
 19 313 19 313 19 256 c 0,30,31
 19 203 19 203 38 155 c 128,-1,32
 57 107 57 107 93.5 70 c 128,-1,33
 130 33 130 33 184 11.5 c 128,-1,34
 238 -10 238 -10 307 -10 c 0,0,1
217 319 m 1,35,36
 219 338 219 338 226.5 353.5 c 128,-1,37
 234 369 234 369 245 379.5 c 128,-1,38
 256 390 256 390 271 395.5 c 128,-1,39
 286 401 286 401 304 401 c 256,40,41
 322 401 322 401 337 395.5 c 128,-1,42
 352 390 352 390 363.5 379.5 c 128,-1,43
 375 369 375 369 382 353.5 c 128,-1,44
 389 338 389 338 391 319 c 1,45,-1
 217 319 l 1,35,36
EndSplineSet
EndChar

StartChar: f
Encoding: 102 102 73
Width: 402
GlyphClass: 1
Flags: W
LayerCount: 2
Fore
SplineSet
275 0 m 1,0,-1
 275 322 l 1,1,-1
 390 322 l 1,2,-1
 390 465 l 1,3,-1
 275 465 l 1,4,-1
 275 529 l 2,5,6
 275 555 275 555 286.5 567.5 c 128,-1,7
 298 580 298 580 321 580 c 0,8,9
 336 580 336 580 355.5 576 c 128,-1,10
 375 572 375 572 392 566 c 1,11,-1
 424 710 l 1,12,13
 384 725 384 725 348 732.5 c 128,-1,14
 312 740 312 740 278 740 c 0,15,16
 235 740 235 740 199 724.5 c 128,-1,17
 163 709 163 709 138 680.5 c 128,-1,18
 113 652 113 652 99 612 c 128,-1,19
 85 572 85 572 85 522 c 2,20,-1
 85 465 l 1,21,-1
 20 465 l 1,22,-1
 20 322 l 1,23,-1
 85 322 l 1,24,-1
 85 0 l 1,25,-1
 275 0 l 1,0,-1
EndSplineSet
EndChar

StartChar: g
Encoding: 103 103 74
Width: 647
GlyphClass: 1
Flags: W
LayerCount: 2
Fore
SplineSet
250 0 m 256,0,1
 301 0 301 0 343.5 20 c 128,-1,2
 386 40 386 40 409 82 c 1,3,-1
 409 48 l 2,4,5
 409 13 409 13 398.5 -12 c 128,-1,6
 388 -37 388 -37 370 -52.5 c 128,-1,7
 352 -68 352 -68 328.5 -75 c 128,-1,8
 305 -82 305 -82 279 -82 c 0,9,10
 233 -82 233 -82 192.5 -63.5 c 128,-1,11
 152 -45 152 -45 123 -18 c 1,12,-1
 23 -122 l 1,13,14
 71 -171 71 -171 133.5 -197 c 128,-1,15
 196 -223 196 -223 279 -223 c 0,16,17
 351 -223 351 -223 410 -203.5 c 128,-1,18
 469 -184 469 -184 511 -149 c 128,-1,19
 553 -114 553 -114 576 -64 c 128,-1,20
 599 -14 599 -14 599 48 c 2,21,-1
 599 526 l 1,22,-1
 434 526 l 1,23,-1
 434 448 l 1,24,25
 422 469 422 469 404.5 485.5 c 128,-1,26
 387 502 387 502 365.5 513.5 c 128,-1,27
 344 525 344 525 319 530.5 c 128,-1,28
 294 536 294 536 266 536 c 0,29,30
 212 536 212 536 167 515.5 c 128,-1,31
 122 495 122 495 89.5 459 c 128,-1,32
 57 423 57 423 39 373 c 128,-1,33
 21 323 21 323 21 264 c 0,34,35
 21 208 21 208 37.5 160 c 128,-1,36
 54 112 54 112 84 76.5 c 128,-1,37
 114 41 114 41 156.5 20.5 c 128,-1,38
 199 0 199 0 250 0 c 256,0,1
318 150 m 0,39,40
 296 150 296 150 277 158 c 128,-1,41
 258 166 258 166 244 180 c 128,-1,42
 230 194 230 194 222.5 214.5 c 128,-1,43
 215 235 215 235 215 259 c 256,44,45
 215 283 215 283 222.5 304.5 c 128,-1,46
 230 326 230 326 242.5 341.5 c 128,-1,47
 255 357 255 357 272.5 366.5 c 128,-1,48
 290 376 290 376 310 376 c 0,49,50
 325 376 325 376 339.5 370.5 c 128,-1,51
 354 365 354 365 367 355 c 128,-1,52
 380 345 380 345 391 330.5 c 128,-1,53
 402 316 402 316 409 298 c 1,54,-1
 409 204 l 1,55,56
 400 191 400 191 390 180.5 c 128,-1,57
 380 170 380 170 368.5 163.5 c 128,-1,58
 357 157 357 157 344.5 153.5 c 128,-1,59
 332 150 332 150 318 150 c 0,39,40
EndSplineSet
EndChar

StartChar: h
Encoding: 104 104 75
Width: 621
GlyphClass: 1
Flags: W
LayerCount: 2
Fore
SplineSet
577 346 m 2,0,1
 577 375 577 375 572 408 c 128,-1,2
 567 441 567 441 550 469.5 c 128,-1,3
 533 498 533 498 500.5 517 c 128,-1,4
 468 536 468 536 412 536 c 256,5,6
 356 536 356 536 311 513.5 c 128,-1,7
 266 491 266 491 238 448 c 1,8,-1
 238 730 l 1,9,-1
 48 730 l 1,10,-1
 48 0 l 1,11,-1
 238 0 l 1,12,-1
 238 295 l 1,13,14
 245 312 245 312 256 326 c 128,-1,15
 267 340 267 340 279.5 350 c 128,-1,16
 292 360 292 360 304.5 365 c 128,-1,17
 317 370 317 370 326 370 c 0,18,19
 352 370 352 370 369.5 352.5 c 128,-1,20
 387 335 387 335 387 296 c 2,21,-1
 387 0 l 1,22,-1
 577 0 l 1,23,-1
 577 346 l 2,0,1
EndSplineSet
EndChar

StartChar: k
Encoding: 107 107 78
Width: 582
GlyphClass: 1
Flags: W
LayerCount: 2
Fore
SplineSet
596 0 m 1,0,-1
 397 296 l 1,1,-1
 578 526 l 1,2,-1
 378 526 l 1,3,-1
 238 331 l 1,4,-1
 238 730 l 1,5,-1
 48 730 l 1,6,-1
 48 0 l 1,7,-1
 238 0 l 1,8,-1
 238 150 l 1,9,-1
 276 192 l 1,10,-1
 395 0 l 1,11,-1
 596 0 l 1,0,-1
EndSplineSet
EndChar

StartChar: l
Encoding: 108 108 79
Width: 355
GlyphClass: 1
Flags: W
LayerCount: 2
Fore
SplineSet
44 142 m 2,0,1
 44 68 44 68 85 29 c 128,-1,2
 126 -10 126 -10 202 -10 c 0,3,4
 240 -10 240 -10 282.5 -1 c 128,-1,5
 325 8 325 8 359 24 c 1,6,-1
 335 164 l 1,7,8
 323 157 323 157 309 153 c 128,-1,9
 295 149 295 149 283 149 c 256,10,11
 271 149 271 149 262 153 c 128,-1,12
 253 157 253 157 246.5 164.5 c 128,-1,13
 240 172 240 172 237 183 c 128,-1,14
 234 194 234 194 234 209 c 2,15,-1
 234 730 l 1,16,-1
 44 730 l 1,17,-1
 44 142 l 2,0,1
EndSplineSet
Substitution2: "'ss05' Style Set 5 lookup 33 subtable" l.ss05
Substitution2: "'aalt' Access All Alternates lookup 0 subtable" l.ss05
EndChar

StartChar: m
Encoding: 109 109 80
Width: 940
GlyphClass: 1
Flags: W
LayerCount: 2
Fore
SplineSet
896 346 m 2,0,1
 896 373 896 373 891 406 c 128,-1,2
 886 439 886 439 870 468 c 128,-1,3
 854 497 854 497 823.5 516.5 c 128,-1,4
 793 536 793 536 741 536 c 0,5,6
 679 536 679 536 630.5 512 c 128,-1,7
 582 488 582 488 554 445 c 1,8,9
 543 480 543 480 510 508 c 128,-1,10
 477 536 477 536 412 536 c 0,11,12
 345 536 345 536 296 513.5 c 128,-1,13
 247 491 247 491 219 448 c 1,14,-1
 219 526 l 1,15,-1
 48 526 l 1,16,-1
 48 0 l 1,17,-1
 238 0 l 1,18,-1
 238 295 l 1,19,20
 244 312 244 312 254 325.5 c 128,-1,21
 264 339 264 339 276 349 c 128,-1,22
 288 359 288 359 300.5 364.5 c 128,-1,23
 313 370 313 370 324 370 c 0,24,25
 346 370 346 370 361.5 352.5 c 128,-1,26
 377 335 377 335 377 296 c 2,27,-1
 377 0 l 1,28,-1
 567 0 l 1,29,-1
 567 295 l 1,30,31
 573 312 573 312 583 325.5 c 128,-1,32
 593 339 593 339 605 349 c 128,-1,33
 617 359 617 359 629.5 364.5 c 128,-1,34
 642 370 642 370 653 370 c 0,35,36
 675 370 675 370 690.5 352.5 c 128,-1,37
 706 335 706 335 706 296 c 2,38,-1
 706 0 l 1,39,-1
 896 0 l 1,40,-1
 896 346 l 2,0,1
EndSplineSet
EndChar

StartChar: n
Encoding: 110 110 81
Width: 621
GlyphClass: 1
Flags: W
LayerCount: 2
Fore
SplineSet
577 346 m 2,0,1
 577 373 577 373 572 406 c 128,-1,2
 567 439 567 439 550.5 468 c 128,-1,3
 534 497 534 497 502.5 516.5 c 128,-1,4
 471 536 471 536 417 536 c 0,5,6
 383 536 383 536 353 530.5 c 128,-1,7
 323 525 323 525 298 513.5 c 128,-1,8
 273 502 273 502 253 485.5 c 128,-1,9
 233 469 233 469 219 448 c 1,10,-1
 219 526 l 1,11,-1
 48 526 l 1,12,-1
 48 0 l 1,13,-1
 238 0 l 1,14,-1
 238 295 l 1,15,16
 244 312 244 312 254.5 325.5 c 128,-1,17
 265 339 265 339 277.5 349 c 128,-1,18
 290 359 290 359 303.5 364.5 c 128,-1,19
 317 370 317 370 329 370 c 0,20,21
 352 370 352 370 369.5 352.5 c 128,-1,22
 387 335 387 335 387 296 c 2,23,-1
 387 0 l 1,24,-1
 577 0 l 1,25,-1
 577 346 l 2,0,1
EndSplineSet
EndChar

StartChar: o
Encoding: 111 111 82
Width: 614
GlyphClass: 1
Flags: W
LayerCount: 2
Fore
SplineSet
307 -10 m 0,0,1
 378 -10 378 -10 431.5 12.5 c 128,-1,2
 485 35 485 35 521.5 72.5 c 128,-1,3
 558 110 558 110 576.5 159.5 c 128,-1,4
 595 209 595 209 595 263 c 256,5,6
 595 317 595 317 576.5 366.5 c 128,-1,7
 558 416 558 416 521.5 453.5 c 128,-1,8
 485 491 485 491 431.5 513.5 c 128,-1,9
 378 536 378 536 307 536 c 0,10,11
 237 536 237 536 183 513.5 c 128,-1,12
 129 491 129 491 92.5 453.5 c 128,-1,13
 56 416 56 416 37.5 366.5 c 128,-1,14
 19 317 19 317 19 263 c 256,15,16
 19 209 19 209 37.5 159.5 c 128,-1,17
 56 110 56 110 92.5 72.5 c 128,-1,18
 129 35 129 35 183 12.5 c 128,-1,19
 237 -10 237 -10 307 -10 c 0,0,1
214 263 m 256,20,21
 214 289 214 289 221 310 c 128,-1,22
 228 331 228 331 240.5 345.5 c 128,-1,23
 253 360 253 360 270 368 c 128,-1,24
 287 376 287 376 307 376 c 256,25,26
 327 376 327 376 344 368 c 128,-1,27
 361 360 361 360 373.5 345.5 c 128,-1,28
 386 331 386 331 393 310 c 128,-1,29
 400 289 400 289 400 263 c 256,30,31
 400 237 400 237 393 216 c 128,-1,32
 386 195 386 195 373.5 180.5 c 128,-1,33
 361 166 361 166 344 158 c 128,-1,34
 327 150 327 150 307 150 c 256,35,36
 287 150 287 150 270 158 c 128,-1,37
 253 166 253 166 240.5 180.5 c 128,-1,38
 228 195 228 195 221 216 c 128,-1,39
 214 237 214 237 214 263 c 256,20,21
EndSplineSet
Substitution2: "Single Substitution lookup 45 subtable" ordmasculine
Substitution2: "'aalt' Access All Alternates lookup 0 subtable" ordmasculine
EndChar

StartChar: p
Encoding: 112 112 83
Width: 647
GlyphClass: 1
Flags: W
LayerCount: 2
Fore
SplineSet
402 -10 m 0,0,1
 450 -10 450 -10 491 11 c 128,-1,2
 532 32 532 32 562 68.5 c 128,-1,3
 592 105 592 105 609 155.5 c 128,-1,4
 626 206 626 206 626 265 c 256,5,6
 626 324 626 324 607.5 373.5 c 128,-1,7
 589 423 589 423 557 459 c 128,-1,8
 525 495 525 495 480.5 515.5 c 128,-1,9
 436 536 436 536 383 536 c 0,10,11
 323 536 323 536 282 513 c 128,-1,12
 241 490 241 490 213 447 c 1,13,-1
 213 526 l 1,14,-1
 48 526 l 1,15,-1
 48 -213 l 1,16,-1
 238 -213 l 1,17,-1
 238 78 l 1,18,19
 249 57 249 57 265.5 40.5 c 128,-1,20
 282 24 282 24 303 12.5 c 128,-1,21
 324 1 324 1 349 -4.5 c 128,-1,22
 374 -10 374 -10 402 -10 c 0,0,1
336 150 m 0,23,24
 321 150 321 150 306.5 156 c 128,-1,25
 292 162 292 162 279 173 c 128,-1,26
 266 184 266 184 255.5 199 c 128,-1,27
 245 214 245 214 238 231 c 1,28,-1
 238 322 l 1,29,30
 247 336 247 336 257.5 346 c 128,-1,31
 268 356 268 356 279 362.5 c 128,-1,32
 290 369 290 369 302.5 372.5 c 128,-1,33
 315 376 315 376 328 376 c 0,34,35
 351 376 351 376 370.5 368 c 128,-1,36
 390 360 390 360 403.5 345.5 c 128,-1,37
 417 331 417 331 424.5 311 c 128,-1,38
 432 291 432 291 432 266 c 0,39,40
 432 242 432 242 424.5 221 c 128,-1,41
 417 200 417 200 404.5 184 c 128,-1,42
 392 168 392 168 374.5 159 c 128,-1,43
 357 150 357 150 336 150 c 0,23,24
EndSplineSet
EndChar

StartChar: q
Encoding: 113 113 84
Width: 647
GlyphClass: 1
Flags: W
LayerCount: 2
Fore
SplineSet
245 -10 m 0,0,1
 302 -10 302 -10 344 12.5 c 128,-1,2
 386 35 386 35 409 78 c 1,3,-1
 409 -214 l 1,4,-1
 599 -214 l 1,5,-1
 599 526 l 1,6,-1
 434 526 l 1,7,-1
 434 445 l 1,8,9
 420 466 420 466 403 483 c 128,-1,10
 386 500 386 500 365 512 c 128,-1,11
 344 524 344 524 319 530 c 128,-1,12
 294 536 294 536 264 536 c 0,13,14
 212 536 212 536 167 515.5 c 128,-1,15
 122 495 122 495 90 459 c 128,-1,16
 58 423 58 423 39.5 373.5 c 128,-1,17
 21 324 21 324 21 265 c 256,18,19
 21 206 21 206 38 155.5 c 128,-1,20
 55 105 55 105 85 68.5 c 128,-1,21
 115 32 115 32 156 11 c 128,-1,22
 197 -10 197 -10 245 -10 c 0,0,1
319 150 m 0,23,24
 296 150 296 150 276.5 158 c 128,-1,25
 257 166 257 166 243.5 180.5 c 128,-1,26
 230 195 230 195 222.5 215 c 128,-1,27
 215 235 215 235 215 260 c 0,28,29
 215 284 215 284 222.5 305 c 128,-1,30
 230 326 230 326 242.5 342 c 128,-1,31
 255 358 255 358 272.5 367 c 128,-1,32
 290 376 290 376 311 376 c 0,33,34
 326 376 326 376 340.5 370.5 c 128,-1,35
 355 365 355 365 368 354.5 c 128,-1,36
 381 344 381 344 391.5 329.5 c 128,-1,37
 402 315 402 315 409 298 c 1,38,-1
 409 204 l 1,39,40
 400 191 400 191 389.5 180.5 c 128,-1,41
 379 170 379 170 368 163.5 c 128,-1,42
 357 157 357 157 345 153.5 c 128,-1,43
 333 150 333 150 319 150 c 0,23,24
EndSplineSet
Substitution2: "'ss06' Style Set 6 lookup 34 subtable" q.ss06
Substitution2: "'aalt' Access All Alternates lookup 0 subtable" q.ss06
EndChar

StartChar: r
Encoding: 114 114 85
Width: 416
GlyphClass: 1
Flags: W
LayerCount: 2
Fore
SplineSet
405 535 m 1,0,1
 401 536 401 536 396.5 536 c 128,-1,2
 392 536 392 536 381 536 c 0,3,4
 333 536 333 536 291.5 507.5 c 128,-1,5
 250 479 250 479 222 426 c 1,6,-1
 222 526 l 1,7,-1
 48 526 l 1,8,-1
 48 0 l 1,9,-1
 238 0 l 1,10,-1
 238 312 l 1,11,12
 260 340 260 340 305 352 c 128,-1,13
 350 364 350 364 405 364 c 1,14,-1
 405 535 l 1,0,1
EndSplineSet
EndChar

StartChar: s
Encoding: 115 115 86
Width: 501
GlyphClass: 1
Flags: W
LayerCount: 2
Fore
SplineSet
259 -10 m 0,0,1
 309 -10 309 -10 349.5 2 c 128,-1,2
 390 14 390 14 418.5 37 c 128,-1,3
 447 60 447 60 462 92.5 c 128,-1,4
 477 125 477 125 477 167 c 0,5,6
 477 202 477 202 465.5 226.5 c 128,-1,7
 454 251 454 251 430 269.5 c 128,-1,8
 406 288 406 288 369.5 303 c 128,-1,9
 333 318 333 318 282 333 c 0,10,11
 264 338 264 338 251.5 342 c 128,-1,12
 239 346 239 346 231 350.5 c 128,-1,13
 223 355 223 355 219 361 c 128,-1,14
 215 367 215 367 215 374 c 256,15,16
 215 381 215 381 218 386.5 c 128,-1,17
 221 392 221 392 226 395.5 c 128,-1,18
 231 399 231 399 239 400.5 c 128,-1,19
 247 402 247 402 257 402 c 0,20,21
 284 402 284 402 318 389 c 128,-1,22
 352 376 352 376 403 345 c 1,23,-1
 475 461 l 1,24,25
 424 504 424 504 371 520.5 c 128,-1,26
 318 537 318 537 265 537 c 256,27,28
 212 537 212 537 170 523.5 c 128,-1,29
 128 510 128 510 99 485 c 128,-1,30
 70 460 70 460 54.5 426.5 c 128,-1,31
 39 393 39 393 39 352 c 0,32,33
 39 317 39 317 50.5 293.5 c 128,-1,34
 62 270 62 270 85 253 c 128,-1,35
 108 236 108 236 143 222 c 128,-1,36
 178 208 178 208 225 191 c 0,37,38
 243 185 243 185 256 180.5 c 128,-1,39
 269 176 269 176 277.5 171.5 c 128,-1,40
 286 167 286 167 290 162 c 128,-1,41
 294 157 294 157 294 151 c 0,42,43
 294 138 294 138 284 132.5 c 128,-1,44
 274 127 274 127 253 127 c 0,45,46
 215 127 215 127 170 145 c 128,-1,47
 125 163 125 163 76 195 c 1,48,-1
 11 78 l 1,49,50
 57 35 57 35 123.5 12.5 c 128,-1,51
 190 -10 190 -10 259 -10 c 0,0,1
EndSplineSet
EndChar

StartChar: t
Encoding: 116 116 87
Width: 423
GlyphClass: 1
Flags: W
LayerCount: 2
Fore
SplineSet
383 179 m 1,0,1
 374 175 374 175 365 172 c 128,-1,2
 356 169 356 169 347 167 c 128,-1,3
 338 165 338 165 330 163.5 c 128,-1,4
 322 162 322 162 315 162 c 0,5,6
 296 162 296 162 285 172.5 c 128,-1,7
 274 183 274 183 274 209 c 2,8,-1
 274 383 l 1,9,-1
 377 383 l 1,10,-1
 377 526 l 1,11,-1
 274 526 l 1,12,-1
 274 691 l 1,13,-1
 84 691 l 1,14,-1
 84 526 l 1,15,-1
 19 526 l 1,16,-1
 19 383 l 1,17,-1
 84 383 l 1,18,-1
 84 142 l 2,19,20
 84 99 84 99 96.5 70 c 128,-1,21
 109 41 109 41 130.5 23 c 128,-1,22
 152 5 152 5 181 -3 c 128,-1,23
 210 -11 210 -11 242 -11 c 0,24,25
 264 -11 264 -11 286.5 -8 c 128,-1,26
 309 -5 309 -5 331.5 0.5 c 128,-1,27
 354 6 354 6 375.5 13 c 128,-1,28
 397 20 397 20 417 29 c 1,29,-1
 383 179 l 1,0,1
EndSplineSet
Substitution2: "'ss07' Style Set 7 lookup 35 subtable" t.ss07
Substitution2: "'aalt' Access All Alternates lookup 0 subtable" t.ss07
EndChar

StartChar: u
Encoding: 117 117 88
Width: 620
GlyphClass: 1
Flags: W
LayerCount: 2
Fore
SplineSet
572 0 m 1,0,-1
 572 526 l 1,1,-1
 382 526 l 1,2,-1
 382 204 l 1,3,4
 370 187 370 187 358.5 176.5 c 128,-1,5
 347 166 347 166 336 160 c 128,-1,6
 325 154 325 154 314.5 152 c 128,-1,7
 304 150 304 150 295 150 c 0,8,9
 279 150 279 150 267.5 155 c 128,-1,10
 256 160 256 160 248.5 169.5 c 128,-1,11
 241 179 241 179 237 192.5 c 128,-1,12
 233 206 233 206 233 223 c 2,13,-1
 233 526 l 1,14,-1
 43 526 l 1,15,-1
 43 180 l 2,16,17
 43 132 43 132 54 96 c 128,-1,18
 65 60 65 60 86.5 36.5 c 128,-1,19
 108 13 108 13 141 1.5 c 128,-1,20
 174 -10 174 -10 218 -10 c 0,21,22
 244 -10 244 -10 269 -6 c 128,-1,23
 294 -2 294 -2 316.5 7.5 c 128,-1,24
 339 17 339 17 358 32.5 c 128,-1,25
 377 48 377 48 390 70 c 1,26,-1
 390 0 l 1,27,-1
 572 0 l 1,0,-1
EndSplineSet
Substitution2: "'ss08' Style Set 8 lookup 36 subtable" u.ss08
Substitution2: "'aalt' Access All Alternates lookup 0 subtable" u.ss08
EndChar

StartChar: v
Encoding: 118 118 89
Width: 563
GlyphClass: 1
Flags: W
LayerCount: 2
Fore
SplineSet
385 0 m 1,0,-1
 562 526 l 1,1,-1
 385 526 l 1,2,-1
 290 169 l 1,3,-1
 196 526 l 1,4,-1
 1 526 l 1,5,-1
 178 0 l 1,6,-1
 385 0 l 1,0,-1
EndSplineSet
EndChar

StartChar: w
Encoding: 119 119 90
Width: 900
GlyphClass: 1
Flags: W
LayerCount: 2
Fore
SplineSet
14 522 m 1,0,-1
 188 0 l 1,1,-1
 372 0 l 1,2,-1
 454 276 l 1,3,-1
 536 0 l 1,4,-1
 719 0 l 1,5,-1
 893 522 l 1,6,-1
 726 522 l 1,7,-1
 618 174 l 1,8,-1
 530 522 l 1,9,-1
 378 522 l 1,10,-1
 289 174 l 1,11,-1
 181 522 l 1,12,-1
 14 522 l 1,0,-1
EndSplineSet
Substitution2: "'ss09' Style Set 9 lookup 37 subtable" w.ss09
Substitution2: "'aalt' Access All Alternates lookup 0 subtable" w.ss09
EndChar

StartChar: x
Encoding: 120 120 91
Width: 554
GlyphClass: 1
Flags: W
LayerCount: 2
Fore
SplineSet
-1 526 m 1,0,-1
 168 261 l 1,1,-1
 -6 0 l 1,2,-1
 187 0 l 1,3,-1
 268 129 l 1,4,-1
 277 149 l 1,5,-1
 286 129 l 1,6,-1
 367 0 l 1,7,-1
 560 0 l 1,8,-1
 386 266 l 1,9,-1
 555 526 l 1,10,-1
 362 526 l 1,11,-1
 287 397 l 1,12,-1
 277 376 l 1,13,-1
 267 397 l 1,14,-1
 192 526 l 1,15,-1
 -1 526 l 1,0,-1
EndSplineSet
EndChar

StartChar: y
Encoding: 121 121 92
Width: 555
GlyphClass: 1
Flags: W
LayerCount: 2
Fore
SplineSet
374 526 m 1,0,-1
 293 189 l 1,1,-1
 193 526 l 1,2,-1
 -2 526 l 1,3,-1
 189 0 l 1,4,-1
 106 -213 l 1,5,-1
 328 -213 l 1,6,-1
 551 526 l 1,7,-1
 374 526 l 1,0,-1
EndSplineSet
Substitution2: "'ss10' Style Set 10 lookup 38 subtable" y.ss10
Substitution2: "'aalt' Access All Alternates lookup 0 subtable" y.ss10
EndChar

StartChar: z
Encoding: 122 122 93
Width: 494
GlyphClass: 1
Flags: W
LayerCount: 2
Fore
SplineSet
22 0 m 1,0,-1
 469 0 l 1,1,-1
 469 130 l 1,2,-1
 221 130 l 1,3,-1
 460 414 l 1,4,-1
 460 526 l 1,5,-1
 37 526 l 1,6,-1
 37 396 l 1,7,-1
 262 396 l 1,8,-1
 22 112 l 1,9,-1
 22 0 l 1,0,-1
EndSplineSet
EndChar

StartChar: braceleft
Encoding: 123 123 94
Width: 374
GlyphClass: 1
Flags: W
LayerCount: 2
Fore
SplineSet
320 590 m 1,0,-1
 320 740 l 1,1,-1
 118 740 l 2,2,3
 112 740 112 740 103.5 734 c 128,-1,4
 95 728 95 728 95 710 c 2,5,-1
 95 501 l 2,6,7
 95 487 95 487 89.5 473.5 c 128,-1,8
 84 460 84 460 75.5 449.5 c 128,-1,9
 67 439 67 439 56.5 432.5 c 128,-1,10
 46 426 46 426 35 426 c 1,11,-1
 35 296 l 1,12,13
 56 291 56 291 75.5 271 c 128,-1,14
 95 251 95 251 95 219 c 2,15,-1
 95 -1 l 2,16,17
 95 -20 95 -20 103.5 -25.5 c 128,-1,18
 112 -31 112 -31 118 -31 c 2,19,-1
 320 -31 l 1,20,-1
 320 119 l 1,21,-1
 265 119 l 1,22,-1
 265 284 l 2,23,24
 265 311 265 311 252 328.5 c 128,-1,25
 239 346 239 346 224 360 c 1,26,27
 240 374 240 374 252.5 391 c 128,-1,28
 265 408 265 408 265 436 c 2,29,-1
 265 590 l 1,30,-1
 320 590 l 1,0,-1
EndSplineSet
EndChar

StartChar: bar
Encoding: 124 124 95
Width: 312
GlyphClass: 1
Flags: W
LayerCount: 2
Fore
SplineSet
236 -130 m 1,0,-1
 236 775 l 1,1,-1
 76 775 l 1,2,-1
 76 -130 l 1,3,-1
 236 -130 l 1,0,-1
EndSplineSet
EndChar

StartChar: braceright
Encoding: 125 125 96
Width: 374
GlyphClass: 1
Flags: W
LayerCount: 2
Fore
SplineSet
109 590 m 1,0,-1
 109 436 l 2,1,2
 109 408 109 408 121.5 391 c 128,-1,3
 134 374 134 374 150 360 c 1,4,5
 135 346 135 346 122 328.5 c 128,-1,6
 109 311 109 311 109 284 c 2,7,-1
 109 119 l 1,8,-1
 54 119 l 1,9,-1
 54 -31 l 1,10,-1
 256 -31 l 2,11,12
 262 -31 262 -31 270.5 -25.5 c 128,-1,13
 279 -20 279 -20 279 -1 c 2,14,-1
 279 219 l 2,15,16
 279 251 279 251 298.5 271 c 128,-1,17
 318 291 318 291 339 296 c 1,18,-1
 339 426 l 1,19,20
 329 426 329 426 318 432.5 c 128,-1,21
 307 439 307 439 298.5 449.5 c 128,-1,22
 290 460 290 460 284.5 473.5 c 128,-1,23
 279 487 279 487 279 501 c 2,24,-1
 279 710 l 2,25,26
 279 728 279 728 270.5 734 c 128,-1,27
 262 740 262 740 256 740 c 2,28,-1
 54 740 l 1,29,-1
 54 590 l 1,30,-1
 109 590 l 1,0,-1
EndSplineSet
EndChar

StartChar: asciitilde
Encoding: 126 126 97
Width: 610
GlyphClass: 1
Flags: W
LayerCount: 2
Fore
SplineSet
45 216 m 1,0,-1
 146 216 l 1,1,2
 146 217 146 217 147.5 224.5 c 128,-1,3
 149 232 149 232 155 241 c 128,-1,4
 161 250 161 250 174 257 c 128,-1,5
 187 264 187 264 210 264 c 0,6,7
 234 264 234 264 255.5 256.5 c 128,-1,8
 277 249 277 249 299.5 240 c 128,-1,9
 322 231 322 231 346 223.5 c 128,-1,10
 370 216 370 216 399 216 c 0,11,12
 448 216 448 216 480.5 237.5 c 128,-1,13
 513 259 513 259 532.5 287 c 128,-1,14
 552 315 552 315 560.5 340.5 c 128,-1,15
 569 366 569 366 569 374 c 1,16,-1
 469 374 l 1,17,18
 469 373 469 373 466.5 364.5 c 128,-1,19
 464 356 464 356 457 347 c 128,-1,20
 450 338 450 338 436.5 330.5 c 128,-1,21
 423 323 423 323 400 323 c 0,22,23
 376 323 376 323 355 331 c 128,-1,24
 334 339 334 339 312 348.5 c 128,-1,25
 290 358 290 358 265.5 366 c 128,-1,26
 241 374 241 374 211 374 c 0,27,28
 163 374 163 374 131.5 354 c 128,-1,29
 100 334 100 334 80.5 307.5 c 128,-1,30
 61 281 61 281 53 254.5 c 128,-1,31
 45 228 45 228 45 216 c 1,0,-1
EndSplineSet
EndChar

StartChar: exclamdown
Encoding: 161 161 99
Width: 362
GlyphClass: 1
Flags: W
LayerCount: 2
Fore
SplineSet
294 416 m 256,0,1
 294 439 294 439 285 459.5 c 128,-1,2
 276 480 276 480 260.5 495.5 c 128,-1,3
 245 511 245 511 224.5 520 c 128,-1,4
 204 529 204 529 181 529 c 256,5,6
 158 529 158 529 137.5 520 c 128,-1,7
 117 511 117 511 101.5 495.5 c 128,-1,8
 86 480 86 480 77 459.5 c 128,-1,9
 68 439 68 439 68 416 c 256,10,11
 68 393 68 393 77 372.5 c 128,-1,12
 86 352 86 352 101.5 336.5 c 128,-1,13
 117 321 117 321 137.5 312 c 128,-1,14
 158 303 158 303 181 303 c 256,15,16
 204 303 204 303 224.5 312 c 128,-1,17
 245 321 245 321 260.5 336.5 c 128,-1,18
 276 352 276 352 285 372.5 c 128,-1,19
 294 393 294 393 294 416 c 256,0,1
126 219 m 1,20,-1
 86 -31 l 1,21,-1
 86 -198 l 1,22,-1
 276 -198 l 1,23,-1
 276 -31 l 1,24,-1
 236 219 l 1,25,-1
 126 219 l 1,20,-1
EndSplineSet
EndChar

StartChar: cent
Encoding: 162 162 100
Width: 618
GlyphClass: 1
Flags: W
LayerCount: 2
Fore
SplineSet
356 -120 m 1,0,-1
 356 -10 l 1,1,2
 380 -10 380 -10 412.5 -1 c 128,-1,3
 445 8 445 8 477 25.5 c 128,-1,4
 509 43 509 43 537.5 70 c 128,-1,5
 566 97 566 97 583 133 c 1,6,-1
 398 189 l 1,7,8
 395 184 395 184 391 179.5 c 128,-1,9
 387 175 387 175 382 170.5 c 128,-1,10
 377 166 377 166 370.5 162 c 128,-1,11
 364 158 364 158 356 155 c 1,12,-1
 356 370 l 1,13,14
 367 368 367 368 379 358.5 c 128,-1,15
 391 349 391 349 398 337 c 1,16,-1
 583 393 l 1,17,18
 546 463 546 463 484 497.5 c 128,-1,19
 422 532 422 532 356 534 c 1,20,-1
 356 645 l 1,21,-1
 276 645 l 1,22,-1
 276 534 l 1,23,24
 216 523 216 523 171 497.5 c 128,-1,25
 126 472 126 472 96 435.5 c 128,-1,26
 66 399 66 399 51 354 c 128,-1,27
 36 309 36 309 36 258 c 0,28,29
 36 210 36 210 54 164 c 128,-1,30
 72 118 72 118 103.5 81 c 128,-1,31
 135 44 135 44 179.5 19.5 c 128,-1,32
 224 -5 224 -5 276 -9 c 1,33,-1
 276 -120 l 1,34,-1
 356 -120 l 1,0,-1
232 258 m 0,35,36
 232 276 232 276 235 292.5 c 128,-1,37
 238 309 238 309 244 322.5 c 128,-1,38
 250 336 250 336 258 345.5 c 128,-1,39
 266 355 266 355 276 361 c 1,40,-1
 276 164 l 1,41,42
 265 172 265 172 256.5 182.5 c 128,-1,43
 248 193 248 193 242.5 205 c 128,-1,44
 237 217 237 217 234.5 230.5 c 128,-1,45
 232 244 232 244 232 258 c 0,35,36
EndSplineSet
EndChar

StartChar: sterling
Encoding: 163 163 101
Width: 586
GlyphClass: 1
Flags: W
LayerCount: 2
Fore
SplineSet
61 248 m 1,0,-1
 474 248 l 1,1,-1
 474 388 l 1,2,-1
 61 388 l 1,3,-1
 61 248 l 1,0,-1
87 -9 m 1,4,5
 125 3 125 3 163.5 10.5 c 128,-1,6
 202 18 202 18 231 18 c 0,7,8
 256 18 256 18 282 13 c 128,-1,9
 308 8 308 8 333.5 1.5 c 128,-1,10
 359 -5 359 -5 384 -10 c 128,-1,11
 409 -15 409 -15 432 -15 c 0,12,13
 462 -15 462 -15 495 -5.5 c 128,-1,14
 528 4 528 4 551 19 c 1,15,-1
 505 159 l 1,16,17
 487 152 487 152 473 149 c 128,-1,18
 459 146 459 146 442 146 c 0,19,20
 426 146 426 146 409.5 148.5 c 128,-1,21
 393 151 393 151 376.5 153.5 c 128,-1,22
 360 156 360 156 344 158.5 c 128,-1,23
 328 161 328 161 312 161 c 0,24,25
 295 161 295 161 276.5 157.5 c 128,-1,26
 258 154 258 154 234 146 c 1,27,28
 252 164 252 164 265 182.5 c 128,-1,29
 278 201 278 201 286.5 219.5 c 128,-1,30
 295 238 295 238 299 257 c 128,-1,31
 303 276 303 276 303 297 c 0,32,33
 303 332 303 332 293.5 362 c 128,-1,34
 284 392 284 392 272.5 418 c 128,-1,35
 261 444 261 444 251.5 466.5 c 128,-1,36
 242 489 242 489 242 510 c 0,37,38
 242 522 242 522 246 531.5 c 128,-1,39
 250 541 250 541 257.5 548 c 128,-1,40
 265 555 265 555 276 558.5 c 128,-1,41
 287 562 287 562 300 562 c 0,42,43
 332 562 332 562 370.5 542 c 128,-1,44
 409 522 409 522 435 493 c 1,45,-1
 531 610 l 1,46,47
 488 660 488 660 427.5 687.5 c 128,-1,48
 367 715 367 715 301 715 c 0,49,50
 253 715 253 715 212 700.5 c 128,-1,51
 171 686 171 686 140 661.5 c 128,-1,52
 109 637 109 637 91.5 603.5 c 128,-1,53
 74 570 74 570 74 531 c 0,54,55
 74 499 74 499 84.5 468.5 c 128,-1,56
 95 438 95 438 107.5 408 c 128,-1,57
 120 378 120 378 130.5 348.5 c 128,-1,58
 141 319 141 319 141 289 c 0,59,60
 141 266 141 266 134 241.5 c 128,-1,61
 127 217 127 217 114.5 195 c 128,-1,62
 102 173 102 173 85.5 155 c 128,-1,63
 69 137 69 137 49 125 c 1,64,-1
 87 -9 l 1,4,5
EndSplineSet
EndChar

StartChar: currency
Encoding: 164 164 102
Width: 569
GlyphClass: 1
Flags: W
LayerCount: 2
Fore
SplineSet
114 578 m 1,0,-1
 43 507 l 1,1,-1
 108 441 l 1,2,3
 94 418 94 418 87 392 c 128,-1,4
 80 366 80 366 80 338 c 0,5,6
 80 309 80 309 87.5 282.5 c 128,-1,7
 95 256 95 256 109 233 c 1,8,-1
 43 167 l 1,9,-1
 109 101 l 1,10,-1
 181 169 l 1,11,12
 203 158 203 158 229 152.5 c 128,-1,13
 255 147 255 147 286 147 c 0,14,15
 316 147 316 147 341.5 152 c 128,-1,16
 367 157 367 157 388 168 c 1,17,-1
 459 101 l 1,18,-1
 525 167 l 1,19,-1
 461 231 l 1,20,21
 476 254 476 254 484 281.5 c 128,-1,22
 492 309 492 309 492 338 c 256,23,24
 492 367 492 367 484 394 c 128,-1,25
 476 421 476 421 462 444 c 1,26,-1
 525 507 l 1,27,-1
 454 578 l 1,28,-1
 386 509 l 1,29,30
 365 518 365 518 340 523.5 c 128,-1,31
 315 529 315 529 286 529 c 0,32,33
 256 529 256 529 230.5 523.5 c 128,-1,34
 205 518 205 518 183 507 c 1,35,-1
 114 578 l 1,0,-1
213 338 m 256,36,37
 213 356 213 356 218.5 371 c 128,-1,38
 224 386 224 386 233.5 396 c 128,-1,39
 243 406 243 406 256.5 411.5 c 128,-1,40
 270 417 270 417 286 417 c 256,41,42
 302 417 302 417 315.5 411.5 c 128,-1,43
 329 406 329 406 338.5 396 c 128,-1,44
 348 386 348 386 353.5 371 c 128,-1,45
 359 356 359 356 359 338 c 256,46,47
 359 320 359 320 353.5 305 c 128,-1,48
 348 290 348 290 338.5 280 c 128,-1,49
 329 270 329 270 315.5 264.5 c 128,-1,50
 302 259 302 259 286 259 c 256,51,52
 270 259 270 259 256.5 264.5 c 128,-1,53
 243 270 243 270 233.5 280 c 128,-1,54
 224 290 224 290 218.5 305 c 128,-1,55
 213 320 213 320 213 338 c 256,36,37
EndSplineSet
EndChar

StartChar: yen
Encoding: 165 165 103
Width: 742
GlyphClass: 1
Flags: W
LayerCount: 2
Fore
SplineSet
710 710 m 1,0,-1
 498 710 l 1,1,-1
 368 403 l 1,2,-1
 241 710 l 1,3,-1
 30 710 l 1,4,-1
 172 432 l 1,5,-1
 107 432 l 1,6,-1
 107 312 l 1,7,-1
 233 312 l 1,8,-1
 271 237 l 1,9,-1
 271 202 l 1,10,-1
 106 202 l 1,11,-1
 106 82 l 1,12,-1
 271 82 l 1,13,-1
 271 0 l 1,14,-1
 465 0 l 1,15,-1
 465 82 l 1,16,-1
 631 82 l 1,17,-1
 631 202 l 1,18,-1
 465 202 l 1,19,-1
 465 235 l 1,20,-1
 504 312 l 1,21,-1
 630 312 l 1,22,-1
 630 432 l 1,23,-1
 566 432 l 1,24,-1
 710 710 l 1,0,-1
EndSplineSet
EndChar

StartChar: brokenbar
Encoding: 166 166 104
Width: 316
GlyphClass: 1
Flags: W
LayerCount: 2
Fore
SplineSet
78 254 m 1,0,-1
 78 -130 l 1,1,-1
 238 -130 l 1,2,-1
 238 254 l 1,3,-1
 78 254 l 1,0,-1
78 775 m 1,4,-1
 78 391 l 1,5,-1
 238 391 l 1,6,-1
 238 775 l 1,7,-1
 78 775 l 1,4,-1
EndSplineSet
EndChar

StartChar: section
Encoding: 167 167 105
Width: 551
GlyphClass: 1
Flags: W
LayerCount: 2
Fore
SplineSet
488 232 m 1,0,1
 490 238 490 238 495.5 257.5 c 128,-1,2
 501 277 501 277 501 306 c 0,3,4
 501 356 501 356 479.5 389.5 c 128,-1,5
 458 423 458 423 425 443.5 c 128,-1,6
 392 464 392 464 351.5 473.5 c 128,-1,7
 311 483 311 483 273 484 c 0,8,9
 265 484 265 484 257 485 c 128,-1,10
 249 486 249 486 243 489 c 128,-1,11
 237 492 237 492 233.5 497.5 c 128,-1,12
 230 503 230 503 230 513 c 0,13,14
 230 520 230 520 232.5 526.5 c 128,-1,15
 235 533 235 533 240 537.5 c 128,-1,16
 245 542 245 542 253.5 544.5 c 128,-1,17
 262 547 262 547 275 547 c 0,18,19
 290 547 290 547 302 543 c 128,-1,20
 314 539 314 539 323.5 532.5 c 128,-1,21
 333 526 333 526 340 517.5 c 128,-1,22
 347 509 347 509 353 500 c 1,23,-1
 498 568 l 1,24,25
 485 587 485 587 464.5 612 c 128,-1,26
 444 637 444 637 415.5 660 c 128,-1,27
 387 683 387 683 349 699 c 128,-1,28
 311 715 311 715 263 715 c 0,29,30
 213 715 213 715 171.5 697.5 c 128,-1,31
 130 680 130 680 100.5 651 c 128,-1,32
 71 622 71 622 54.5 585.5 c 128,-1,33
 38 549 38 549 38 510 c 0,34,35
 38 472 38 472 50 444.5 c 128,-1,36
 62 417 62 417 70 406 c 1,37,38
 69 399 69 399 63.5 385 c 128,-1,39
 58 371 58 371 58 341 c 0,40,41
 58 304 58 304 71 271 c 128,-1,42
 84 238 84 238 111 212.5 c 128,-1,43
 138 187 138 187 179 171 c 128,-1,44
 220 155 220 155 275 150 c 0,45,46
 282 150 282 150 289 149 c 128,-1,47
 296 148 296 148 302 145.5 c 128,-1,48
 308 143 308 143 311.5 138 c 128,-1,49
 315 133 315 133 315 125 c 256,50,51
 315 117 315 117 311 110.5 c 128,-1,52
 307 104 307 104 300.5 100 c 128,-1,53
 294 96 294 96 284.5 94 c 128,-1,54
 275 92 275 92 264 92 c 0,55,56
 240 92 240 92 215 103 c 128,-1,57
 190 114 190 114 164 143 c 1,58,-1
 43 27 l 1,59,60
 53 14 53 14 74 -5.5 c 128,-1,61
 95 -25 95 -25 125 -43.5 c 128,-1,62
 155 -62 155 -62 192.5 -75 c 128,-1,63
 230 -88 230 -88 273 -88 c 0,64,65
 309 -88 309 -88 351 -77 c 128,-1,66
 393 -66 393 -66 429 -40 c 128,-1,67
 465 -14 465 -14 489 28 c 128,-1,68
 513 70 513 70 513 132 c 0,69,70
 513 170 513 170 505 194 c 128,-1,71
 497 218 497 218 488 232 c 1,0,1
242 314 m 0,72,73
 242 322 242 322 244.5 328 c 128,-1,74
 247 334 247 334 251 337 c 2,75,76
 251 337 251 337 260.5 335 c 128,-1,77
 270 333 270 333 281 333 c 0,78,79
 287 333 287 333 294 331.5 c 128,-1,80
 301 330 301 330 307 326 c 128,-1,81
 313 322 313 322 317 315.5 c 128,-1,82
 321 309 321 309 321 300 c 0,83,84
 321 294 321 294 319 287.5 c 128,-1,85
 317 281 317 281 312 277 c 1,86,87
 307 279 307 279 299.5 279.5 c 128,-1,88
 292 280 292 280 284.5 281.5 c 128,-1,89
 277 283 277 283 269.5 284.5 c 128,-1,90
 262 286 262 286 255.5 289.5 c 128,-1,91
 249 293 249 293 245.5 299 c 128,-1,92
 242 305 242 305 242 314 c 0,72,73
EndSplineSet
EndChar

StartChar: copyright
Encoding: 169 169 107
Width: 847
GlyphClass: 1
Flags: W
LayerCount: 2
Fore
SplineSet
419 -7 m 0,0,1
 503 -7 503 -7 575 20.5 c 128,-1,2
 647 48 647 48 699 96.5 c 128,-1,3
 751 145 751 145 780.5 211 c 128,-1,4
 810 277 810 277 810 355 c 0,5,6
 810 432 810 432 780.5 498 c 128,-1,7
 751 564 751 564 699 612 c 128,-1,8
 647 660 647 660 575 687.5 c 128,-1,9
 503 715 503 715 419 715 c 0,10,11
 337 715 337 715 267 687.5 c 128,-1,12
 197 660 197 660 146 612 c 128,-1,13
 95 564 95 564 66.5 498 c 128,-1,14
 38 432 38 432 38 355 c 0,15,16
 38 277 38 277 66.5 211 c 128,-1,17
 95 145 95 145 146 96.5 c 128,-1,18
 197 48 197 48 267 20.5 c 128,-1,19
 337 -7 337 -7 419 -7 c 0,0,1
419 57 m 0,20,21
 352 57 352 57 295 80 c 128,-1,22
 238 103 238 103 196.5 143.5 c 128,-1,23
 155 184 155 184 131.5 238.5 c 128,-1,24
 108 293 108 293 108 355 c 256,25,26
 108 417 108 417 131.5 470.5 c 128,-1,27
 155 524 155 524 197 564.5 c 128,-1,28
 239 605 239 605 296 628 c 128,-1,29
 353 651 353 651 419 651 c 0,30,31
 488 651 488 651 547 628 c 128,-1,32
 606 605 606 605 648.5 564.5 c 128,-1,33
 691 524 691 524 715.5 470.5 c 128,-1,34
 740 417 740 417 740 355 c 0,35,36
 740 289 740 289 715 234 c 128,-1,37
 690 179 690 179 647 140 c 128,-1,38
 604 101 604 101 545.5 79 c 128,-1,39
 487 57 487 57 419 57 c 0,20,21
429 120 m 0,40,41
 473 120 473 120 510 130 c 128,-1,42
 547 140 547 140 577 158.5 c 128,-1,43
 607 177 607 177 629 202.5 c 128,-1,44
 651 228 651 228 666 258 c 1,45,-1
 488 312 l 1,46,47
 483 303 483 303 476.5 296 c 128,-1,48
 470 289 470 289 462.5 284 c 128,-1,49
 455 279 455 279 446.5 276.5 c 128,-1,50
 438 274 438 274 428 274 c 0,51,52
 413 274 413 274 400.5 279.5 c 128,-1,53
 388 285 388 285 378 295 c 128,-1,54
 368 305 368 305 362.5 320 c 128,-1,55
 357 335 357 335 357 354 c 256,56,57
 357 373 357 373 362.5 388 c 128,-1,58
 368 403 368 403 378 413 c 128,-1,59
 388 423 388 423 400.5 428.5 c 128,-1,60
 413 434 413 434 428 434 c 0,61,62
 438 434 438 434 446.5 431.5 c 128,-1,63
 455 429 455 429 462.5 424 c 128,-1,64
 470 419 470 419 476.5 412 c 128,-1,65
 483 405 483 405 488 396 c 1,66,-1
 666 450 l 1,67,68
 637 511 637 511 577 549.5 c 128,-1,69
 517 588 517 588 429 588 c 0,70,71
 366 588 366 588 317.5 569 c 128,-1,72
 269 550 269 550 236.5 517.5 c 128,-1,73
 204 485 204 485 187 443 c 128,-1,74
 170 401 170 401 170 354 c 0,75,76
 170 308 170 308 187 265.5 c 128,-1,77
 204 223 204 223 236.5 190.5 c 128,-1,78
 269 158 269 158 317.5 139 c 128,-1,79
 366 120 366 120 429 120 c 0,40,41
EndSplineSet
EndChar

StartChar: ordfeminine
Encoding: 170 170 108
Width: 451
GlyphClass: 1
Flags: W
LayerCount: 2
Fore
SplineSet
155 333 m 0,0,1
 189 333 189 333 219 349.5 c 128,-1,2
 249 366 249 366 272 398 c 1,3,-1
 272 343 l 1,4,-1
 381 343 l 1,5,-1
 381 558 l 2,6,7
 381 636 381 636 336 675.5 c 128,-1,8
 291 715 291 715 206 715 c 0,9,10
 161 715 161 715 122 703.5 c 128,-1,11
 83 692 83 692 48 668 c 1,12,-1
 86 586 l 1,13,14
 114 606 114 606 139 616 c 128,-1,15
 164 626 164 626 193 626 c 0,16,17
 225 626 225 626 238 613 c 128,-1,18
 251 600 251 600 251 574 c 2,19,-1
 251 563 l 1,20,21
 238 570 238 570 220.5 573.5 c 128,-1,22
 203 577 203 577 183 577 c 0,23,24
 117 577 117 577 75 542 c 128,-1,25
 33 507 33 507 33 451 c 0,26,27
 33 426 33 426 42 404 c 128,-1,28
 51 382 51 382 67.5 366.5 c 128,-1,29
 84 351 84 351 106.5 342 c 128,-1,30
 129 333 129 333 155 333 c 0,0,1
194 428 m 0,31,32
 177 428 177 428 166 438 c 128,-1,33
 155 448 155 448 155 463 c 0,34,35
 155 481 155 481 169.5 493 c 128,-1,36
 184 505 184 505 206 505 c 0,37,38
 216 505 216 505 228.5 502.5 c 128,-1,39
 241 500 241 500 251 495 c 1,40,-1
 251 468 l 2,41,42
 251 461 251 461 247 454 c 128,-1,43
 243 447 243 447 235 442 c 0,44,45
 227 436 227 436 215.5 432 c 128,-1,46
 204 428 204 428 194 428 c 0,31,32
EndSplineSet
EndChar

StartChar: guillemotleft
Encoding: 171 171 109
Width: 713
GlyphClass: 1
Flags: W
LayerCount: 2
Fore
SplineSet
30 210 m 1,0,-1
 307 30 l 1,1,-1
 307 182 l 1,2,-1
 179 259 l 1,3,-1
 307 344 l 1,4,-1
 307 496 l 1,5,-1
 30 298 l 1,6,-1
 30 210 l 1,0,-1
381 210 m 1,7,-1
 658 30 l 1,8,-1
 658 182 l 1,9,-1
 530 259 l 1,10,-1
 658 344 l 1,11,-1
 658 496 l 1,12,-1
 381 298 l 1,13,-1
 381 210 l 1,7,-1
EndSplineSet
EndChar

StartChar: logicalnot
Encoding: 172 172 110
Width: 637
GlyphClass: 1
Flags: W
LayerCount: 2
Fore
SplineSet
49 431 m 1,0,-1
 49 261 l 1,1,-1
 418 261 l 1,2,-1
 418 89 l 1,3,-1
 578 89 l 1,4,-1
 578 431 l 1,5,-1
 49 431 l 1,0,-1
EndSplineSet
EndChar

StartChar: uni00AD
Encoding: 173 173 111
Width: 629
GlyphClass: 1
Flags: W
LayerCount: 2
Fore
SplineSet
579 191 m 1,0,-1
 579 361 l 1,1,-1
 50 361 l 1,2,-1
 50 191 l 1,3,-1
 579 191 l 1,0,-1
EndSplineSet
EndChar

StartChar: registered
Encoding: 174 174 112
Width: 847
GlyphClass: 1
Flags: W
LayerCount: 2
Fore
SplineSet
421 -7 m 256,0,1
 504 -7 504 -7 575.5 20.5 c 128,-1,2
 647 48 647 48 699 96.5 c 128,-1,3
 751 145 751 145 780.5 211 c 128,-1,4
 810 277 810 277 810 355 c 0,5,6
 810 432 810 432 780.5 498 c 128,-1,7
 751 564 751 564 699 612 c 128,-1,8
 647 660 647 660 575.5 687.5 c 128,-1,9
 504 715 504 715 421 715 c 256,10,11
 338 715 338 715 267.5 687.5 c 128,-1,12
 197 660 197 660 146 612 c 128,-1,13
 95 564 95 564 66.5 498 c 128,-1,14
 38 432 38 432 38 355 c 0,15,16
 38 277 38 277 66.5 211 c 128,-1,17
 95 145 95 145 146 96.5 c 128,-1,18
 197 48 197 48 267.5 20.5 c 128,-1,19
 338 -7 338 -7 421 -7 c 256,0,1
422 56 m 0,20,21
 354 56 354 56 297 79.5 c 128,-1,22
 240 103 240 103 199 143.5 c 128,-1,23
 158 184 158 184 135 238 c 128,-1,24
 112 292 112 292 112 354 c 256,25,26
 112 416 112 416 135 470 c 128,-1,27
 158 524 158 524 199 564.5 c 128,-1,28
 240 605 240 605 297 628 c 128,-1,29
 354 651 354 651 422 651 c 256,30,31
 490 651 490 651 547.5 628 c 128,-1,32
 605 605 605 605 647 564.5 c 128,-1,33
 689 524 689 524 712.5 469.5 c 128,-1,34
 736 415 736 415 736 352 c 0,35,36
 736 288 736 288 712 234 c 128,-1,37
 688 180 688 180 645.5 140.5 c 128,-1,38
 603 101 603 101 545.5 78.5 c 128,-1,39
 488 56 488 56 422 56 c 0,20,21
251 144 m 1,40,-1
 383 144 l 1,41,-1
 383 275 l 1,42,-1
 401 275 l 1,43,-1
 482 144 l 1,44,-1
 629 144 l 1,45,-1
 533 301 l 1,46,47
 547 311 547 311 558.5 324.5 c 128,-1,48
 570 338 570 338 578 354 c 128,-1,49
 586 370 586 370 590.5 387 c 128,-1,50
 595 404 595 404 595 422 c 0,51,52
 595 449 595 449 584 476 c 128,-1,53
 573 503 573 503 554 524.5 c 128,-1,54
 535 546 535 546 508.5 559 c 128,-1,55
 482 572 482 572 450 572 c 2,56,-1
 251 572 l 1,57,-1
 251 144 l 1,40,-1
383 381 m 1,58,-1
 383 463 l 1,59,-1
 434 463 l 2,60,61
 439 463 439 463 444.5 461.5 c 128,-1,62
 450 460 450 460 454.5 456 c 128,-1,63
 459 452 459 452 462 444 c 128,-1,64
 465 436 465 436 465 422 c 0,65,66
 465 410 465 410 462.5 402 c 128,-1,67
 460 394 460 394 456 389.5 c 128,-1,68
 452 385 452 385 447 383 c 128,-1,69
 442 381 442 381 436 381 c 2,70,-1
 383 381 l 1,58,-1
EndSplineSet
EndChar

StartChar: degree
Encoding: 176 176 114
Width: 300
GlyphClass: 1
Flags: W
LayerCount: 2
Fore
SplineSet
31 610 m 0,0,1
 31 555 31 555 64 520.5 c 128,-1,2
 97 486 97 486 150 486 c 256,3,4
 203 486 203 486 236 519.5 c 128,-1,5
 269 553 269 553 269 610 c 0,6,7
 269 659 269 659 236 691.5 c 128,-1,8
 203 724 203 724 150 724 c 256,9,10
 97 724 97 724 64 691.5 c 128,-1,11
 31 659 31 659 31 610 c 0,0,1
127 627 m 0,12,13
 132 632 132 632 137.5 634 c 128,-1,14
 143 636 143 636 150 636 c 0,15,16
 156 636 156 636 162 634 c 128,-1,17
 168 632 168 632 172 627 c 0,18,19
 177 623 177 623 179 617.5 c 128,-1,20
 181 612 181 612 181 605 c 0,21,22
 181 600 181 600 179 593.5 c 128,-1,23
 177 587 177 587 172 583 c 0,24,25
 168 578 168 578 162 575.5 c 128,-1,26
 156 573 156 573 150 573 c 0,27,28
 143 573 143 573 137.5 575.5 c 128,-1,29
 132 578 132 578 127 583 c 0,30,31
 123 587 123 587 120.5 593 c 128,-1,32
 118 599 118 599 118 605 c 0,33,34
 118 612 118 612 120.5 617.5 c 128,-1,35
 123 623 123 623 127 627 c 0,12,13
EndSplineSet
EndChar

StartChar: plusminus
Encoding: 177 177 115
Width: 480
GlyphClass: 1
Flags: W
LayerCount: 2
Fore
SplineSet
429 1 m 1,0,-1
 429 151 l 1,1,-1
 49 151 l 1,2,-1
 49 1 l 1,3,-1
 429 1 l 1,0,-1
325 462 m 1,4,-1
 325 577 l 1,5,-1
 155 577 l 1,6,-1
 155 462 l 1,7,-1
 50 462 l 1,8,-1
 50 312 l 1,9,-1
 155 312 l 1,10,-1
 155 197 l 1,11,-1
 325 197 l 1,12,-1
 325 312 l 1,13,-1
 430 312 l 1,14,-1
 430 462 l 1,15,-1
 325 462 l 1,4,-1
EndSplineSet
EndChar

StartChar: twosuperior
Encoding: 178 178 116
Width: 441
GlyphClass: 1
Flags: W
LayerCount: 2
Fore
SplineSet
413 376 m 1,0,-1
 413 483 l 1,1,-1
 207 483 l 1,2,3
 207 494 207 494 213 501.5 c 128,-1,4
 219 509 219 509 230 515 c 128,-1,5
 241 521 241 521 255.5 525.5 c 128,-1,6
 270 530 270 530 287 535 c 0,7,8
 305 540 305 540 326.5 550.5 c 128,-1,9
 348 561 348 561 367 578.5 c 128,-1,10
 386 596 386 596 399 621.5 c 128,-1,11
 412 647 412 647 412 683 c 0,12,13
 412 716 412 716 400 741.5 c 128,-1,14
 388 767 388 767 365 784.5 c 128,-1,15
 342 802 342 802 307.5 811.5 c 128,-1,16
 273 821 273 821 229 821 c 0,17,18
 195 821 195 821 163.5 815.5 c 128,-1,19
 132 810 132 810 105.5 801 c 128,-1,20
 79 792 79 792 59 779 c 128,-1,21
 39 766 39 766 28 751 c 1,22,-1
 96 671 l 1,23,24
 106 681 106 681 118.5 690.5 c 128,-1,25
 131 700 131 700 146.5 707.5 c 128,-1,26
 162 715 162 715 179.5 719.5 c 128,-1,27
 197 724 197 724 217 724 c 0,28,29
 249 724 249 724 270.5 711 c 128,-1,30
 292 698 292 698 292 674 c 0,31,32
 292 656 292 656 279.5 642.5 c 128,-1,33
 267 629 267 629 247.5 618 c 128,-1,34
 228 607 228 607 204.5 597.5 c 128,-1,35
 181 588 181 588 159 578 c 0,36,37
 119 559 119 559 93 540 c 128,-1,38
 67 521 67 521 52 498 c 128,-1,39
 37 475 37 475 31.5 445.5 c 128,-1,40
 26 416 26 416 26 376 c 1,41,-1
 413 376 l 1,0,-1
EndSplineSet
EndChar

StartChar: threesuperior
Encoding: 179 179 117
Width: 422
GlyphClass: 1
Flags: W
LayerCount: 2
Fore
SplineSet
202 369 m 0,0,1
 239 369 239 369 273.5 376 c 128,-1,2
 308 383 308 383 334.5 398 c 128,-1,3
 361 413 361 413 377 437.5 c 128,-1,4
 393 462 393 462 393 497 c 0,5,6
 393 539 393 539 370 571.5 c 128,-1,7
 347 604 347 604 305 611 c 1,8,9
 341 618 341 618 362 641.5 c 128,-1,10
 383 665 383 665 383 700 c 0,11,12
 383 726 383 726 370.5 748.5 c 128,-1,13
 358 771 358 771 335 787 c 128,-1,14
 312 803 312 803 279.5 812 c 128,-1,15
 247 821 247 821 207 821 c 0,16,17
 182 821 182 821 155 817.5 c 128,-1,18
 128 814 128 814 102.5 807 c 128,-1,19
 77 800 77 800 55.5 789.5 c 128,-1,20
 34 779 34 779 21 765 c 1,21,-1
 85 683 l 1,22,23
 103 699 103 699 130 712 c 128,-1,24
 157 725 157 725 196 725 c 0,25,26
 205 725 205 725 216 723.5 c 128,-1,27
 227 722 227 722 236 718.5 c 128,-1,28
 245 715 245 715 251 708 c 128,-1,29
 257 701 257 701 257 689 c 0,30,31
 257 670 257 670 237 661.5 c 128,-1,32
 217 653 217 653 163 653 c 2,33,-1
 139 653 l 1,34,-1
 139 557 l 1,35,-1
 164 557 l 2,36,37
 227 557 227 557 249.5 547.5 c 128,-1,38
 272 538 272 538 272 517 c 0,39,40
 272 491 272 491 249 482.5 c 128,-1,41
 226 474 226 474 195 474 c 0,42,43
 175 474 175 474 158.5 476.5 c 128,-1,44
 142 479 142 479 127.5 484.5 c 128,-1,45
 113 490 113 490 101 497.5 c 128,-1,46
 89 505 89 505 78 514 c 1,47,-1
 23 440 l 1,48,49
 43 403 43 403 92.5 386 c 128,-1,50
 142 369 142 369 202 369 c 0,0,1
EndSplineSet
EndChar

StartChar: uni00B5
Encoding: 181 181 119
Width: 708
GlyphClass: 1
Flags: W
LayerCount: 2
Fore
SplineSet
75 -213 m 1,0,-1
 265 -213 l 1,1,-1
 253 26 l 1,2,3
 253 25 253 25 256.5 19.5 c 128,-1,4
 260 14 260 14 267.5 7.5 c 128,-1,5
 275 1 275 1 287 -4.5 c 128,-1,6
 299 -10 299 -10 315 -10 c 0,7,8
 337 -10 337 -10 358 0.5 c 128,-1,9
 379 11 379 11 397 25.5 c 128,-1,10
 415 40 415 40 427.5 55.5 c 128,-1,11
 440 71 440 71 444 82 c 1,12,-1
 458 0 l 1,13,-1
 604 0 l 1,14,-1
 604 526 l 1,15,-1
 414 526 l 1,16,-1
 414 204 l 1,17,18
 402 187 402 187 390.5 176.5 c 128,-1,19
 379 166 379 166 368 160 c 128,-1,20
 357 154 357 154 346.5 152 c 128,-1,21
 336 150 336 150 327 150 c 0,22,23
 295 150 295 150 280 169 c 128,-1,24
 265 188 265 188 265 223 c 2,25,-1
 265 526 l 1,26,-1
 75 526 l 1,27,-1
 75 -213 l 1,0,-1
EndSplineSet
EndChar

StartChar: paragraph
Encoding: 182 182 120
Width: 705
GlyphClass: 1
Flags: W
LayerCount: 2
Fore
SplineSet
34 445 m 0,0,1
 34 388 34 388 48.5 340.5 c 128,-1,2
 63 293 63 293 90 259.5 c 128,-1,3
 117 226 117 226 154 207 c 128,-1,4
 191 188 191 188 236 188 c 1,5,-1
 236 -80 l 1,6,-1
 396 -80 l 1,7,-1
 396 188 l 1,8,-1
 427 188 l 1,9,-1
 427 -80 l 1,10,-1
 587 -80 l 1,11,-1
 587 570 l 1,12,-1
 657 570 l 1,13,-1
 657 710 l 1,14,-1
 316 710 l 2,15,16
 181 710 181 710 107.5 641.5 c 128,-1,17
 34 573 34 573 34 445 c 0,0,1
191 450 m 0,18,19
 191 499 191 499 203.5 532.5 c 128,-1,20
 216 566 216 566 236 570 c 1,21,-1
 236 328 l 1,22,23
 226 330 226 330 218 340 c 128,-1,24
 210 350 210 350 204 366 c 128,-1,25
 198 382 198 382 194.5 403.5 c 128,-1,26
 191 425 191 425 191 450 c 0,18,19
427 328 m 1,27,-1
 396 328 l 1,28,-1
 396 570 l 1,29,-1
 427 570 l 1,30,-1
 427 328 l 1,27,-1
EndSplineSet
EndChar

StartChar: onesuperior
Encoding: 185 185 123
Width: 321
GlyphClass: 1
Flags: W
LayerCount: 2
Fore
SplineSet
233 485 m 1,0,-1
 233 821 l 1,1,-1
 123 821 l 1,2,3
 123 820 123 820 114 811 c 128,-1,4
 105 802 105 802 91.5 791 c 128,-1,5
 78 780 78 780 61.5 771 c 128,-1,6
 45 762 45 762 30 762 c 1,7,-1
 30 653 l 1,8,9
 42 653 42 653 56 658.5 c 128,-1,10
 70 664 70 664 83 672.5 c 128,-1,11
 96 681 96 681 107 690 c 128,-1,12
 118 699 118 699 123 706 c 1,13,-1
 123 485 l 1,14,-1
 47 485 l 1,15,-1
 47 378 l 1,16,-1
 300 378 l 1,17,-1
 300 485 l 1,18,-1
 233 485 l 1,0,-1
EndSplineSet
EndChar

StartChar: ordmasculine
Encoding: 186 186 124
Width: 438
GlyphClass: 1
Flags: W
LayerCount: 2
Fore
SplineSet
219 333 m 256,0,1
 266 333 266 333 302 348.5 c 128,-1,2
 338 364 338 364 362 390.5 c 128,-1,3
 386 417 386 417 398 451.5 c 128,-1,4
 410 486 410 486 410 524 c 256,5,6
 410 562 410 562 398 597 c 128,-1,7
 386 632 386 632 362 658 c 128,-1,8
 338 684 338 684 302 699.5 c 128,-1,9
 266 715 266 715 219 715 c 256,10,11
 172 715 172 715 136.5 699.5 c 128,-1,12
 101 684 101 684 77 658 c 128,-1,13
 53 632 53 632 40.5 597 c 128,-1,14
 28 562 28 562 28 524 c 256,15,16
 28 486 28 486 40.5 451.5 c 128,-1,17
 53 417 53 417 77 390.5 c 128,-1,18
 101 364 101 364 136.5 348.5 c 128,-1,19
 172 333 172 333 219 333 c 256,0,1
161 524 m 256,20,21
 161 542 161 542 165.5 557 c 128,-1,22
 170 572 170 572 177.5 582 c 128,-1,23
 185 592 185 592 195.5 597.5 c 128,-1,24
 206 603 206 603 219 603 c 256,25,26
 232 603 232 603 242.5 597.5 c 128,-1,27
 253 592 253 592 260.5 582 c 128,-1,28
 268 572 268 572 272.5 557 c 128,-1,29
 277 542 277 542 277 524 c 256,30,31
 277 506 277 506 272.5 491 c 128,-1,32
 268 476 268 476 260.5 466 c 128,-1,33
 253 456 253 456 242.5 450.5 c 128,-1,34
 232 445 232 445 219 445 c 256,35,36
 206 445 206 445 195.5 450.5 c 128,-1,37
 185 456 185 456 177.5 466 c 128,-1,38
 170 476 170 476 165.5 491 c 128,-1,39
 161 506 161 506 161 524 c 256,20,21
EndSplineSet
EndChar

StartChar: guillemotright
Encoding: 187 187 125
Width: 713
GlyphClass: 1
Flags: W
LayerCount: 2
Fore
SplineSet
683 298 m 1,0,-1
 406 496 l 1,1,-1
 406 344 l 1,2,-1
 534 259 l 1,3,-1
 406 182 l 1,4,-1
 406 30 l 1,5,-1
 683 210 l 1,6,-1
 683 298 l 1,0,-1
332 298 m 1,7,-1
 55 496 l 1,8,-1
 55 344 l 1,9,-1
 183 259 l 1,10,-1
 55 182 l 1,11,-1
 55 30 l 1,12,-1
 332 210 l 1,13,-1
 332 298 l 1,7,-1
EndSplineSet
EndChar

StartChar: onehalf
Encoding: 189 189 127
Width: 1009
GlyphClass: 1
Flags: W
LayerCount: 2
Fore
SplineSet
233 395 m 1,0,-1
 233 731 l 1,1,-1
 123 731 l 1,2,3
 123 730 123 730 114 721 c 128,-1,4
 105 712 105 712 91.5 701 c 128,-1,5
 78 690 78 690 61.5 681 c 128,-1,6
 45 672 45 672 30 672 c 1,7,-1
 30 563 l 1,8,9
 42 563 42 563 56 568.5 c 128,-1,10
 70 574 70 574 83 582.5 c 128,-1,11
 96 591 96 591 107 600 c 128,-1,12
 118 609 118 609 123 616 c 1,13,-1
 123 395 l 1,14,-1
 47 395 l 1,15,-1
 47 288 l 1,16,-1
 300 288 l 1,17,-1
 300 395 l 1,18,-1
 233 395 l 1,0,-1
215 -10 m 1,19,-1
 478 337 l 1,20,-1
 749 646 l 1,21,-1
 666 721 l 1,22,-1
 415 384 l 1,23,-1
 132 65 l 1,24,-1
 215 -10 l 1,19,-1
974 0 m 1,25,-1
 974 107 l 1,26,-1
 768 107 l 1,27,28
 768 118 768 118 774 125.5 c 128,-1,29
 780 133 780 133 791 139 c 128,-1,30
 802 145 802 145 816.5 149.5 c 128,-1,31
 831 154 831 154 848 159 c 0,32,33
 866 164 866 164 887.5 174.5 c 128,-1,34
 909 185 909 185 928 202.5 c 128,-1,35
 947 220 947 220 960 245.5 c 128,-1,36
 973 271 973 271 973 307 c 0,37,38
 973 340 973 340 961 365.5 c 128,-1,39
 949 391 949 391 926 408.5 c 128,-1,40
 903 426 903 426 868.5 435.5 c 128,-1,41
 834 445 834 445 790 445 c 0,42,43
 756 445 756 445 724.5 439.5 c 128,-1,44
 693 434 693 434 666.5 425 c 128,-1,45
 640 416 640 416 620 403 c 128,-1,46
 600 390 600 390 589 375 c 1,47,-1
 657 295 l 1,48,49
 667 305 667 305 679.5 314.5 c 128,-1,50
 692 324 692 324 707.5 331.5 c 128,-1,51
 723 339 723 339 740.5 343.5 c 128,-1,52
 758 348 758 348 778 348 c 0,53,54
 810 348 810 348 831.5 335 c 128,-1,55
 853 322 853 322 853 298 c 0,56,57
 853 280 853 280 840.5 266.5 c 128,-1,58
 828 253 828 253 808.5 242 c 128,-1,59
 789 231 789 231 765.5 221.5 c 128,-1,60
 742 212 742 212 720 202 c 0,61,62
 680 183 680 183 654 164 c 128,-1,63
 628 145 628 145 613 122 c 128,-1,64
 598 99 598 99 592.5 69.5 c 128,-1,65
 587 40 587 40 587 0 c 1,66,-1
 974 0 l 1,25,-1
EndSplineSet
EndChar

StartChar: questiondown
Encoding: 191 191 129
Width: 487
GlyphClass: 1
Flags: W
LayerCount: 2
Fore
SplineSet
240 247 m 1,0,1
 240 231 240 231 227.5 219 c 128,-1,2
 215 207 215 207 195.5 196 c 128,-1,3
 176 185 176 185 153 174 c 128,-1,4
 130 163 130 163 108 148 c 256,5,6
 86 133 86 133 70.5 115.5 c 128,-1,7
 55 98 55 98 45.5 78.5 c 128,-1,8
 36 59 36 59 32 37 c 128,-1,9
 28 15 28 15 28 -9 c 0,10,11
 28 -65 28 -65 47.5 -104 c 128,-1,12
 67 -143 67 -143 98.5 -167 c 128,-1,13
 130 -191 130 -191 169 -202 c 128,-1,14
 208 -213 208 -213 246 -213 c 0,15,16
 282 -213 282 -213 314.5 -204 c 128,-1,17
 347 -195 347 -195 374 -178.5 c 128,-1,18
 401 -162 401 -162 422 -138 c 128,-1,19
 443 -114 443 -114 456 -84 c 1,20,-1
 335 2 l 1,21,22
 329 -5 329 -5 322.5 -15.5 c 128,-1,23
 316 -26 316 -26 306.5 -36 c 128,-1,24
 297 -46 297 -46 284 -53 c 128,-1,25
 271 -60 271 -60 253 -60 c 0,26,27
 241 -60 241 -60 230 -56.5 c 128,-1,28
 219 -53 219 -53 211 -46.5 c 128,-1,29
 203 -40 203 -40 198 -30.5 c 128,-1,30
 193 -21 193 -21 193 -10 c 0,31,32
 193 11 193 11 208 28.5 c 128,-1,33
 223 46 223 46 243.5 60 c 128,-1,34
 264 74 264 74 284.5 84 c 128,-1,35
 305 94 305 94 316 100 c 0,36,37
 343 114 343 114 359 131 c 128,-1,38
 375 148 375 148 383 166.5 c 128,-1,39
 391 185 391 185 393 205.5 c 128,-1,40
 395 226 395 226 395 247 c 1,41,-1
 240 247 l 1,0,1
407 422 m 256,42,43
 407 461 407 461 379.5 488.5 c 128,-1,44
 352 516 352 516 313 516 c 256,45,46
 274 516 274 516 246.5 488.5 c 128,-1,47
 219 461 219 461 219 422 c 256,48,49
 219 383 219 383 246.5 355.5 c 128,-1,50
 274 328 274 328 313 328 c 256,51,52
 352 328 352 328 379.5 355.5 c 128,-1,53
 407 383 407 383 407 422 c 256,42,43
EndSplineSet
EndChar

StartChar: AE
Encoding: 198 198 136
Width: 971
GlyphClass: 1
Flags: W
LayerCount: 2
Fore
SplineSet
-26 0 m 1,0,-1
 180 0 l 1,1,-1
 255 139 l 1,2,-1
 456 139 l 1,3,-1
 456 0 l 1,4,-1
 941 0 l 1,5,-1
 941 170 l 1,6,-1
 650 170 l 1,7,-1
 650 276 l 1,8,-1
 878 276 l 1,9,-1
 878 446 l 1,10,-1
 650 446 l 1,11,-1
 650 540 l 1,12,-1
 932 540 l 1,13,-1
 932 710 l 1,14,-1
 405 710 l 1,15,-1
 -26 0 l 1,0,-1
337 309 m 1,16,-1
 441 495 l 1,17,-1
 441 309 l 1,18,-1
 337 309 l 1,16,-1
EndSplineSet
EndChar

StartChar: Idieresis
Encoding: 207 207 145
Width: 317
GlyphClass: 1
Flags: W
LayerCount: 2
Fore
SplineSet
256 0 m 1,0,-1
 256 710 l 1,1,-1
 61 710 l 1,2,-1
 61 0 l 1,3,-1
 256 0 l 1,0,-1
12 835 m 256,4,5
 12 796 12 796 31 768.5 c 128,-1,6
 50 741 50 741 78 741 c 0,7,8
 105 741 105 741 124 768.5 c 128,-1,9
 143 796 143 796 143 835 c 256,10,11
 143 874 143 874 124 901.5 c 128,-1,12
 105 929 105 929 78 929 c 256,13,14
 51 929 51 929 31.5 901.5 c 128,-1,15
 12 874 12 874 12 835 c 256,4,5
174 835 m 256,16,17
 174 796 174 796 193 768.5 c 128,-1,18
 212 741 212 741 239 741 c 0,19,20
 267 741 267 741 286 768.5 c 128,-1,21
 305 796 305 796 305 835 c 256,22,23
 305 874 305 874 286 901.5 c 128,-1,24
 267 929 267 929 239 929 c 0,25,26
 212 929 212 929 193 901.5 c 128,-1,27
 174 874 174 874 174 835 c 256,16,17
EndSplineSet
EndChar

StartChar: Eth
Encoding: 208 208 146
Width: 720
GlyphClass: 1
Flags: W
LayerCount: 2
Fore
SplineSet
374 287 m 1,0,-1
 374 427 l 1,1,-1
 28 427 l 1,2,-1
 28 287 l 1,3,-1
 374 287 l 1,0,-1
338 0 m 2,4,5
 419 0 419 0 485 25.5 c 128,-1,6
 551 51 551 51 598 97.5 c 128,-1,7
 645 144 645 144 670.5 209.5 c 128,-1,8
 696 275 696 275 696 356 c 0,9,10
 696 430 696 430 673.5 494.5 c 128,-1,11
 651 559 651 559 606 607 c 128,-1,12
 561 655 561 655 494 682.5 c 128,-1,13
 427 710 427 710 338 710 c 2,14,-1
 65 710 l 1,15,-1
 65 0 l 1,16,-1
 338 0 l 2,4,5
498 356 m 0,17,18
 498 316 498 316 487.5 282 c 128,-1,19
 477 248 477 248 456.5 223 c 128,-1,20
 436 198 436 198 406 184 c 128,-1,21
 376 170 376 170 338 170 c 2,22,-1
 260 170 l 1,23,-1
 260 540 l 1,24,-1
 338 540 l 2,25,26
 376 540 376 540 405.5 526.5 c 128,-1,27
 435 513 435 513 455.5 489 c 128,-1,28
 476 465 476 465 487 431 c 128,-1,29
 498 397 498 397 498 356 c 0,17,18
EndSplineSet
EndChar

StartChar: multiply
Encoding: 215 215 153
Width: 492
GlyphClass: 1
Flags: W
LayerCount: 2
Fore
SplineSet
363 278 m 1,0,-1
 443 358 l 1,1,-1
 326 476 l 1,2,-1
 246 396 l 1,3,-1
 166 476 l 1,4,-1
 47 358 l 1,5,-1
 127 277 l 1,6,-1
 41 191 l 1,7,-1
 158 73 l 1,8,-1
 245 160 l 1,9,-1
 332 73 l 1,10,-1
 451 191 l 1,11,-1
 363 278 l 1,0,-1
EndSplineSet
EndChar

StartChar: Thorn
Encoding: 222 222 160
Width: 605
GlyphClass: 1
Flags: W
LayerCount: 2
Fore
SplineSet
352 592 m 2,0,-1
 256 592 l 1,1,-1
 256 710 l 1,2,-1
 61 710 l 1,3,-1
 61 0 l 1,4,-1
 256 0 l 1,5,-1
 256 101 l 1,6,-1
 357 101 l 2,7,8
 410 101 410 101 453 121.5 c 128,-1,9
 496 142 496 142 526.5 176.5 c 128,-1,10
 557 211 557 211 574 255 c 128,-1,11
 591 299 591 299 591 347 c 0,12,13
 591 392 591 392 573 436 c 128,-1,14
 555 480 555 480 523.5 514.5 c 128,-1,15
 492 549 492 549 448 570.5 c 128,-1,16
 404 592 404 592 352 592 c 2,0,-1
347 271 m 2,17,-1
 256 271 l 1,18,-1
 256 422 l 1,19,-1
 342 422 l 2,20,21
 351 422 351 422 361 417 c 128,-1,22
 371 412 371 412 378.5 402.5 c 128,-1,23
 386 393 386 393 391 379 c 128,-1,24
 396 365 396 365 396 347 c 256,25,26
 396 329 396 329 392 315 c 128,-1,27
 388 301 388 301 381 291.5 c 128,-1,28
 374 282 374 282 365 276.5 c 128,-1,29
 356 271 356 271 347 271 c 2,17,-1
EndSplineSet
EndChar

StartChar: germandbls
Encoding: 223 223 161
Width: 563
GlyphClass: 1
Flags: W
LayerCount: 2
Fore
SplineSet
254 -6 m 1,0,1
 305 -6 305 -6 356.5 4 c 128,-1,2
 408 14 408 14 449.5 38.5 c 128,-1,3
 491 63 491 63 517.5 105.5 c 128,-1,4
 544 148 544 148 544 213 c 0,5,6
 544 285 544 285 511 333 c 128,-1,7
 478 381 478 381 421 403 c 1,8,9
 435 410 435 410 448 424 c 128,-1,10
 461 438 461 438 470.5 456.5 c 128,-1,11
 480 475 480 475 486 498 c 128,-1,12
 492 521 492 521 492 546 c 0,13,14
 492 586 492 586 476.5 617.5 c 128,-1,15
 461 649 461 649 434 670.5 c 128,-1,16
 407 692 407 692 369.5 703 c 128,-1,17
 332 714 332 714 288 714 c 0,18,19
 237 714 237 714 193.5 700 c 128,-1,20
 150 686 150 686 117.5 661.5 c 128,-1,21
 85 637 85 637 66.5 603 c 128,-1,22
 48 569 48 569 48 529 c 2,23,-1
 48 0 l 1,24,-1
 228 0 l 1,25,-1
 228 494 l 2,26,27
 228 499 228 499 228.5 509 c 128,-1,28
 229 519 229 519 233 529 c 128,-1,29
 237 539 237 539 245.5 546.5 c 128,-1,30
 254 554 254 554 269 554 c 0,31,32
 270 554 270 554 276.5 553.5 c 128,-1,33
 283 553 283 553 291 549 c 128,-1,34
 299 545 299 545 305.5 536.5 c 128,-1,35
 312 528 312 528 312 512 c 0,36,37
 312 504 312 504 310 497 c 128,-1,38
 308 490 308 490 303 484.5 c 128,-1,39
 298 479 298 479 291 476 c 128,-1,40
 284 473 284 473 273 473 c 2,41,-1
 252 473 l 1,42,-1
 252 303 l 1,43,-1
 275 303 l 2,44,45
 284 303 284 303 295.5 299.5 c 128,-1,46
 307 296 307 296 318 288 c 128,-1,47
 329 280 329 280 336.5 267.5 c 128,-1,48
 344 255 344 255 344 237 c 0,49,50
 344 220 344 220 337 207 c 128,-1,51
 330 194 330 194 317.5 185.5 c 128,-1,52
 305 177 305 177 288.5 172.5 c 128,-1,53
 272 168 272 168 254 168 c 1,54,-1
 254 -6 l 1,0,1
EndSplineSet
EndChar

StartChar: ae
Encoding: 230 230 168
Width: 942
GlyphClass: 1
Flags: W
LayerCount: 2
Fore
SplineSet
203 -10 m 0,0,1
 228 -10 228 -10 256 -4 c 128,-1,2
 284 2 284 2 311 14 c 128,-1,3
 338 26 338 26 363 45.5 c 128,-1,4
 388 65 388 65 407 92 c 1,5,6
 443 46 443 46 501.5 18 c 128,-1,7
 560 -10 560 -10 640 -10 c 0,8,9
 688 -10 688 -10 729 0.5 c 128,-1,10
 770 11 770 11 803 30 c 128,-1,11
 836 49 836 49 861 75.5 c 128,-1,12
 886 102 886 102 902 133 c 1,13,-1
 741 179 l 1,14,15
 737 167 737 167 727 157 c 128,-1,16
 717 147 717 147 704.5 140 c 128,-1,17
 692 133 692 133 676.5 129.5 c 128,-1,18
 661 126 661 126 646 126 c 0,19,20
 630 126 630 126 614 130.5 c 128,-1,21
 598 135 598 135 585 144.5 c 128,-1,22
 572 154 572 154 564 169 c 128,-1,23
 556 184 556 184 554 205 c 1,24,-1
 923 205 l 1,25,26
 925 217 925 217 926.5 232.5 c 128,-1,27
 928 248 928 248 928 263 c 0,28,29
 928 317 928 317 909.5 366.5 c 128,-1,30
 891 416 891 416 854.5 453.5 c 128,-1,31
 818 491 818 491 764.5 513.5 c 128,-1,32
 711 536 711 536 640 536 c 0,33,34
 586 536 586 536 542.5 522.5 c 128,-1,35
 499 509 499 509 465 486 c 1,36,37
 431 511 431 511 385 523.5 c 128,-1,38
 339 536 339 536 280 536 c 0,39,40
 212 536 212 536 154 519.5 c 128,-1,41
 96 503 96 503 43 469 c 1,42,-1
 98 351 l 1,43,44
 140 379 140 379 178 393.5 c 128,-1,45
 216 408 216 408 261 408 c 0,46,47
 309 408 309 408 330 390 c 128,-1,48
 351 372 351 372 352 335 c 0,49,50
 352 331 352 331 352 327 c 128,-1,51
 352 323 352 323 352 319 c 1,52,53
 332 329 332 329 304.5 334 c 128,-1,54
 277 339 277 339 246 339 c 0,55,56
 196 339 196 339 154.5 326 c 128,-1,57
 113 313 113 313 83 289 c 128,-1,58
 53 265 53 265 36 232 c 128,-1,59
 19 199 19 199 19 159 c 0,60,61
 19 123 19 123 33 92 c 128,-1,62
 47 61 47 61 71.5 38.5 c 128,-1,63
 96 16 96 16 130 3 c 128,-1,64
 164 -10 164 -10 203 -10 c 0,0,1
260 126 m 0,65,66
 247 126 247 126 235.5 129.5 c 128,-1,67
 224 133 224 133 215.5 140 c 128,-1,68
 207 147 207 147 202.5 156 c 128,-1,69
 198 165 198 165 198 176 c 0,70,71
 198 189 198 189 204 200 c 128,-1,72
 210 211 210 211 221 219 c 128,-1,73
 232 227 232 227 247 231.5 c 128,-1,74
 262 236 262 236 279 236 c 0,75,76
 295 236 295 236 315 232 c 128,-1,77
 335 228 335 228 352 222 c 1,78,79
 352 212 352 212 352 202.5 c 128,-1,80
 352 193 352 193 352 183 c 256,81,82
 352 173 352 173 345 163.5 c 128,-1,83
 338 154 338 154 327 146 c 0,84,85
 313 137 313 137 295 131.5 c 128,-1,86
 277 126 277 126 260 126 c 0,65,66
550 319 m 1,87,88
 552 338 552 338 559.5 353.5 c 128,-1,89
 567 369 567 369 578 379.5 c 128,-1,90
 589 390 589 390 604 395.5 c 128,-1,91
 619 401 619 401 637 401 c 256,92,93
 655 401 655 401 670 395.5 c 128,-1,94
 685 390 685 390 696.5 379.5 c 128,-1,95
 708 369 708 369 715 353.5 c 128,-1,96
 722 338 722 338 724 319 c 1,97,-1
 550 319 l 1,87,88
EndSplineSet
EndChar

StartChar: idieresis
Encoding: 239 239 177
Width: 286
GlyphClass: 1
Flags: W
LayerCount: 2
Fore
SplineSet
238 0 m 1,0,-1
 238 526 l 1,1,-1
 48 526 l 1,2,-1
 48 0 l 1,3,-1
 238 0 l 1,0,-1
2 651 m 256,4,5
 2 612 2 612 20.5 584.5 c 128,-1,6
 39 557 39 557 65 557 c 256,7,8
 91 557 91 557 109.5 584.5 c 128,-1,9
 128 612 128 612 128 651 c 256,10,11
 128 690 128 690 109.5 717.5 c 128,-1,12
 91 745 91 745 65 745 c 256,13,14
 39 745 39 745 20.5 717.5 c 128,-1,15
 2 690 2 690 2 651 c 256,4,5
157 651 m 256,16,17
 157 612 157 612 175.5 584.5 c 128,-1,18
 194 557 194 557 220 557 c 256,19,20
 246 557 246 557 264.5 584.5 c 128,-1,21
 283 612 283 612 283 651 c 256,22,23
 283 690 283 690 264.5 717.5 c 128,-1,24
 246 745 246 745 220 745 c 256,25,26
 194 745 194 745 175.5 717.5 c 128,-1,27
 157 690 157 690 157 651 c 256,16,17
EndSplineSet
EndChar

StartChar: eth
Encoding: 240 240 178
Width: 621
GlyphClass: 1
Flags: W
LayerCount: 2
Fore
SplineSet
598 291 m 0,0,1
 598 362 598 362 578.5 430.5 c 128,-1,2
 559 499 559 499 524 557.5 c 128,-1,3
 489 616 489 616 441.5 661 c 128,-1,4
 394 706 394 706 338 730 c 1,5,-1
 108 730 l 1,6,7
 171 699 171 699 220.5 665 c 128,-1,8
 270 631 270 631 306 593.5 c 128,-1,9
 342 556 342 556 366 514 c 128,-1,10
 390 472 390 472 403 425 c 1,11,12
 389 436 389 436 372 444.5 c 128,-1,13
 355 453 355 453 337 459 c 128,-1,14
 319 465 319 465 299.5 468 c 128,-1,15
 280 471 280 471 260 471 c 0,16,17
 210 471 210 471 166.5 452.5 c 128,-1,18
 123 434 123 434 91 402 c 128,-1,19
 59 370 59 370 40.5 327 c 128,-1,20
 22 284 22 284 22 234 c 0,21,22
 22 180 22 180 43 135.5 c 128,-1,23
 64 91 64 91 102.5 58.5 c 128,-1,24
 141 26 141 26 194 8 c 128,-1,25
 247 -10 247 -10 310 -10 c 0,26,27
 377 -10 377 -10 430.5 10.5 c 128,-1,28
 484 31 484 31 521 70 c 128,-1,29
 558 109 558 109 578 165 c 128,-1,30
 598 221 598 221 598 291 c 0,0,1
217 235 m 256,31,32
 217 254 217 254 223.5 269.5 c 128,-1,33
 230 285 230 285 242.5 296.5 c 128,-1,34
 255 308 255 308 272 314 c 128,-1,35
 289 320 289 320 310 320 c 256,36,37
 331 320 331 320 348 314 c 128,-1,38
 365 308 365 308 377.5 296.5 c 128,-1,39
 390 285 390 285 396.5 269.5 c 128,-1,40
 403 254 403 254 403 235 c 256,41,42
 403 216 403 216 396.5 200.5 c 128,-1,43
 390 185 390 185 377.5 173.5 c 128,-1,44
 365 162 365 162 348 156 c 128,-1,45
 331 150 331 150 310 150 c 256,46,47
 289 150 289 150 272 156 c 128,-1,48
 255 162 255 162 242.5 173.5 c 128,-1,49
 230 185 230 185 223.5 200.5 c 128,-1,50
 217 216 217 216 217 235 c 256,31,32
499 712 m 1,51,-1
 376 648 l 1,52,-1
 322 634 l 1,53,-1
 216 581 l 1,54,-1
 268 510 l 1,55,-1
 375 563 l 1,56,-1
 433 580 l 1,57,-1
 551 641 l 1,58,-1
 499 712 l 1,51,-1
EndSplineSet
EndChar

StartChar: divide
Encoding: 247 247 185
Width: 485
GlyphClass: 1
Flags: W
LayerCount: 2
Fore
SplineSet
445 235 m 1,0,-1
 445 385 l 1,1,-1
 41 385 l 1,2,-1
 41 235 l 1,3,-1
 445 235 l 1,0,-1
150 94 m 256,4,5
 150 55 150 55 177.5 27.5 c 128,-1,6
 205 0 205 0 244 0 c 256,7,8
 283 0 283 0 310.5 27.5 c 128,-1,9
 338 55 338 55 338 94 c 256,10,11
 338 133 338 133 310.5 160.5 c 128,-1,12
 283 188 283 188 244 188 c 256,13,14
 205 188 205 188 177.5 160.5 c 128,-1,15
 150 133 150 133 150 94 c 256,4,5
150 526 m 256,16,17
 150 487 150 487 177.5 459.5 c 128,-1,18
 205 432 205 432 244 432 c 256,19,20
 283 432 283 432 310.5 459.5 c 128,-1,21
 338 487 338 487 338 526 c 256,22,23
 338 565 338 565 310.5 592.5 c 128,-1,24
 283 620 283 620 244 620 c 256,25,26
 205 620 205 620 177.5 592.5 c 128,-1,27
 150 565 150 565 150 526 c 256,16,17
EndSplineSet
EndChar

StartChar: oslash
Encoding: 248 248 186
Width: 614
GlyphClass: 1
Flags: W
LayerCount: 2
Fore
SplineSet
307 -10 m 0,0,1
 378 -10 378 -10 431.5 12.5 c 128,-1,2
 485 35 485 35 521.5 72.5 c 128,-1,3
 558 110 558 110 576.5 159.5 c 128,-1,4
 595 209 595 209 595 263 c 256,5,6
 595 317 595 317 576.5 366.5 c 128,-1,7
 558 416 558 416 521.5 453.5 c 128,-1,8
 485 491 485 491 431.5 513.5 c 128,-1,9
 378 536 378 536 307 536 c 0,10,11
 237 536 237 536 183 513.5 c 128,-1,12
 129 491 129 491 92.5 453.5 c 128,-1,13
 56 416 56 416 37.5 366.5 c 128,-1,14
 19 317 19 317 19 263 c 256,15,16
 19 209 19 209 37.5 159.5 c 128,-1,17
 56 110 56 110 92.5 72.5 c 128,-1,18
 129 35 129 35 183 12.5 c 128,-1,19
 237 -10 237 -10 307 -10 c 0,0,1
307 150 m 256,20,21
 287 150 287 150 270 158 c 128,-1,22
 253 166 253 166 240.5 180.5 c 128,-1,23
 228 195 228 195 221 216 c 128,-1,24
 214 237 214 237 214 263 c 256,25,26
 214 289 214 289 221 310 c 128,-1,27
 228 331 228 331 240.5 345.5 c 128,-1,28
 253 360 253 360 270 368 c 128,-1,29
 287 376 287 376 307 376 c 256,30,31
 327 376 327 376 344 368 c 128,-1,32
 361 360 361 360 373.5 345.5 c 128,-1,33
 386 331 386 331 393 310 c 128,-1,34
 400 289 400 289 400 263 c 256,35,36
 400 237 400 237 393 216 c 128,-1,37
 386 195 386 195 373.5 180.5 c 128,-1,38
 361 166 361 166 344 158 c 128,-1,39
 327 150 327 150 307 150 c 256,20,21
114 -6 m 1,40,-1
 211 104 l 1,41,-1
 149 158 l 1,42,-1
 14 -6 l 1,43,-1
 114 -6 l 1,40,-1
452 381 m 1,44,-1
 395 418 l 1,45,-1
 174 169 l 1,46,-1
 221 121 l 1,47,-1
 452 381 l 1,44,-1
591 532 m 1,48,-1
 490 532 l 1,49,-1
 404 435 l 1,50,-1
 477 393 l 1,51,-1
 591 532 l 1,48,-1
EndSplineSet
EndChar

StartChar: thorn
Encoding: 254 254 192
Width: 599
GlyphClass: 1
Flags: W
LayerCount: 2
Fore
SplineSet
581 255 m 0,0,1
 581 307 581 307 562.5 358.5 c 128,-1,2
 544 410 544 410 509.5 451.5 c 128,-1,3
 475 493 475 493 427 518.5 c 128,-1,4
 379 544 379 544 319 544 c 0,5,6
 276 544 276 544 259.5 534.5 c 128,-1,7
 243 525 243 525 243 525 c 1,8,-1
 243 710 l 1,9,-1
 48 710 l 1,10,-1
 48 -213 l 1,11,-1
 243 -213 l 1,12,-1
 243 -13 l 1,13,14
 243 -14 243 -14 247 -17 c 128,-1,15
 251 -20 251 -20 259 -23 c 128,-1,16
 267 -26 267 -26 280 -28.5 c 128,-1,17
 293 -31 293 -31 312 -31 c 0,18,19
 366 -31 366 -31 415 -7.5 c 128,-1,20
 464 16 464 16 501 55.5 c 128,-1,21
 538 95 538 95 559.5 146.5 c 128,-1,22
 581 198 581 198 581 255 c 0,0,1
386 259 m 0,23,24
 386 232 386 232 380 210 c 128,-1,25
 374 188 374 188 363 172 c 128,-1,26
 352 156 352 156 337.5 147.5 c 128,-1,27
 323 139 323 139 305 139 c 0,28,29
 292 139 292 139 280.5 143.5 c 128,-1,30
 269 148 269 148 261 154 c 128,-1,31
 253 160 253 160 248 167 c 128,-1,32
 243 174 243 174 243 179 c 2,33,-1
 243 327 l 1,34,35
 249 338 249 338 255.5 346.5 c 128,-1,36
 262 355 262 355 269.5 361 c 128,-1,37
 277 367 277 367 286 370.5 c 128,-1,38
 295 374 295 374 307 374 c 0,39,40
 327 374 327 374 341.5 365 c 128,-1,41
 356 356 356 356 366 340.5 c 128,-1,42
 376 325 376 325 381 304 c 128,-1,43
 386 283 386 283 386 259 c 0,23,24
EndSplineSet
EndChar

StartChar: Dcroat
Encoding: 272 272 210
Width: 720
GlyphClass: 1
Flags: W
LayerCount: 2
Fore
SplineSet
374 287 m 1,0,-1
 374 427 l 1,1,-1
 28 427 l 1,2,-1
 28 287 l 1,3,-1
 374 287 l 1,0,-1
338 0 m 2,4,5
 419 0 419 0 485 25.5 c 128,-1,6
 551 51 551 51 598 97.5 c 128,-1,7
 645 144 645 144 670.5 209.5 c 128,-1,8
 696 275 696 275 696 356 c 0,9,10
 696 430 696 430 673.5 494.5 c 128,-1,11
 651 559 651 559 606 607 c 128,-1,12
 561 655 561 655 494 682.5 c 128,-1,13
 427 710 427 710 338 710 c 2,14,-1
 65 710 l 1,15,-1
 65 0 l 1,16,-1
 338 0 l 2,4,5
498 356 m 0,17,18
 498 316 498 316 487.5 282 c 128,-1,19
 477 248 477 248 456.5 223 c 128,-1,20
 436 198 436 198 406 184 c 128,-1,21
 376 170 376 170 338 170 c 2,22,-1
 260 170 l 1,23,-1
 260 540 l 1,24,-1
 338 540 l 2,25,26
 376 540 376 540 405.5 526.5 c 128,-1,27
 435 513 435 513 455.5 489 c 128,-1,28
 476 465 476 465 487 431 c 128,-1,29
 498 397 498 397 498 356 c 0,17,18
EndSplineSet
EndChar

StartChar: dcroat
Encoding: 273 273 211
Width: 665
GlyphClass: 1
Flags: W
LayerCount: 2
Fore
SplineSet
657 579 m 1,0,-1
 657 688 l 1,1,-1
 322 688 l 1,2,-1
 322 579 l 1,3,-1
 657 579 l 1,0,-1
599 0 m 1,4,-1
 599 730 l 1,5,-1
 409 730 l 1,6,-1
 409 448 l 1,7,8
 398 469 398 469 381.5 485 c 128,-1,9
 365 501 365 501 344 512.5 c 128,-1,10
 323 524 323 524 299 530 c 128,-1,11
 275 536 275 536 249 536 c 0,12,13
 199 536 199 536 157 515.5 c 128,-1,14
 115 495 115 495 84.5 458.5 c 128,-1,15
 54 422 54 422 37 372 c 128,-1,16
 20 322 20 322 20 264 c 0,17,18
 20 204 20 204 38.5 153.5 c 128,-1,19
 57 103 57 103 90 66.5 c 128,-1,20
 123 30 123 30 168.5 10 c 128,-1,21
 214 -10 214 -10 268 -10 c 0,22,23
 320 -10 320 -10 353.5 9.5 c 128,-1,24
 387 29 387 29 410 69 c 1,25,-1
 410 0 l 1,26,-1
 599 0 l 1,4,-1
410 204 m 1,27,28
 401 191 401 191 391 180.5 c 128,-1,29
 381 170 381 170 369.5 163.5 c 128,-1,30
 358 157 358 157 345.5 153.5 c 128,-1,31
 333 150 333 150 319 150 c 0,32,33
 297 150 297 150 278 158 c 128,-1,34
 259 166 259 166 245 180.5 c 128,-1,35
 231 195 231 195 223.5 215 c 128,-1,36
 216 235 216 235 216 260 c 0,37,38
 216 284 216 284 223.5 305 c 128,-1,39
 231 326 231 326 243.5 341.5 c 128,-1,40
 256 357 256 357 273.5 366.5 c 128,-1,41
 291 376 291 376 311 376 c 0,42,43
 326 376 326 376 340.5 370.5 c 128,-1,44
 355 365 355 365 368 355 c 128,-1,45
 381 345 381 345 392 330.5 c 128,-1,46
 403 316 403 316 410 298 c 1,47,-1
 410 204 l 1,27,28
EndSplineSet
EndChar

StartChar: Hbar
Encoding: 294 294 232
Width: 756
GlyphClass: 1
Flags: W
LayerCount: 2
Fore
SplineSet
742 538 m 1,0,-1
 742 626 l 1,1,-1
 14 626 l 1,2,-1
 14 538 l 1,3,-1
 742 538 l 1,0,-1
497 710 m 1,4,-1
 497 448 l 1,5,-1
 259 448 l 1,6,-1
 259 710 l 1,7,-1
 64 710 l 1,8,-1
 64 0 l 1,9,-1
 259 0 l 1,10,-1
 259 278 l 1,11,-1
 497 278 l 1,12,-1
 497 0 l 1,13,-1
 692 0 l 1,14,-1
 692 710 l 1,15,-1
 497 710 l 1,4,-1
EndSplineSet
EndChar

StartChar: hbar
Encoding: 295 295 233
Width: 621
GlyphClass: 1
Flags: W
LayerCount: 2
Fore
SplineSet
353 579 m 1,0,-1
 353 688 l 1,1,-1
 18 688 l 1,2,-1
 18 579 l 1,3,-1
 353 579 l 1,0,-1
577 346 m 2,4,5
 577 375 577 375 572 408 c 128,-1,6
 567 441 567 441 550 469.5 c 128,-1,7
 533 498 533 498 500.5 517 c 128,-1,8
 468 536 468 536 412 536 c 256,9,10
 356 536 356 536 311 513.5 c 128,-1,11
 266 491 266 491 238 448 c 1,12,-1
 238 730 l 1,13,-1
 48 730 l 1,14,-1
 48 0 l 1,15,-1
 238 0 l 1,16,-1
 238 295 l 1,17,18
 245 312 245 312 256 326 c 128,-1,19
 267 340 267 340 279.5 350 c 128,-1,20
 292 360 292 360 304.5 365 c 128,-1,21
 317 370 317 370 326 370 c 0,22,23
 352 370 352 370 369.5 352.5 c 128,-1,24
 387 335 387 335 387 296 c 2,25,-1
 387 0 l 1,26,-1
 577 0 l 1,27,-1
 577 346 l 2,4,5
EndSplineSet
EndChar

StartChar: dotlessi
Encoding: 305 305 243
Width: 286
GlyphClass: 1
Flags: W
LayerCount: 2
Fore
SplineSet
238 0 m 1,0,-1
 238 526 l 1,1,-1
 48 526 l 1,2,-1
 48 0 l 1,3,-1
 238 0 l 1,0,-1
EndSplineSet
EndChar

StartChar: kgreenlandic
Encoding: 312 312 248
Width: 582
GlyphClass: 1
Flags: W
LayerCount: 2
Fore
SplineSet
596 0 m 1,0,-1
 397 296 l 1,1,-1
 578 526 l 1,2,-1
 378 526 l 1,3,-1
 238 331 l 1,4,-1
 238 526 l 1,5,-1
 48 526 l 1,6,-1
 48 0 l 1,7,-1
 238 0 l 1,8,-1
 238 150 l 1,9,-1
 276 192 l 1,10,-1
 395 0 l 1,11,-1
 596 0 l 1,0,-1
EndSplineSet
EndChar

StartChar: Lslash
Encoding: 321 321 257
Width: 597
GlyphClass: 1
Flags: W
LayerCount: 2
Fore
SplineSet
382 426 m 1,0,-1
 339 527 l 1,1,-1
 -17 353 l 1,2,-1
 26 252 l 1,3,-1
 382 426 l 1,0,-1
590 0 m 1,4,-1
 590 170 l 1,5,-1
 268 170 l 1,6,-1
 268 710 l 1,7,-1
 73 710 l 1,8,-1
 73 0 l 1,9,-1
 590 0 l 1,4,-1
EndSplineSet
EndChar

StartChar: lslash
Encoding: 322 322 258
Width: 387
GlyphClass: 1
Flags: W
LayerCount: 2
Fore
SplineSet
388 426 m 1,0,-1
 345 527 l 1,1,-1
 -11 353 l 1,2,-1
 32 252 l 1,3,-1
 388 426 l 1,0,-1
72 142 m 2,4,5
 72 68 72 68 113 29 c 128,-1,6
 154 -10 154 -10 230 -10 c 0,7,8
 268 -10 268 -10 310.5 -1 c 128,-1,9
 353 8 353 8 387 24 c 1,10,-1
 363 164 l 1,11,12
 351 157 351 157 337 153 c 128,-1,13
 323 149 323 149 311 149 c 256,14,15
 299 149 299 149 290 153 c 128,-1,16
 281 157 281 157 274.5 164.5 c 128,-1,17
 268 172 268 172 265 183 c 128,-1,18
 262 194 262 194 262 209 c 2,19,-1
 262 730 l 1,20,-1
 72 730 l 1,21,-1
 72 142 l 2,4,5
EndSplineSet
EndChar

StartChar: Eng
Encoding: 330 330 265
Width: 735
GlyphClass: 1
Flags: W
LayerCount: 2
Fore
SplineSet
483 44 m 1,0,-1
 483 -3 l 2,1,2
 483 -13 483 -13 480.5 -21 c 128,-1,3
 478 -29 478 -29 472.5 -34.5 c 128,-1,4
 467 -40 467 -40 459.5 -43 c 128,-1,5
 452 -46 452 -46 443 -46 c 0,6,7
 429 -46 429 -46 416.5 -40.5 c 128,-1,8
 404 -35 404 -35 396 -26 c 1,9,-1
 318 -155 l 1,10,11
 349 -181 349 -181 387 -195 c 128,-1,12
 425 -209 425 -209 467 -209 c 0,13,14
 511 -209 511 -209 548.5 -194 c 128,-1,15
 586 -179 586 -179 614 -151 c 128,-1,16
 642 -123 642 -123 657.5 -83.5 c 128,-1,17
 673 -44 673 -44 673 5 c 2,18,-1
 673 709 l 1,19,-1
 478 709 l 1,20,-1
 478 359 l 1,21,-1
 211 710 l 1,22,-1
 61 710 l 1,23,-1
 61 0 l 1,24,-1
 256 0 l 1,25,-1
 256 343 l 1,26,-1
 483 44 l 1,0,-1
EndSplineSet
EndChar

StartChar: eng
Encoding: 331 331 266
Width: 620
GlyphClass: 1
Flags: W
LayerCount: 2
Fore
SplineSet
370 -209 m 0,0,1
 415 -209 415 -209 452.5 -193 c 128,-1,2
 490 -177 490 -177 517.5 -147.5 c 128,-1,3
 545 -118 545 -118 560.5 -77.5 c 128,-1,4
 576 -37 576 -37 576 12 c 2,5,-1
 576 346 l 2,6,7
 576 373 576 373 571.5 406 c 128,-1,8
 567 439 567 439 550.5 468 c 128,-1,9
 534 497 534 497 502.5 516.5 c 128,-1,10
 471 536 471 536 417 536 c 0,11,12
 383 536 383 536 353 530.5 c 128,-1,13
 323 525 323 525 298 513.5 c 128,-1,14
 273 502 273 502 253 485.5 c 128,-1,15
 233 469 233 469 219 448 c 1,16,-1
 219 526 l 1,17,-1
 48 526 l 1,18,-1
 48 0 l 1,19,-1
 238 0 l 1,20,-1
 238 295 l 1,21,22
 244 312 244 312 254.5 325.5 c 128,-1,23
 265 339 265 339 277.5 349 c 128,-1,24
 290 359 290 359 303.5 364.5 c 128,-1,25
 317 370 317 370 329 370 c 0,26,27
 352 370 352 370 369.5 352.5 c 128,-1,28
 387 335 387 335 387 296 c 2,29,-1
 387 -3 l 2,30,31
 387 -13 387 -13 384 -21 c 128,-1,32
 381 -29 381 -29 376 -34.5 c 128,-1,33
 371 -40 371 -40 363 -43 c 128,-1,34
 355 -46 355 -46 346 -46 c 0,35,36
 332 -46 332 -46 319.5 -40.5 c 128,-1,37
 307 -35 307 -35 299 -26 c 1,38,-1
 221 -155 l 1,39,40
 252 -181 252 -181 290 -195 c 128,-1,41
 328 -209 328 -209 370 -209 c 0,0,1
EndSplineSet
EndChar

StartChar: OE
Encoding: 338 338 273
Width: 1030
GlyphClass: 1
Flags: W
LayerCount: 2
Fore
SplineSet
709 170 m 1,0,-1
 709 276 l 1,1,-1
 937 276 l 1,2,-1
 937 446 l 1,3,-1
 709 446 l 1,4,-1
 709 540 l 1,5,-1
 991 540 l 1,6,-1
 991 710 l 1,7,-1
 514 710 l 1,8,-1
 514 670 l 1,9,10
 498 681 498 681 480 689 c 128,-1,11
 462 697 462 697 443.5 703 c 128,-1,12
 425 709 425 709 405.5 712 c 128,-1,13
 386 715 386 715 365 715 c 0,14,15
 290 715 290 715 227.5 685.5 c 128,-1,16
 165 656 165 656 119 606 c 128,-1,17
 73 556 73 556 47.5 491.5 c 128,-1,18
 22 427 22 427 22 356 c 0,19,20
 22 287 22 287 46.5 222 c 128,-1,21
 71 157 71 157 115.5 106.5 c 128,-1,22
 160 56 160 56 222.5 25.5 c 128,-1,23
 285 -5 285 -5 361 -5 c 0,24,25
 382 -5 382 -5 402 -1.5 c 128,-1,26
 422 2 422 2 441.5 8 c 128,-1,27
 461 14 461 14 479 22.5 c 128,-1,28
 497 31 497 31 514 41 c 1,29,-1
 514 0 l 1,30,-1
 1000 0 l 1,31,-1
 1000 170 l 1,32,-1
 709 170 l 1,0,-1
363 168 m 0,33,34
 327 168 327 168 300 183.5 c 128,-1,35
 273 199 273 199 255 225 c 128,-1,36
 237 251 237 251 228.5 284.5 c 128,-1,37
 220 318 220 318 220 354 c 0,38,39
 220 389 220 389 228.5 422.5 c 128,-1,40
 237 456 237 456 254.5 482.5 c 128,-1,41
 272 509 272 509 298.5 525.5 c 128,-1,42
 325 542 325 542 362 542 c 0,43,44
 398 542 398 542 425 526.5 c 128,-1,45
 452 511 452 511 469.5 485 c 128,-1,46
 487 459 487 459 496 425.5 c 128,-1,47
 505 392 505 392 505 356 c 0,48,49
 505 321 505 321 496.5 287.5 c 128,-1,50
 488 254 488 254 471 227.5 c 128,-1,51
 454 201 454 201 427 184.5 c 128,-1,52
 400 168 400 168 363 168 c 0,33,34
EndSplineSet
EndChar

StartChar: oe
Encoding: 339 339 274
Width: 991
GlyphClass: 1
Flags: W
LayerCount: 2
Fore
SplineSet
305 -10 m 0,0,1
 331 -10 331 -10 354 -6 c 128,-1,2
 377 -2 377 -2 399.5 7.5 c 128,-1,3
 422 17 422 17 445.5 32.5 c 128,-1,4
 469 48 469 48 497 70 c 1,5,6
 525 48 525 48 549 32.5 c 128,-1,7
 573 17 573 17 596 7.5 c 128,-1,8
 619 -2 619 -2 642 -6 c 128,-1,9
 665 -10 665 -10 692 -10 c 0,10,11
 735 -10 735 -10 774.5 0 c 128,-1,12
 814 10 814 10 847.5 28.5 c 128,-1,13
 881 47 881 47 907.5 73.5 c 128,-1,14
 934 100 934 100 951 133 c 1,15,-1
 795 179 l 1,16,17
 790 167 790 167 780.5 156.5 c 128,-1,18
 771 146 771 146 758 138.5 c 128,-1,19
 745 131 745 131 729.5 126.5 c 128,-1,20
 714 122 714 122 698 122 c 0,21,22
 679 122 679 122 662 128 c 128,-1,23
 645 134 645 134 632 145.5 c 128,-1,24
 619 157 619 157 611.5 172 c 128,-1,25
 604 187 604 187 603 205 c 1,26,-1
 972 205 l 1,27,28
 974 217 974 217 975.5 232.5 c 128,-1,29
 977 248 977 248 977 263 c 0,30,31
 977 323 977 323 956 373 c 128,-1,32
 935 423 935 423 897.5 459 c 128,-1,33
 860 495 860 495 807.5 515.5 c 128,-1,34
 755 536 755 536 693 536 c 0,35,36
 635 536 635 536 589.5 516 c 128,-1,37
 544 496 544 496 497 450 c 1,38,39
 477 472 477 472 455.5 488.5 c 128,-1,40
 434 505 434 505 410 515.5 c 128,-1,41
 386 526 386 526 359.5 531 c 128,-1,42
 333 536 333 536 303 536 c 0,43,44
 241 536 241 536 188.5 516 c 128,-1,45
 136 496 136 496 98.5 459.5 c 128,-1,46
 61 423 61 423 40 373 c 128,-1,47
 19 323 19 323 19 263 c 256,48,49
 19 203 19 203 40 153 c 128,-1,50
 61 103 61 103 99 66.5 c 128,-1,51
 137 30 137 30 189.5 10 c 128,-1,52
 242 -10 242 -10 305 -10 c 0,0,1
307 150 m 256,53,54
 286 150 286 150 269 158 c 128,-1,55
 252 166 252 166 239.5 181 c 128,-1,56
 227 196 227 196 220.5 217 c 128,-1,57
 214 238 214 238 214 263 c 0,58,59
 214 289 214 289 220.5 309.5 c 128,-1,60
 227 330 227 330 239.5 345 c 128,-1,61
 252 360 252 360 269 368 c 128,-1,62
 286 376 286 376 307 376 c 256,63,64
 328 376 328 376 345 368 c 128,-1,65
 362 360 362 360 374.5 345 c 128,-1,66
 387 330 387 330 393.5 309.5 c 128,-1,67
 400 289 400 289 400 263 c 0,68,69
 400 238 400 238 393.5 217 c 128,-1,70
 387 196 387 196 374.5 181 c 128,-1,71
 362 166 362 166 345 158 c 128,-1,72
 328 150 328 150 307 150 c 256,53,54
597 319 m 1,73,74
 599 338 599 338 606 353 c 128,-1,75
 613 368 613 368 625 378.5 c 128,-1,76
 637 389 637 389 652.5 395 c 128,-1,77
 668 401 668 401 687 401 c 0,78,79
 705 401 705 401 720.5 395 c 128,-1,80
 736 389 736 389 748 378.5 c 128,-1,81
 760 368 760 368 767.5 353 c 128,-1,82
 775 338 775 338 777 319 c 1,83,-1
 597 319 l 1,73,74
EndSplineSet
EndChar

StartChar: Tbar
Encoding: 358 358 293
Width: 646
GlyphClass: 1
Flags: W
LayerCount: 2
Fore
SplineSet
575 268 m 1,0,-1
 575 356 l 1,1,-1
 71 356 l 1,2,-1
 71 268 l 1,3,-1
 575 268 l 1,0,-1
625 710 m 1,4,-1
 21 710 l 1,5,-1
 21 540 l 1,6,-1
 226 540 l 1,7,-1
 226 0 l 1,8,-1
 421 0 l 1,9,-1
 421 540 l 1,10,-1
 625 540 l 1,11,-1
 625 710 l 1,4,-1
EndSplineSet
EndChar

StartChar: tbar
Encoding: 359 359 294
Width: 424
GlyphClass: 1
Flags: W
LayerCount: 2
Fore
SplineSet
368 227 m 1,0,-1
 368 336 l 1,1,-1
 27 336 l 1,2,-1
 27 227 l 1,3,-1
 368 227 l 1,0,-1
384 179 m 1,4,5
 375 175 375 175 366 172 c 128,-1,6
 357 169 357 169 348 167 c 128,-1,7
 339 165 339 165 331 163.5 c 128,-1,8
 323 162 323 162 316 162 c 0,9,10
 297 162 297 162 286 172.5 c 128,-1,11
 275 183 275 183 275 209 c 2,12,-1
 275 383 l 1,13,-1
 378 383 l 1,14,-1
 378 526 l 1,15,-1
 275 526 l 1,16,-1
 275 691 l 1,17,-1
 85 691 l 1,18,-1
 85 526 l 1,19,-1
 20 526 l 1,20,-1
 20 383 l 1,21,-1
 85 383 l 1,22,-1
 85 142 l 2,23,24
 85 99 85 99 97.5 70 c 128,-1,25
 110 41 110 41 131.5 23 c 128,-1,26
 153 5 153 5 182 -3 c 128,-1,27
 211 -11 211 -11 243 -11 c 0,28,29
 265 -11 265 -11 287.5 -8 c 128,-1,30
 310 -5 310 -5 332.5 0.5 c 128,-1,31
 355 6 355 6 376.5 13 c 128,-1,32
 398 20 398 20 418 29 c 1,33,-1
 384 179 l 1,4,5
EndSplineSet
EndChar

StartChar: uni018F
Encoding: 399 399 318
Width: 758
GlyphClass: 1
Flags: W
LayerCount: 2
Fore
SplineSet
375 -5 m 256,0,1
 464 -5 464 -5 531 28 c 128,-1,2
 598 61 598 61 644 113.5 c 128,-1,3
 690 166 690 166 713 232.5 c 128,-1,4
 736 299 736 299 736 366 c 0,5,6
 736 425 736 425 712 486.5 c 128,-1,7
 688 548 688 548 642.5 598.5 c 128,-1,8
 597 649 597 649 529.5 681.5 c 128,-1,9
 462 714 462 714 375 714 c 0,10,11
 315 714 315 714 263.5 700 c 128,-1,12
 212 686 212 686 170 661 c 128,-1,13
 128 636 128 636 96.5 600.5 c 128,-1,14
 65 565 65 565 45 521 c 1,15,-1
 248 464 l 1,16,17
 254 483 254 483 267 497.5 c 128,-1,18
 280 512 280 512 297.5 522 c 128,-1,19
 315 532 315 532 335.5 537.5 c 128,-1,20
 356 543 356 543 377 543 c 0,21,22
 403 543 403 543 428 535.5 c 128,-1,23
 453 528 453 528 473 512 c 128,-1,24
 493 496 493 496 506.5 471 c 128,-1,25
 520 446 520 446 523 411 c 1,26,-1
 18 411 l 1,27,28
 16 396 16 396 14 376.5 c 128,-1,29
 12 357 12 357 12 338 c 0,30,31
 12 282 12 282 35.5 221.5 c 128,-1,32
 59 161 59 161 104.5 110.5 c 128,-1,33
 150 60 150 60 218 27.5 c 128,-1,34
 286 -5 286 -5 375 -5 c 256,0,1
378 165 m 0,35,36
 348 165 348 165 322.5 172 c 128,-1,37
 297 179 297 179 277.5 192 c 128,-1,38
 258 205 258 205 245.5 224.5 c 128,-1,39
 233 244 233 244 228 268 c 1,40,-1
 518 268 l 1,41,42
 514 244 514 244 502 224.5 c 128,-1,43
 490 205 490 205 472 192 c 128,-1,44
 454 179 454 179 430 172 c 128,-1,45
 406 165 406 165 378 165 c 0,35,36
EndSplineSet
EndChar

StartChar: florin
Encoding: 402 402 319
Width: 565
GlyphClass: 1
Flags: W
LayerCount: 2
Fore
SplineSet
177 -209 m 0,0,1
 221 -209 221 -209 259 -193.5 c 128,-1,2
 297 -178 297 -178 324.5 -150.5 c 128,-1,3
 352 -123 352 -123 367.5 -84 c 128,-1,4
 383 -45 383 -45 383 2 c 2,5,-1
 383 322 l 1,6,-1
 498 322 l 1,7,-1
 498 465 l 1,8,-1
 383 465 l 1,9,-1
 383 529 l 2,10,11
 383 555 383 555 394.5 567.5 c 128,-1,12
 406 580 406 580 429 580 c 0,13,14
 444 580 444 580 463.5 576 c 128,-1,15
 483 572 483 572 500 566 c 1,16,-1
 532 710 l 1,17,18
 492 725 492 725 456 732.5 c 128,-1,19
 420 740 420 740 386 740 c 0,20,21
 343 740 343 740 307 724.5 c 128,-1,22
 271 709 271 709 246 680.5 c 128,-1,23
 221 652 221 652 207 612 c 128,-1,24
 193 572 193 572 193 522 c 2,25,-1
 193 465 l 1,26,-1
 128 465 l 1,27,-1
 128 322 l 1,28,-1
 193 322 l 1,29,-1
 193 -3 l 2,30,31
 193 -13 193 -13 190.5 -21 c 128,-1,32
 188 -29 188 -29 182.5 -34.5 c 128,-1,33
 177 -40 177 -40 169.5 -43 c 128,-1,34
 162 -46 162 -46 153 -46 c 0,35,36
 139 -46 139 -46 126.5 -40.5 c 128,-1,37
 114 -35 114 -35 106 -26 c 1,38,-1
 28 -155 l 1,39,40
 59 -181 59 -181 97 -195 c 128,-1,41
 135 -209 135 -209 177 -209 c 0,0,1
EndSplineSet
EndChar

StartChar: Aringacute
Encoding: 506 506 328
Width: 667
GlyphClass: 1
Flags: W
LayerCount: 2
Fore
SplineSet
-2 0 m 1,0,-1
 197 0 l 1,1,-1
 239 139 l 1,2,-1
 428 139 l 1,3,-1
 471 0 l 1,4,-1
 669 0 l 1,5,-1
 443 710 l 1,6,-1
 225 710 l 1,7,-1
 -2 0 l 1,0,-1
268 269 m 1,8,-1
 334 519 l 1,9,-1
 397 269 l 1,10,-1
 268 269 l 1,8,-1
217 751 m 256,11,12
 217 707 217 707 248.5 682 c 128,-1,13
 280 657 280 657 334 657 c 256,14,15
 388 657 388 657 419.5 682 c 128,-1,16
 451 707 451 707 451 751 c 256,17,18
 451 795 451 795 419.5 820 c 128,-1,19
 388 845 388 845 334 845 c 256,20,21
 280 845 280 845 248.5 820 c 128,-1,22
 217 795 217 795 217 751 c 256,11,12
334 789 m 256,23,24
 351 789 351 789 362.5 777.5 c 128,-1,25
 374 766 374 766 374 752 c 0,26,27
 374 737 374 737 362.5 725 c 128,-1,28
 351 713 351 713 334 713 c 256,29,30
 317 713 317 713 305.5 725 c 128,-1,31
 294 737 294 737 294 752 c 0,32,33
 294 766 294 766 305.5 777.5 c 128,-1,34
 317 789 317 789 334 789 c 256,23,24
520 961 m 1,35,-1
 351 961 l 1,36,-1
 292 821 l 1,37,-1
 382 821 l 1,38,-1
 520 961 l 1,35,-1
EndSplineSet
EndChar

StartChar: uni0237
Encoding: 567 567 370
Width: 286
GlyphClass: 1
Flags: W
LayerCount: 2
Fore
SplineSet
32 -209 m 0,0,1
 77 -209 77 -209 115 -193 c 128,-1,2
 153 -177 153 -177 180.5 -147.5 c 128,-1,3
 208 -118 208 -118 223 -77.5 c 128,-1,4
 238 -37 238 -37 238 12 c 2,5,-1
 238 526 l 1,6,-1
 48 526 l 1,7,-1
 48 -3 l 2,8,9
 48 -13 48 -13 45.5 -21 c 128,-1,10
 43 -29 43 -29 37.5 -34.5 c 128,-1,11
 32 -40 32 -40 24.5 -43 c 128,-1,12
 17 -46 17 -46 8 -46 c 0,13,14
 -6 -46 -6 -46 -18.5 -40.5 c 128,-1,15
 -31 -35 -31 -35 -39 -26 c 1,16,-1
 -117 -155 l 1,17,18
 -86 -181 -86 -181 -48 -195 c 128,-1,19
 -10 -209 -10 -209 32 -209 c 0,0,1
EndSplineSet
EndChar

StartChar: uni0259
Encoding: 601 601 371
Width: 609
GlyphClass: 1
Flags: W
LayerCount: 2
Fore
SplineSet
302 -10 m 0,0,1
 373 -10 373 -10 426.5 12.5 c 128,-1,2
 480 35 480 35 516.5 73 c 128,-1,3
 553 111 553 111 571.5 162 c 128,-1,4
 590 213 590 213 590 270 c 0,5,6
 590 323 590 323 571 371 c 128,-1,7
 552 419 552 419 515.5 456 c 128,-1,8
 479 493 479 493 425 514.5 c 128,-1,9
 371 536 371 536 302 536 c 0,10,11
 254 536 254 536 213 525.5 c 128,-1,12
 172 515 172 515 139 496 c 128,-1,13
 106 477 106 477 81 451 c 128,-1,14
 56 425 56 425 40 393 c 1,15,-1
 201 347 l 1,16,17
 206 359 206 359 215.5 369 c 128,-1,18
 225 379 225 379 237.5 386 c 128,-1,19
 250 393 250 393 265.5 396.5 c 128,-1,20
 281 400 281 400 296 400 c 0,21,22
 313 400 313 400 328.5 395.5 c 128,-1,23
 344 391 344 391 357 381.5 c 128,-1,24
 370 372 370 372 378.5 357 c 128,-1,25
 387 342 387 342 388 321 c 1,26,-1
 19 321 l 1,27,28
 17 309 17 309 15.5 293.5 c 128,-1,29
 14 278 14 278 14 263 c 0,30,31
 14 209 14 209 32.5 159.5 c 128,-1,32
 51 110 51 110 87.5 72.5 c 128,-1,33
 124 35 124 35 178 12.5 c 128,-1,34
 232 -10 232 -10 302 -10 c 0,0,1
305 125 m 256,35,36
 287 125 287 125 272 130.5 c 128,-1,37
 257 136 257 136 246 146.5 c 128,-1,38
 235 157 235 157 227.5 172.5 c 128,-1,39
 220 188 220 188 218 207 c 1,40,-1
 392 207 l 1,41,42
 390 188 390 188 383 172.5 c 128,-1,43
 376 157 376 157 364.5 146.5 c 128,-1,44
 353 136 353 136 338 130.5 c 128,-1,45
 323 125 323 125 305 125 c 256,35,36
EndSplineSet
EndChar

StartChar: uni02BE
Encoding: 702 702 376
Width: 157
GlyphClass: 1
Flags: W
LayerCount: 2
Fore
SplineSet
20 549 m 1,0,1
 74 549 74 549 105.5 574 c 128,-1,2
 137 599 137 599 137 643 c 256,3,4
 137 687 137 687 105.5 712 c 128,-1,5
 74 737 74 737 20 737 c 1,6,-1
 20 681 l 1,7,8
 37 681 37 681 48.5 669.5 c 128,-1,9
 60 658 60 658 60 644 c 0,10,11
 60 629 60 629 48.5 617 c 128,-1,12
 37 605 37 605 20 605 c 1,13,-1
 20 549 l 1,0,1
EndSplineSet
EndChar

StartChar: uni02BF
Encoding: 703 703 377
Width: 157
GlyphClass: 1
Flags: W
LayerCount: 2
Fore
SplineSet
137 605 m 1,0,1
 120 605 120 605 108.5 617 c 128,-1,2
 97 629 97 629 97 644 c 0,3,4
 97 658 97 658 108.5 669.5 c 128,-1,5
 120 681 120 681 137 681 c 1,6,-1
 137 737 l 1,7,8
 83 737 83 737 51.5 712 c 128,-1,9
 20 687 20 687 20 643 c 256,10,11
 20 599 20 599 51.5 574 c 128,-1,12
 83 549 83 549 137 549 c 1,13,-1
 137 605 l 1,0,1
EndSplineSet
EndChar

StartChar: uni02C8
Encoding: 712 712 380
Width: 316
GlyphClass: 1
Flags: W
LayerCount: 2
Fore
SplineSet
78 775 m 1,0,-1
 78 391 l 1,1,-1
 238 391 l 1,2,-1
 238 775 l 1,3,-1
 78 775 l 1,0,-1
EndSplineSet
EndChar

StartChar: uni02C9
Encoding: 713 713 381
Width: 438
GlyphClass: 1
Flags: W
LayerCount: 2
Fore
SplineSet
374 607 m 1,0,-1
 374 720 l 1,1,-1
 64 720 l 1,2,-1
 64 607 l 1,3,-1
 374 607 l 1,0,-1
EndSplineSet
EndChar

StartChar: uni02CA
Encoding: 714 714 382
Width: 266
GlyphClass: 1
Flags: W
LayerCount: 2
Fore
SplineSet
173 496 m 1,0,-1
 213 730 l 1,1,-1
 53 730 l 1,2,-1
 53 496 l 1,3,-1
 173 496 l 1,0,-1
EndSplineSet
EndChar

StartChar: uni02CB
Encoding: 715 715 383
Width: 266
GlyphClass: 1
Flags: W
LayerCount: 2
Fore
SplineSet
213 496 m 1,0,-1
 213 730 l 1,1,-1
 53 730 l 1,2,-1
 93 496 l 1,3,-1
 213 496 l 1,0,-1
EndSplineSet
EndChar

StartChar: uni02CC
Encoding: 716 716 384
Width: 316
GlyphClass: 1
Flags: W
LayerCount: 2
Fore
SplineSet
78 254 m 1,0,-1
 78 -130 l 1,1,-1
 238 -130 l 1,2,-1
 238 254 l 1,3,-1
 78 254 l 1,0,-1
EndSplineSet
EndChar

StartChar: tilde
Encoding: 732 732 389
Width: 464
GlyphClass: 1
Flags: W
LayerCount: 2
Fore
SplineSet
301 572 m 0,0,1
 340 572 340 572 367 593.5 c 128,-1,2
 394 615 394 615 411 642.5 c 128,-1,3
 428 670 428 670 436 695.5 c 128,-1,4
 444 721 444 721 444 730 c 1,5,-1
 344 730 l 1,6,7
 344 729 344 729 342.5 721 c 128,-1,8
 341 713 341 713 335.5 703.5 c 128,-1,9
 330 694 330 694 320.5 686.5 c 128,-1,10
 311 679 311 679 294 679 c 256,11,12
 277 679 277 679 263 687 c 128,-1,13
 249 695 249 695 234 704.5 c 128,-1,14
 219 714 219 714 201 722 c 128,-1,15
 183 730 183 730 159 730 c 0,16,17
 122 730 122 730 95.5 710 c 128,-1,18
 69 690 69 690 52 664 c 128,-1,19
 35 638 35 638 27.5 611.5 c 128,-1,20
 20 585 20 585 20 572 c 1,21,-1
 121 572 l 1,22,23
 121 573 121 573 122 580.5 c 128,-1,24
 123 588 123 588 127.5 597 c 128,-1,25
 132 606 132 606 141 613 c 128,-1,26
 150 620 150 620 167 620 c 256,27,28
 184 620 184 620 198.5 612.5 c 128,-1,29
 213 605 213 605 228 596 c 128,-1,30
 243 587 243 587 260.5 579.5 c 128,-1,31
 278 572 278 572 301 572 c 0,0,1
EndSplineSet
EndChar

StartChar: gravecomb
Encoding: 768 768 391
Width: 284
GlyphClass: 1
Flags: W
LayerCount: 2
Fore
SplineSet
35 760 m 1,0,-1
 173 600 l 1,1,-1
 263 600 l 1,2,-1
 204 760 l 1,3,-1
 35 760 l 1,0,-1
EndSplineSet
EndChar

StartChar: acutecomb
Encoding: 769 769 392
Width: 284
GlyphClass: 1
Flags: W
LayerCount: 2
Fore
SplineSet
263 760 m 1,0,-1
 94 760 l 1,1,-1
 35 600 l 1,2,-1
 125 600 l 1,3,-1
 263 760 l 1,0,-1
EndSplineSet
EndChar

StartChar: uni0302
Encoding: 770 770 393
Width: 402
GlyphClass: 1
Flags: W
LayerCount: 2
Fore
SplineSet
20 600 m 1,0,-1
 110 600 l 1,1,-1
 194 680 l 1,2,-1
 278 600 l 1,3,-1
 368 600 l 1,4,-1
 279 760 l 1,5,-1
 109 760 l 1,6,-1
 20 600 l 1,0,-1
EndSplineSet
EndChar

StartChar: tildecomb
Encoding: 771 771 394
Width: 464
GlyphClass: 1
Flags: W
LayerCount: 2
Fore
SplineSet
301 612 m 0,0,1
 340 612 340 612 367 633.5 c 128,-1,2
 394 655 394 655 411 682.5 c 128,-1,3
 428 710 428 710 436 735.5 c 128,-1,4
 444 761 444 761 444 770 c 1,5,-1
 344 770 l 1,6,7
 344 769 344 769 342.5 761 c 128,-1,8
 341 753 341 753 335.5 743.5 c 128,-1,9
 330 734 330 734 320.5 726.5 c 128,-1,10
 311 719 311 719 294 719 c 256,11,12
 277 719 277 719 263 727 c 128,-1,13
 249 735 249 735 234 744.5 c 128,-1,14
 219 754 219 754 201 762 c 128,-1,15
 183 770 183 770 159 770 c 0,16,17
 122 770 122 770 95.5 750 c 128,-1,18
 69 730 69 730 52 704 c 128,-1,19
 35 678 35 678 27.5 651.5 c 128,-1,20
 20 625 20 625 20 612 c 1,21,-1
 121 612 l 1,22,23
 121 613 121 613 122 620.5 c 128,-1,24
 123 628 123 628 127.5 637 c 128,-1,25
 132 646 132 646 141 653 c 128,-1,26
 150 660 150 660 167 660 c 256,27,28
 184 660 184 660 198.5 652.5 c 128,-1,29
 213 645 213 645 228 636 c 128,-1,30
 243 627 243 627 260.5 619.5 c 128,-1,31
 278 612 278 612 301 612 c 0,0,1
EndSplineSet
EndChar

StartChar: uni0304
Encoding: 772 772 395
Width: 438
GlyphClass: 1
Flags: W
LayerCount: 2
Fore
SplineSet
374 607 m 1,0,-1
 374 720 l 1,1,-1
 64 720 l 1,2,-1
 64 607 l 1,3,-1
 374 607 l 1,0,-1
EndSplineSet
EndChar

StartChar: uni0306
Encoding: 774 774 396
Width: 368
GlyphClass: 1
Flags: W
LayerCount: 2
Fore
SplineSet
184 649 m 0,0,1
 159 649 159 649 141 673 c 128,-1,2
 123 697 123 697 123 730 c 1,3,-1
 25 730 l 1,4,5
 25 694 25 694 36.5 664.5 c 128,-1,6
 48 635 48 635 69 613.5 c 128,-1,7
 90 592 90 592 119.5 580 c 128,-1,8
 149 568 149 568 184 568 c 256,9,10
 219 568 219 568 248.5 580 c 128,-1,11
 278 592 278 592 299 613.5 c 128,-1,12
 320 635 320 635 331.5 664.5 c 128,-1,13
 343 694 343 694 343 730 c 1,14,-1
 245 730 l 1,15,16
 242 695 242 695 224.5 672 c 128,-1,17
 207 649 207 649 184 649 c 0,0,1
EndSplineSet
EndChar

StartChar: uni0307
Encoding: 775 775 397
Width: 270
GlyphClass: 1
Flags: W
LayerCount: 2
Fore
SplineSet
40 660 m 256,0,1
 40 621 40 621 67.5 593.5 c 128,-1,2
 95 566 95 566 134 566 c 256,3,4
 173 566 173 566 200.5 593.5 c 128,-1,5
 228 621 228 621 228 660 c 256,6,7
 228 699 228 699 200.5 726.5 c 128,-1,8
 173 754 173 754 134 754 c 256,9,10
 95 754 95 754 67.5 726.5 c 128,-1,11
 40 699 40 699 40 660 c 256,0,1
EndSplineSet
EndChar

StartChar: uni0308
Encoding: 776 776 398
Width: 566
GlyphClass: 1
Flags: W
LayerCount: 2
Fore
SplineSet
74 651 m 256,0,1
 74 612 74 612 101.5 584.5 c 128,-1,2
 129 557 129 557 168 557 c 256,3,4
 207 557 207 557 234.5 584.5 c 128,-1,5
 262 612 262 612 262 651 c 256,6,7
 262 690 262 690 234.5 717.5 c 128,-1,8
 207 745 207 745 168 745 c 256,9,10
 129 745 129 745 101.5 717.5 c 128,-1,11
 74 690 74 690 74 651 c 256,0,1
305 651 m 256,12,13
 305 612 305 612 332.5 584.5 c 128,-1,14
 360 557 360 557 399 557 c 256,15,16
 438 557 438 557 465.5 584.5 c 128,-1,17
 493 612 493 612 493 651 c 256,18,19
 493 690 493 690 465.5 717.5 c 128,-1,20
 438 745 438 745 399 745 c 256,21,22
 360 745 360 745 332.5 717.5 c 128,-1,23
 305 690 305 690 305 651 c 256,12,13
EndSplineSet
EndChar

StartChar: hookabovecomb
Encoding: 777 777 399
Width: 600
GlyphClass: 1
Flags: W
LayerCount: 2
Fore
SplineSet
254 676 m 1,0,1
 269 689 269 689 279.5 696 c 128,-1,2
 290 703 290 703 304 703 c 256,3,4
 318 703 318 703 326 694.5 c 128,-1,5
 334 686 334 686 334 673 c 0,6,7
 334 659 334 659 324.5 647.5 c 128,-1,8
 315 636 315 636 298 625 c 1,9,-1
 343 578 l 1,10,11
 381 609 381 609 399 634.5 c 128,-1,12
 417 660 417 660 417 701 c 0,13,14
 417 739 417 739 390.5 762 c 128,-1,15
 364 785 364 785 319 785 c 0,16,17
 290 785 290 785 262 771.5 c 128,-1,18
 234 758 234 758 203 726 c 1,19,-1
 254 676 l 1,0,1
EndSplineSet
EndChar

StartChar: uni030A
Encoding: 778 778 400
Width: 274
GlyphClass: 1
Flags: W
LayerCount: 2
Fore
SplineSet
20 643 m 256,0,1
 20 599 20 599 51.5 574 c 128,-1,2
 83 549 83 549 137 549 c 256,3,4
 191 549 191 549 222.5 574 c 128,-1,5
 254 599 254 599 254 643 c 256,6,7
 254 687 254 687 222.5 712 c 128,-1,8
 191 737 191 737 137 737 c 256,9,10
 83 737 83 737 51.5 712 c 128,-1,11
 20 687 20 687 20 643 c 256,0,1
137 681 m 256,12,13
 154 681 154 681 165.5 669.5 c 128,-1,14
 177 658 177 658 177 644 c 0,15,16
 177 629 177 629 165.5 617 c 128,-1,17
 154 605 154 605 137 605 c 256,18,19
 120 605 120 605 108.5 617 c 128,-1,20
 97 629 97 629 97 644 c 0,21,22
 97 658 97 658 108.5 669.5 c 128,-1,23
 120 681 120 681 137 681 c 256,12,13
EndSplineSet
EndChar

StartChar: uni030C
Encoding: 780 780 402
Width: 402
GlyphClass: 1
Flags: W
LayerCount: 2
Fore
SplineSet
20 760 m 1,0,-1
 109 600 l 1,1,-1
 279 600 l 1,2,-1
 368 760 l 1,3,-1
 278 760 l 1,4,-1
 194 680 l 1,5,-1
 110 760 l 1,6,-1
 20 760 l 1,0,-1
EndSplineSet
EndChar

StartChar: uni0311
Encoding: 785 785 404
Width: 368
GlyphClass: 1
Flags: W
LayerCount: 2
Fore
SplineSet
184 649 m 0,0,1
 207 649 207 649 224.5 626 c 128,-1,2
 242 603 242 603 245 568 c 1,3,-1
 343 568 l 1,4,5
 343 604 343 604 331.5 633.5 c 128,-1,6
 320 663 320 663 299 684.5 c 128,-1,7
 278 706 278 706 248.5 718 c 128,-1,8
 219 730 219 730 184 730 c 256,9,10
 149 730 149 730 119.5 718 c 128,-1,11
 90 706 90 706 69 684.5 c 128,-1,12
 48 663 48 663 36.5 633.5 c 128,-1,13
 25 604 25 604 25 568 c 1,14,-1
 123 568 l 1,15,16
 123 601 123 601 141 625 c 128,-1,17
 159 649 159 649 184 649 c 0,0,1
EndSplineSet
EndChar

StartChar: uni0312
Encoding: 786 786 405
Width: 241
GlyphClass: 1
Flags: W
LayerCount: 2
Fore
SplineSet
11 575 m 1,0,-1
 180 575 l 1,1,-1
 240 749 l 1,2,-1
 150 749 l 1,3,-1
 11 575 l 1,0,-1
EndSplineSet
EndChar

StartChar: uni031B
Encoding: 795 795 406
Width: 347
GlyphClass: 1
Flags: W
LayerCount: 2
Fore
SplineSet
50 470 m 1,0,1
 79 470 79 470 108 474.5 c 128,-1,2
 137 479 137 479 163.5 486.5 c 128,-1,3
 190 494 190 494 211 504 c 128,-1,4
 232 514 232 514 245 526 c 0,5,6
 265 544 265 544 275.5 565 c 128,-1,7
 286 586 286 586 290.5 608 c 128,-1,8
 295 630 295 630 296 651.5 c 128,-1,9
 297 673 297 673 297 692 c 1,10,-1
 168 692 l 1,11,12
 167 672 167 672 166 653.5 c 128,-1,13
 165 635 165 635 151 621 c 256,14,15
 137 607 137 607 112 602.5 c 128,-1,16
 87 598 87 598 52 598 c 1,17,-1
 50 470 l 1,0,1
EndSplineSet
EndChar

StartChar: dotbelowcomb
Encoding: 803 803 407
Width: 270
GlyphClass: 1
Flags: W
LayerCount: 2
Fore
SplineSet
41 -140 m 256,0,1
 41 -179 41 -179 68.5 -206.5 c 128,-1,2
 96 -234 96 -234 135 -234 c 256,3,4
 174 -234 174 -234 201.5 -206.5 c 128,-1,5
 229 -179 229 -179 229 -140 c 256,6,7
 229 -101 229 -101 201.5 -73.5 c 128,-1,8
 174 -46 174 -46 135 -46 c 256,9,10
 96 -46 96 -46 68.5 -73.5 c 128,-1,11
 41 -101 41 -101 41 -140 c 256,0,1
EndSplineSet
EndChar

StartChar: uni0324
Encoding: 804 804 408
Width: 566
GlyphClass: 1
Flags: W
LayerCount: 2
Fore
SplineSet
304 -144 m 256,0,1
 304 -183 304 -183 331.5 -210.5 c 128,-1,2
 359 -238 359 -238 398 -238 c 256,3,4
 437 -238 437 -238 464.5 -210.5 c 128,-1,5
 492 -183 492 -183 492 -144 c 256,6,7
 492 -105 492 -105 464.5 -77.5 c 128,-1,8
 437 -50 437 -50 398 -50 c 256,9,10
 359 -50 359 -50 331.5 -77.5 c 128,-1,11
 304 -105 304 -105 304 -144 c 256,0,1
73 -144 m 256,12,13
 73 -183 73 -183 100.5 -210.5 c 128,-1,14
 128 -238 128 -238 167 -238 c 256,15,16
 206 -238 206 -238 233.5 -210.5 c 128,-1,17
 261 -183 261 -183 261 -144 c 256,18,19
 261 -105 261 -105 233.5 -77.5 c 128,-1,20
 206 -50 206 -50 167 -50 c 256,21,22
 128 -50 128 -50 100.5 -77.5 c 128,-1,23
 73 -105 73 -105 73 -144 c 256,12,13
EndSplineSet
EndChar

StartChar: uni0326
Encoding: 806 806 409
Width: 241
GlyphClass: 1
Flags: W
LayerCount: 2
Fore
SplineSet
115 -291 m 1,0,-1
 233 -46 l 1,1,-1
 76 -46 l 1,2,-1
 33 -291 l 1,3,-1
 115 -291 l 1,0,-1
EndSplineSet
EndChar

StartChar: uni0327
Encoding: 807 807 410
Width: 362
GlyphClass: 1
Flags: W
LayerCount: 2
Fore
SplineSet
30 -198 m 1,0,1
 56 -209 56 -209 85 -214 c 128,-1,2
 114 -219 114 -219 143 -219 c 0,3,4
 167 -219 167 -219 194 -214.5 c 128,-1,5
 221 -210 221 -210 243.5 -198.5 c 128,-1,6
 266 -187 266 -187 280.5 -167 c 128,-1,7
 295 -147 295 -147 295 -116 c 0,8,9
 295 -75 295 -75 266.5 -56.5 c 128,-1,10
 238 -38 238 -38 201 -38 c 0,11,12
 194 -38 194 -38 187.5 -38 c 128,-1,13
 181 -38 181 -38 174 -40 c 1,14,-1
 210 11 l 1,15,16
 206 12 206 12 196.5 15 c 128,-1,17
 187 18 187 18 176 21 c 128,-1,18
 165 24 165 24 155.5 26.5 c 128,-1,19
 146 29 146 29 141 30 c 1,20,-1
 77 -102 l 1,21,22
 99 -100 99 -100 119.5 -96.5 c 128,-1,23
 140 -93 140 -93 161 -93 c 0,24,25
 176 -93 176 -93 193.5 -98.5 c 128,-1,26
 211 -104 211 -104 211 -123 c 0,27,28
 211 -133 211 -133 205 -139 c 128,-1,29
 199 -145 199 -145 190.5 -148.5 c 128,-1,30
 182 -152 182 -152 172.5 -153 c 128,-1,31
 163 -154 163 -154 155 -154 c 0,32,33
 135 -154 135 -154 108.5 -149.5 c 128,-1,34
 82 -145 82 -145 65 -134 c 1,35,36
 63 -138 63 -138 58 -147 c 128,-1,37
 53 -156 53 -156 47.5 -166 c 128,-1,38
 42 -176 42 -176 37 -185 c 128,-1,39
 32 -194 32 -194 30 -198 c 1,0,1
EndSplineSet
EndChar

StartChar: uni0328
Encoding: 808 808 411
Width: 332
GlyphClass: 1
Flags: W
LayerCount: 2
Fore
SplineSet
74 -114 m 0,0,1
 74 -132 74 -132 83.5 -148 c 128,-1,2
 93 -164 93 -164 111.5 -177 c 128,-1,3
 130 -190 130 -190 158.5 -200 c 128,-1,4
 187 -210 187 -210 226 -214 c 1,5,-1
 261 -114 l 1,6,7
 225 -114 225 -114 208 -104 c 128,-1,8
 191 -94 191 -94 191 -77 c 256,9,10
 191 -60 191 -60 209.5 -39.5 c 128,-1,11
 228 -19 228 -19 263 1 c 1,12,-1
 250 25 l 1,13,-1
 187 25 l 1,14,15
 130 -4 130 -4 102 -41 c 128,-1,16
 74 -78 74 -78 74 -114 c 0,0,1
EndSplineSet
EndChar

StartChar: uni032E
Encoding: 814 814 412
Width: 368
GlyphClass: 1
Flags: W
LayerCount: 2
Fore
SplineSet
184 -132 m 0,0,1
 159 -132 159 -132 141 -108 c 128,-1,2
 123 -84 123 -84 123 -51 c 1,3,-1
 25 -51 l 1,4,5
 25 -87 25 -87 36.5 -116.5 c 128,-1,6
 48 -146 48 -146 69 -167.5 c 128,-1,7
 90 -189 90 -189 119.5 -201 c 128,-1,8
 149 -213 149 -213 184 -213 c 256,9,10
 219 -213 219 -213 248.5 -201 c 128,-1,11
 278 -189 278 -189 299 -167.5 c 128,-1,12
 320 -146 320 -146 331.5 -116.5 c 128,-1,13
 343 -87 343 -87 343 -51 c 1,14,-1
 245 -51 l 1,15,16
 242 -86 242 -86 224.5 -109 c 128,-1,17
 207 -132 207 -132 184 -132 c 0,0,1
EndSplineSet
EndChar

StartChar: uni0331
Encoding: 817 817 413
Width: 438
GlyphClass: 1
Flags: W
LayerCount: 2
Fore
SplineSet
374 -187 m 1,0,-1
 374 -74 l 1,1,-1
 64 -74 l 1,2,-1
 64 -187 l 1,3,-1
 374 -187 l 1,0,-1
EndSplineSet
EndChar

StartChar: uni0335
Encoding: 821 821 414
Width: 441
GlyphClass: 1
Flags: W
LayerCount: 2
Fore
SplineSet
391 227 m 1,0,-1
 391 336 l 1,1,-1
 50 336 l 1,2,-1
 50 227 l 1,3,-1
 391 227 l 1,0,-1
EndSplineSet
EndChar

StartChar: tonos
Encoding: 900 900 416
Width: 236
GlyphClass: 1
Flags: W
LayerCount: 2
Fore
SplineSet
68 842 m 1,0,-1
 42 582 l 1,1,-1
 134 568 l 1,2,-1
 196 814 l 1,3,-1
 68 842 l 1,0,-1
EndSplineSet
EndChar

StartChar: dieresistonos
Encoding: 901 901 417
Width: 616
GlyphClass: 1
Flags: W
LayerCount: 2
Fore
SplineSet
42 660 m 0,0,1
 42 621 42 621 68.5 594.5 c 128,-1,2
 95 568 95 568 134 568 c 0,3,4
 175 568 175 568 200.5 594.5 c 128,-1,5
 226 621 226 621 226 660 c 0,6,7
 226 701 226 701 200.5 726.5 c 128,-1,8
 175 752 175 752 134 752 c 0,9,10
 95 752 95 752 68.5 726.5 c 128,-1,11
 42 701 42 701 42 660 c 0,0,1
390 660 m 0,12,13
 392 621 392 621 418.5 594.5 c 128,-1,14
 445 568 445 568 484 568 c 256,15,16
 523 568 523 568 549.5 594.5 c 128,-1,17
 576 621 576 621 576 660 c 0,18,19
 576 701 576 701 549.5 726.5 c 128,-1,20
 523 752 523 752 484 752 c 256,21,22
 445 752 445 752 418.5 726.5 c 128,-1,23
 392 701 392 701 390 660 c 0,12,13
274 844 m 1,24,-1
 248 584 l 1,25,-1
 340 570 l 1,26,-1
 402 816 l 1,27,-1
 274 844 l 1,24,-1
EndSplineSet
EndChar

StartChar: Alphatonos
Encoding: 902 902 418
Width: 667
GlyphClass: 1
Flags: W
LayerCount: 2
Fore
SplineSet
-2 0 m 1,0,-1
 197 0 l 1,1,-1
 239 139 l 1,2,-1
 428 139 l 1,3,-1
 471 0 l 1,4,-1
 669 0 l 1,5,-1
 443 710 l 1,6,-1
 225 710 l 1,7,-1
 -2 0 l 1,0,-1
268 269 m 1,8,-1
 334 519 l 1,9,-1
 397 269 l 1,10,-1
 268 269 l 1,8,-1
107 926 m 1,11,-1
 22 686 l 1,12,-1
 119 647 l 1,13,-1
 246 829 l 1,14,-1
 107 926 l 1,11,-1
EndSplineSet
EndChar

StartChar: Epsilontonos
Encoding: 904 904 420
Width: 714
GlyphClass: 1
Flags: W
LayerCount: 2
Fore
SplineSet
373 170 m 1,0,-1
 373 282 l 1,1,-1
 631 282 l 1,2,-1
 631 440 l 1,3,-1
 373 440 l 1,4,-1
 373 540 l 1,5,-1
 675 540 l 1,6,-1
 675 710 l 1,7,-1
 178 710 l 1,8,-1
 178 0 l 1,9,-1
 684 0 l 1,10,-1
 684 170 l 1,11,-1
 373 170 l 1,0,-1
150 993 m 1,12,-1
 65 753 l 1,13,-1
 162 714 l 1,14,-1
 289 896 l 1,15,-1
 150 993 l 1,12,-1
EndSplineSet
EndChar

StartChar: Etatonos
Encoding: 905 905 421
Width: 879
GlyphClass: 1
Flags: W
LayerCount: 2
Fore
SplineSet
611 710 m 1,0,-1
 611 448 l 1,1,-1
 373 448 l 1,2,-1
 373 710 l 1,3,-1
 178 710 l 1,4,-1
 178 0 l 1,5,-1
 373 0 l 1,6,-1
 373 278 l 1,7,-1
 611 278 l 1,8,-1
 611 0 l 1,9,-1
 806 0 l 1,10,-1
 806 710 l 1,11,-1
 611 710 l 1,0,-1
65 922 m 1,12,-1
 -20 682 l 1,13,-1
 77 643 l 1,14,-1
 204 825 l 1,15,-1
 65 922 l 1,12,-1
EndSplineSet
EndChar

StartChar: Iotatonos
Encoding: 906 906 422
Width: 450
GlyphClass: 1
Flags: W
LayerCount: 2
Fore
SplineSet
363 0 m 1,0,-1
 363 710 l 1,1,-1
 168 710 l 1,2,-1
 168 0 l 1,3,-1
 363 0 l 1,0,-1
75 917 m 1,4,-1
 -10 677 l 1,5,-1
 87 638 l 1,6,-1
 214 820 l 1,7,-1
 75 917 l 1,4,-1
EndSplineSet
EndChar

StartChar: Omicrontonos
Encoding: 908 908 423
Width: 857
GlyphClass: 1
Flags: W
LayerCount: 2
Fore
SplineSet
439 -6 m 0,0,1
 519 -6 519 -6 585.5 24 c 128,-1,2
 652 54 652 54 700 103.5 c 128,-1,3
 748 153 748 153 774.5 217.5 c 128,-1,4
 801 282 801 282 801 352 c 0,5,6
 801 420 801 420 775.5 485 c 128,-1,7
 750 550 750 550 703 601 c 128,-1,8
 656 652 656 652 590 683 c 128,-1,9
 524 714 524 714 443 714 c 0,10,11
 364 714 364 714 297.5 684.5 c 128,-1,12
 231 655 231 655 182.5 605.5 c 128,-1,13
 134 556 134 556 107 491.5 c 128,-1,14
 80 427 80 427 80 356 c 0,15,16
 80 287 80 287 106 222 c 128,-1,17
 132 157 132 157 179 106.5 c 128,-1,18
 226 56 226 56 292 25 c 128,-1,19
 358 -6 358 -6 439 -6 c 0,0,1
278 354 m 0,20,21
 278 389 278 389 287.5 422.5 c 128,-1,22
 297 456 297 456 317 482.5 c 128,-1,23
 337 509 337 509 367.5 525 c 128,-1,24
 398 541 398 541 440 541 c 0,25,26
 481 541 481 541 512 525.5 c 128,-1,27
 543 510 543 510 563 484.5 c 128,-1,28
 583 459 583 459 593 425.5 c 128,-1,29
 603 392 603 392 603 356 c 0,30,31
 603 321 603 321 593.5 287 c 128,-1,32
 584 253 584 253 564.5 226.5 c 128,-1,33
 545 200 545 200 514 183.5 c 128,-1,34
 483 167 483 167 441 167 c 256,35,36
 399 167 399 167 368.5 183 c 128,-1,37
 338 199 338 199 318 225 c 128,-1,38
 298 251 298 251 288 284.5 c 128,-1,39
 278 318 278 318 278 354 c 0,20,21
78 917 m 1,40,-1
 -7 677 l 1,41,-1
 90 638 l 1,42,-1
 217 820 l 1,43,-1
 78 917 l 1,40,-1
EndSplineSet
EndChar

StartChar: Upsilontonos
Encoding: 910 910 424
Width: 756
GlyphClass: 1
Flags: W
LayerCount: 2
Fore
SplineSet
337 0 m 1,0,-1
 512 0 l 1,1,-1
 512 224 l 2,2,3
 512 293 512 293 534.5 350 c 128,-1,4
 557 407 557 407 590 455.5 c 128,-1,5
 623 504 623 504 662 545 c 128,-1,6
 701 586 701 586 734 623 c 1,7,-1
 604 716 l 1,8,9
 564 678 564 678 533.5 644.5 c 128,-1,10
 503 611 503 611 481.5 580 c 128,-1,11
 460 549 460 549 446 519 c 128,-1,12
 432 489 432 489 425 456 c 1,13,-1
 422 456 l 1,14,15
 415 489 415 489 401.5 519.5 c 128,-1,16
 388 550 388 550 367 581 c 128,-1,17
 346 612 346 612 316 645.5 c 128,-1,18
 286 679 286 679 245 716 c 1,19,-1
 115 623 l 1,20,21
 149 586 149 586 188 545 c 128,-1,22
 227 504 227 504 260.5 455.5 c 128,-1,23
 294 407 294 407 316 350 c 128,-1,24
 338 293 338 293 337 224 c 2,25,-1
 337 0 l 1,0,-1
73 917 m 1,26,-1
 -12 677 l 1,27,-1
 85 638 l 1,28,-1
 212 820 l 1,29,-1
 73 917 l 1,26,-1
EndSplineSet
EndChar

StartChar: Omegatonos
Encoding: 911 911 425
Width: 726
GlyphClass: 1
Flags: W
LayerCount: 2
Fore
SplineSet
24 0 m 1,0,-1
 323 0 l 1,1,-1
 323 254 l 1,2,3
 301 260 301 260 282 275.5 c 128,-1,4
 263 291 263 291 248.5 312.5 c 128,-1,5
 234 334 234 334 226 360.5 c 128,-1,6
 218 387 218 387 218 415 c 0,7,8
 218 445 218 445 229 471 c 128,-1,9
 240 497 240 497 259.5 515.5 c 128,-1,10
 279 534 279 534 305.5 544.5 c 128,-1,11
 332 555 332 555 362 555 c 256,12,13
 392 555 392 555 417.5 544.5 c 128,-1,14
 443 534 443 534 461.5 515 c 128,-1,15
 480 496 480 496 490.5 470 c 128,-1,16
 501 444 501 444 501 413 c 0,17,18
 501 383 501 383 493 356 c 128,-1,19
 485 329 485 329 471 308 c 128,-1,20
 457 287 457 287 437.5 272.5 c 128,-1,21
 418 258 418 258 395 254 c 1,22,-1
 395 0 l 1,23,-1
 696 0 l 1,24,-1
 696 146 l 1,25,-1
 441 146 l 1,26,-1
 509 96 l 1,27,-1
 509 214 l 1,28,-1
 460 144 l 1,29,30
 506 155 506 155 545.5 180 c 128,-1,31
 585 205 585 205 614.5 241 c 128,-1,32
 644 277 644 277 661 323 c 128,-1,33
 678 369 678 369 678 421 c 0,34,35
 678 483 678 483 654 537 c 128,-1,36
 630 591 630 591 587.5 630.5 c 128,-1,37
 545 670 545 670 487 693 c 128,-1,38
 429 716 429 716 360 716 c 256,39,40
 291 716 291 716 232.5 692.5 c 128,-1,41
 174 669 174 669 132 628.5 c 128,-1,42
 90 588 90 588 66.5 533.5 c 128,-1,43
 43 479 43 479 43 417 c 0,44,45
 43 369 43 369 57.5 324.5 c 128,-1,46
 72 280 72 280 98.5 243 c 128,-1,47
 125 206 125 206 162 180 c 128,-1,48
 199 154 199 154 244 142 c 1,49,-1
 214 214 l 1,50,-1
 214 96 l 1,51,-1
 281 146 l 1,52,-1
 24 146 l 1,53,-1
 24 0 l 1,0,-1
42 917 m 1,54,-1
 -43 677 l 1,55,-1
 54 638 l 1,56,-1
 181 820 l 1,57,-1
 42 917 l 1,54,-1
EndSplineSet
EndChar

StartChar: iotadieresistonos
Encoding: 912 912 426
Width: 434
GlyphClass: 1
Flags: W
LayerCount: 2
Fore
SplineSet
255 -8 m 0,0,1
 287 -8 287 -8 315 -2.5 c 128,-1,2
 343 3 343 3 362 12 c 1,3,-1
 339 164 l 1,4,5
 331 159 331 159 317 154.5 c 128,-1,6
 303 150 303 150 293 150 c 0,7,8
 280 150 280 150 271.5 163 c 128,-1,9
 263 176 263 176 263 223 c 0,10,11
 263 245 263 245 264.5 282.5 c 128,-1,12
 266 320 266 320 268.5 362 c 128,-1,13
 271 404 271 404 273.5 446.5 c 128,-1,14
 276 489 276 489 277 522 c 1,15,-1
 109 522 l 1,16,17
 109 470 109 470 108.5 425.5 c 128,-1,18
 108 381 108 381 108 339.5 c 128,-1,19
 108 298 108 298 107.5 257.5 c 128,-1,20
 107 217 107 217 107 174 c 0,21,22
 107 129 107 129 117 95 c 128,-1,23
 127 61 127 61 146 38 c 128,-1,24
 165 15 165 15 192.5 3.5 c 128,-1,25
 220 -8 220 -8 255 -8 c 0,0,1
-72 672 m 0,26,27
 -72 634 -72 634 -46 607.5 c 128,-1,28
 -20 581 -20 581 19 581 c 0,29,30
 59 581 59 581 84.5 607.5 c 128,-1,31
 110 634 110 634 110 672 c 0,32,33
 110 713 110 713 84.5 738.5 c 128,-1,34
 59 764 59 764 19 764 c 0,35,36
 -20 764 -20 764 -46 738.5 c 128,-1,37
 -72 713 -72 713 -72 672 c 0,26,27
273 672 m 0,38,39
 274 634 274 634 300.5 607.5 c 128,-1,40
 327 581 327 581 366 581 c 256,41,42
 405 581 405 581 431 607.5 c 128,-1,43
 457 634 457 634 457 672 c 0,44,45
 457 713 457 713 431 738.5 c 128,-1,46
 405 764 405 764 366 764 c 256,47,48
 327 764 327 764 300.5 738.5 c 128,-1,49
 274 713 274 713 273 672 c 0,38,39
158 855 m 1,50,-1
 132 597 l 1,51,-1
 223 583 l 1,52,-1
 285 827 l 1,53,-1
 158 855 l 1,50,-1
EndSplineSet
EndChar

StartChar: Gamma
Encoding: 915 915 429
Width: 506
GlyphClass: 1
Flags: W
LayerCount: 2
Fore
SplineSet
568 708 m 1,0,-1
 568 541 l 1,1,-1
 252 541 l 1,2,-1
 252 10 l 1,3,-1
 60 10 l 1,4,-1
 60 708 l 1,5,-1
 568 708 l 1,0,-1
EndSplineSet
EndChar

StartChar: uni0394
Encoding: 916 916 430
Width: 674
GlyphClass: 1
Flags: W
LayerCount: 2
Fore
SplineSet
4 0 m 1,0,-1
 670 0 l 1,1,-1
 670 24 l 1,2,-1
 452 708 l 1,3,-1
 222 708 l 1,4,-1
 4 24 l 1,5,-1
 4 0 l 1,0,-1
210 146 m 1,6,-1
 276 350 l 1,7,-1
 336 568 l 1,8,-1
 340 568 l 1,9,-1
 400 350 l 1,10,-1
 462 146 l 1,11,-1
 210 146 l 1,6,-1
EndSplineSet
EndChar

StartChar: Theta
Encoding: 920 920 434
Width: 765
GlyphClass: 1
Flags: W
LayerCount: 2
Fore
SplineSet
277 276 m 1,0,-1
 479 276 l 1,1,-1
 479 436 l 1,2,-1
 277 436 l 1,3,-1
 277 276 l 1,0,-1
375 -6 m 0,4,5
 453 -6 453 -6 518.5 23.5 c 128,-1,6
 584 53 584 53 631 101.5 c 128,-1,7
 678 150 678 150 704.5 214 c 128,-1,8
 731 278 731 278 731 346 c 0,9,10
 731 413 731 413 705.5 477 c 128,-1,11
 680 541 680 541 634 591 c 128,-1,12
 588 641 588 641 523 671.5 c 128,-1,13
 458 702 458 702 379 702 c 0,14,15
 301 702 301 702 235.5 673 c 128,-1,16
 170 644 170 644 122.5 595.5 c 128,-1,17
 75 547 75 547 48.5 483 c 128,-1,18
 22 419 22 419 22 350 c 0,19,20
 22 283 22 283 47 218.5 c 128,-1,21
 72 154 72 154 118.5 104.5 c 128,-1,22
 165 55 165 55 230 24.5 c 128,-1,23
 295 -6 295 -6 375 -6 c 0,4,5
216 348 m 0,24,25
 216 382 216 382 225.5 415 c 128,-1,26
 235 448 235 448 254.5 474 c 128,-1,27
 274 500 274 500 304 516 c 128,-1,28
 334 532 334 532 376 532 c 0,29,30
 416 532 416 532 446 517 c 128,-1,31
 476 502 476 502 496 476.5 c 128,-1,32
 516 451 516 451 526 418 c 128,-1,33
 536 385 536 385 536 350 c 0,34,35
 536 316 536 316 526.5 282.5 c 128,-1,36
 517 249 517 249 497.5 223 c 128,-1,37
 478 197 478 197 448 180.5 c 128,-1,38
 418 164 418 164 377 164 c 256,39,40
 336 164 336 164 305.5 179.5 c 128,-1,41
 275 195 275 195 255.5 221 c 128,-1,42
 236 247 236 247 226 280 c 128,-1,43
 216 313 216 313 216 348 c 0,24,25
EndSplineSet
EndChar

StartChar: Lambda
Encoding: 923 923 437
Width: 698
GlyphClass: 1
Flags: W
LayerCount: 2
Fore
SplineSet
4 0 m 1,0,-1
 180 0 l 1,1,-1
 290 352 l 1,2,-1
 348 548 l 1,3,-1
 352 548 l 1,4,-1
 410 350 l 1,5,-1
 516 0 l 1,6,-1
 694 0 l 1,7,-1
 464 708 l 1,8,-1
 234 708 l 1,9,-1
 4 0 l 1,0,-1
EndSplineSet
EndChar

StartChar: Xi
Encoding: 926 926 440
Width: 666
GlyphClass: 1
Flags: W
LayerCount: 2
Fore
SplineSet
59 0 m 1,0,-1
 608 0 l 1,1,-1
 608 146 l 1,2,-1
 59 146 l 1,3,-1
 59 0 l 1,0,-1
134 278 m 1,4,-1
 532 278 l 1,5,-1
 532 422 l 1,6,-1
 134 422 l 1,7,-1
 134 278 l 1,4,-1
59 558 m 1,8,-1
 608 558 l 1,9,-1
 608 704 l 1,10,-1
 59 704 l 1,11,-1
 59 558 l 1,8,-1
EndSplineSet
EndChar

StartChar: Pi
Encoding: 928 928 442
Width: 680
GlyphClass: 1
Flags: W
LayerCount: 2
Fore
SplineSet
66 0 m 1,0,-1
 240 0 l 1,1,-1
 240 558 l 1,2,-1
 440 558 l 1,3,-1
 440 0 l 1,4,-1
 614 0 l 1,5,-1
 614 704 l 1,6,-1
 66 704 l 1,7,-1
 66 0 l 1,0,-1
EndSplineSet
EndChar

StartChar: Sigma
Encoding: 931 931 444
Width: 580
GlyphClass: 1
Flags: W
LayerCount: 2
Fore
SplineSet
50 0 m 1,0,-1
 532 0 l 1,1,-1
 532 146 l 1,2,-1
 286 146 l 1,3,-1
 444 360 l 1,4,-1
 288 558 l 1,5,-1
 518 558 l 1,6,-1
 518 704 l 1,7,-1
 52 704 l 1,8,-1
 52 598 l 1,9,-1
 262 356 l 1,10,-1
 50 104 l 1,11,-1
 50 0 l 1,0,-1
EndSplineSet
EndChar

StartChar: Upsilon
Encoding: 933 933 446
Width: 650
GlyphClass: 1
Flags: W
LayerCount: 2
Fore
SplineSet
238 0 m 1,0,-1
 413 0 l 1,1,-1
 413 224 l 2,2,3
 413 293 413 293 435.5 350 c 128,-1,4
 458 407 458 407 491 455.5 c 128,-1,5
 524 504 524 504 563 545 c 128,-1,6
 602 586 602 586 635 623 c 1,7,-1
 505 716 l 1,8,9
 465 678 465 678 434.5 644.5 c 128,-1,10
 404 611 404 611 382.5 580 c 128,-1,11
 361 549 361 549 347 519 c 128,-1,12
 333 489 333 489 326 456 c 1,13,-1
 323 456 l 1,14,15
 316 489 316 489 302.5 519.5 c 128,-1,16
 289 550 289 550 268 581 c 128,-1,17
 247 612 247 612 217 645.5 c 128,-1,18
 187 679 187 679 146 716 c 1,19,-1
 16 623 l 1,20,21
 50 586 50 586 89 545 c 128,-1,22
 128 504 128 504 161.5 455.5 c 128,-1,23
 195 407 195 407 217 350 c 128,-1,24
 239 293 239 293 238 224 c 2,25,-1
 238 0 l 1,0,-1
EndSplineSet
EndChar

StartChar: Phi
Encoding: 934 934 447
Width: 778
GlyphClass: 1
Flags: W
LayerCount: 2
Fore
SplineSet
360 208 m 1,0,1
 325 208 325 208 296 218.5 c 128,-1,2
 267 229 267 229 246.5 248.5 c 128,-1,3
 226 268 226 268 214.5 294.5 c 128,-1,4
 203 321 203 321 203 354 c 256,5,6
 203 387 203 387 214.5 414 c 128,-1,7
 226 441 226 441 246.5 460 c 128,-1,8
 267 479 267 479 296 489.5 c 128,-1,9
 325 500 325 500 360 500 c 1,10,-1
 360 641 l 1,11,12
 288 641 288 641 229 620.5 c 128,-1,13
 170 600 170 600 128 562.5 c 128,-1,14
 86 525 86 525 63.5 472 c 128,-1,15
 41 419 41 419 41 354 c 256,16,17
 41 289 41 289 63.5 236 c 128,-1,18
 86 183 86 183 128 145.5 c 128,-1,19
 170 108 170 108 229 87.5 c 128,-1,20
 288 67 288 67 360 67 c 1,21,-1
 360 208 l 1,0,1
470 -33 m 1,22,-1
 470 737 l 1,23,-1
 309 737 l 1,24,-1
 309 -33 l 1,25,-1
 470 -33 l 1,22,-1
423 67 m 1,26,27
 495 67 495 67 553.5 87.5 c 128,-1,28
 612 108 612 108 652.5 145.5 c 128,-1,29
 693 183 693 183 715 236 c 128,-1,30
 737 289 737 289 737 354 c 256,31,32
 737 419 737 419 715 472 c 128,-1,33
 693 525 693 525 652.5 562.5 c 128,-1,34
 612 600 612 600 553.5 620.5 c 128,-1,35
 495 641 495 641 423 641 c 1,36,-1
 423 500 l 1,37,38
 458 500 458 500 486 489.5 c 128,-1,39
 514 479 514 479 534 460 c 128,-1,40
 554 441 554 441 565 414 c 128,-1,41
 576 387 576 387 576 354 c 256,42,43
 576 321 576 321 565 294.5 c 128,-1,44
 554 268 554 268 534 248.5 c 128,-1,45
 514 229 514 229 486 218.5 c 128,-1,46
 458 208 458 208 423 208 c 1,47,-1
 423 67 l 1,26,27
EndSplineSet
EndChar

StartChar: Psi
Encoding: 936 936 449
Width: 830
GlyphClass: 1
Flags: W
LayerCount: 2
Fore
SplineSet
334 0 m 1,0,-1
 496 0 l 1,1,-1
 496 708 l 1,2,-1
 334 708 l 1,3,-1
 334 0 l 1,0,-1
74 444 m 2,4,5
 74 389 74 389 88.5 340 c 128,-1,6
 103 291 103 291 137.5 254 c 128,-1,7
 172 217 172 217 228.5 195 c 128,-1,8
 285 173 285 173 368 172 c 1,9,-1
 358 306 l 1,10,11
 319 306 319 306 295 317 c 128,-1,12
 271 328 271 328 258 345.5 c 128,-1,13
 245 363 245 363 240.5 385.5 c 128,-1,14
 236 408 236 408 236 430 c 0,15,16
 236 447 236 447 236.5 464.5 c 128,-1,17
 237 482 237 482 237.5 500 c 128,-1,18
 238 518 238 518 238.5 536 c 128,-1,19
 239 554 239 554 238 570 c 0,20,21
 240 609 240 609 238.5 648 c 128,-1,22
 237 687 237 687 226 708 c 1,23,-1
 60 708 l 1,24,25
 66 683 66 683 69 658 c 128,-1,26
 72 633 72 633 73 610 c 128,-1,27
 74 587 74 587 74 567 c 128,-1,28
 74 547 74 547 74 532 c 2,29,-1
 74 444 l 2,4,5
754 532 m 2,30,31
 755 550 755 550 755 570.5 c 128,-1,32
 755 591 755 591 756.5 613.5 c 128,-1,33
 758 636 758 636 760.5 659.5 c 128,-1,34
 763 683 763 683 768 708 c 1,35,-1
 602 708 l 1,36,37
 593 687 593 687 591.5 647.5 c 128,-1,38
 590 608 590 608 590 570 c 0,39,40
 590 554 590 554 590.5 536 c 128,-1,41
 591 518 591 518 591 500 c 128,-1,42
 591 482 591 482 591.5 464.5 c 128,-1,43
 592 447 592 447 592 430 c 0,44,45
 592 408 592 408 588 386 c 128,-1,46
 584 364 584 364 571 346 c 128,-1,47
 558 328 558 328 534.5 317 c 128,-1,48
 511 306 511 306 472 306 c 1,49,-1
 462 172 l 1,50,51
 545 173 545 173 601.5 195 c 128,-1,52
 658 217 658 217 692 254.5 c 128,-1,53
 726 292 726 292 740.5 341 c 128,-1,54
 755 390 755 390 754 444 c 2,55,-1
 754 532 l 2,30,31
EndSplineSet
EndChar

StartChar: uni03A9
Encoding: 937 937 450
Width: 720
GlyphClass: 1
Flags: W
LayerCount: 2
Fore
SplineSet
24 0 m 1,0,-1
 323 0 l 1,1,-1
 323 254 l 1,2,3
 301 260 301 260 282 275.5 c 128,-1,4
 263 291 263 291 248.5 312.5 c 128,-1,5
 234 334 234 334 226 360.5 c 128,-1,6
 218 387 218 387 218 415 c 0,7,8
 218 445 218 445 229 471 c 128,-1,9
 240 497 240 497 259.5 515.5 c 128,-1,10
 279 534 279 534 305.5 544.5 c 128,-1,11
 332 555 332 555 362 555 c 256,12,13
 392 555 392 555 417.5 544.5 c 128,-1,14
 443 534 443 534 461.5 515 c 128,-1,15
 480 496 480 496 490.5 470 c 128,-1,16
 501 444 501 444 501 413 c 0,17,18
 501 383 501 383 493 356 c 128,-1,19
 485 329 485 329 471 308 c 128,-1,20
 457 287 457 287 437.5 272.5 c 128,-1,21
 418 258 418 258 395 254 c 1,22,-1
 395 0 l 1,23,-1
 696 0 l 1,24,-1
 696 146 l 1,25,-1
 441 146 l 1,26,-1
 509 96 l 1,27,-1
 509 214 l 1,28,-1
 460 144 l 1,29,30
 506 155 506 155 545.5 180 c 128,-1,31
 585 205 585 205 614.5 241 c 128,-1,32
 644 277 644 277 661 323 c 128,-1,33
 678 369 678 369 678 421 c 0,34,35
 678 483 678 483 654 537 c 128,-1,36
 630 591 630 591 587.5 630.5 c 128,-1,37
 545 670 545 670 487 693 c 128,-1,38
 429 716 429 716 360 716 c 256,39,40
 291 716 291 716 232.5 692.5 c 128,-1,41
 174 669 174 669 132 628.5 c 128,-1,42
 90 588 90 588 66.5 533.5 c 128,-1,43
 43 479 43 479 43 417 c 0,44,45
 43 369 43 369 57.5 324.5 c 128,-1,46
 72 280 72 280 98.5 243 c 128,-1,47
 125 206 125 206 162 180 c 128,-1,48
 199 154 199 154 244 142 c 1,49,-1
 214 214 l 1,50,-1
 214 96 l 1,51,-1
 281 146 l 1,52,-1
 24 146 l 1,53,-1
 24 0 l 1,0,-1
EndSplineSet
EndChar

StartChar: Iotadieresis
Encoding: 938 938 451
Width: 372
GlyphClass: 1
Flags: W
LayerCount: 2
Fore
SplineSet
252 0 m 1,0,-1
 252 698 l 1,1,-1
 60 698 l 1,2,-1
 60 0 l 1,3,-1
 252 0 l 1,0,-1
12 821 m 256,4,5
 12 782 12 782 30.5 755.5 c 128,-1,6
 49 729 49 729 77 729 c 0,7,8
 103 729 103 729 122 755.5 c 128,-1,9
 141 782 141 782 141 821 c 256,10,11
 141 860 141 860 122 886.5 c 128,-1,12
 103 913 103 913 77 913 c 0,13,14
 49 913 49 913 30.5 886.5 c 128,-1,15
 12 860 12 860 12 821 c 256,4,5
171 821 m 256,16,17
 171 782 171 782 189.5 755.5 c 128,-1,18
 208 729 208 729 235 729 c 256,19,20
 262 729 262 729 281 755.5 c 128,-1,21
 300 782 300 782 300 821 c 256,22,23
 300 860 300 860 281 886.5 c 128,-1,24
 262 913 262 913 235 913 c 256,25,26
 208 913 208 913 189.5 886.5 c 128,-1,27
 171 860 171 860 171 821 c 256,16,17
EndSplineSet
EndChar

StartChar: alphatonos
Encoding: 940 940 453
Width: 662
GlyphClass: 1
Flags: W
LayerCount: 2
Fore
SplineSet
379 247 m 2,0,1
 373 229 373 229 365.5 210.5 c 128,-1,2
 358 192 358 192 346 177 c 128,-1,3
 334 162 334 162 317.5 152.5 c 128,-1,4
 301 143 301 143 277 143 c 0,5,6
 255 143 255 143 237 152 c 128,-1,7
 219 161 219 161 206 176.5 c 128,-1,8
 193 192 193 192 185.5 214 c 128,-1,9
 178 236 178 236 177 261 c 0,10,11
 178 287 178 287 186 309 c 128,-1,12
 194 331 194 331 207.5 347 c 128,-1,13
 221 363 221 363 238.5 372 c 128,-1,14
 256 381 256 381 275 381 c 0,15,16
 288 381 288 381 300 377.5 c 128,-1,17
 312 374 312 374 323.5 367 c 128,-1,18
 335 360 335 360 345.5 348.5 c 128,-1,19
 356 337 356 337 364.5 321 c 128,-1,20
 373 305 373 305 379.5 284 c 128,-1,21
 386 263 386 263 389 237 c 1,22,-1
 450 341 l 1,23,24
 440 396 440 396 418 433 c 128,-1,25
 396 470 396 470 368.5 492.5 c 128,-1,26
 341 515 341 515 309.5 524.5 c 128,-1,27
 278 534 278 534 249 534 c 0,28,29
 204 534 204 534 164.5 513 c 128,-1,30
 125 492 125 492 96 454.5 c 128,-1,31
 67 417 67 417 50 366.5 c 128,-1,32
 33 316 33 316 32 257 c 0,33,34
 33 200 33 200 50.5 151 c 128,-1,35
 68 102 68 102 99 67 c 128,-1,36
 130 32 130 32 172 12 c 128,-1,37
 214 -8 214 -8 263 -8 c 0,38,39
 307 -8 307 -8 344 7 c 128,-1,40
 381 22 381 22 411.5 48 c 128,-1,41
 442 74 442 74 464.5 109 c 128,-1,42
 487 144 487 144 500 183 c 2,43,-1
 618 526 l 1,44,-1
 472 526 l 1,45,-1
 379 247 l 2,0,1
636 130 m 1,46,-1
 616 137 l 2,47,48
 606 142 606 142 593.5 147.5 c 128,-1,49
 581 153 581 153 567 163.5 c 128,-1,50
 553 174 553 174 538 191.5 c 128,-1,51
 523 209 523 209 508 237 c 1,52,-1
 430 128 l 1,53,54
 435 94 435 94 445 70.5 c 128,-1,55
 455 47 455 47 469 31.5 c 128,-1,56
 483 16 483 16 501 7 c 128,-1,57
 519 -2 519 -2 538 -8 c 1,58,-1
 552 -8 l 1,59,-1
 636 130 l 1,46,-1
269 840 m 1,60,-1
 243 580 l 1,61,-1
 335 566 l 1,62,-1
 397 812 l 1,63,-1
 269 840 l 1,60,-1
EndSplineSet
EndChar

StartChar: epsilontonos
Encoding: 941 941 454
Width: 524
GlyphClass: 1
Flags: W
LayerCount: 2
Fore
SplineSet
448 167 m 1,0,1
 418 159 418 159 375.5 149 c 128,-1,2
 333 139 333 139 291 139 c 0,3,4
 247 139 247 139 221 150.5 c 128,-1,5
 195 162 195 162 195 177 c 0,6,7
 195 185 195 185 202.5 190.5 c 128,-1,8
 210 196 210 196 223 200.5 c 128,-1,9
 236 205 236 205 252.5 207 c 128,-1,10
 269 209 269 209 287 209 c 2,11,-1
 329 209 l 1,12,-1
 329 315 l 1,13,-1
 295 315 l 2,14,15
 278 316 278 316 262.5 319.5 c 128,-1,16
 247 323 247 323 235 328 c 128,-1,17
 223 333 223 333 216 339 c 128,-1,18
 209 345 209 345 209 351 c 256,19,20
 209 357 209 357 215.5 362.5 c 128,-1,21
 222 368 222 368 234 372 c 128,-1,22
 246 376 246 376 264.5 378.5 c 128,-1,23
 283 381 283 381 307 381 c 0,24,25
 326 381 326 381 344 379 c 128,-1,26
 362 377 362 377 378 374 c 128,-1,27
 394 371 394 371 408.5 366.5 c 128,-1,28
 423 362 423 362 434 357 c 1,29,-1
 478 506 l 1,30,31
 457 516 457 516 435.5 522.5 c 128,-1,32
 414 529 414 529 392.5 532 c 128,-1,33
 371 535 371 535 351 535.5 c 128,-1,34
 331 536 331 536 313 534 c 0,35,36
 254 536 254 536 207.5 525.5 c 128,-1,37
 161 515 161 515 128.5 494.5 c 128,-1,38
 96 474 96 474 79 445 c 128,-1,39
 62 416 62 416 62 381 c 0,40,41
 62 362 62 362 67.5 344 c 128,-1,42
 73 326 73 326 83 311 c 128,-1,43
 93 296 93 296 107 285.5 c 128,-1,44
 121 275 121 275 139 271 c 1,45,-1
 139 273 l 1,46,47
 117 267 117 267 99 254 c 128,-1,48
 81 241 81 241 68.5 224 c 128,-1,49
 56 207 56 207 49 187 c 128,-1,50
 42 167 42 167 42 147 c 0,51,52
 42 112 42 112 61.5 82.5 c 128,-1,53
 81 53 81 53 114.5 31.5 c 128,-1,54
 148 10 148 10 194.5 -2 c 128,-1,55
 241 -14 241 -14 295 -14 c 0,56,57
 320 -14 320 -14 346 -12 c 128,-1,58
 372 -10 372 -10 397 -6 c 128,-1,59
 422 -2 422 -2 446 3 c 128,-1,60
 470 8 470 8 490 14 c 1,61,-1
 448 167 l 1,0,1
267 888 m 1,62,-1
 241 628 l 1,63,-1
 333 614 l 1,64,-1
 395 860 l 1,65,-1
 267 888 l 1,62,-1
EndSplineSet
EndChar

StartChar: etatonos
Encoding: 942 942 455
Width: 650
GlyphClass: 1
Flags: W
LayerCount: 2
Fore
SplineSet
231 0 m 1,0,1
 242 96 242 96 249.5 174 c 128,-1,2
 257 252 257 252 255 331 c 0,3,4
 256 373 256 373 248 406 c 128,-1,5
 240 439 240 439 223.5 463.5 c 128,-1,6
 207 488 207 488 182 505.5 c 128,-1,7
 157 523 157 523 124 534 c 1,8,-1
 42 394 l 1,9,10
 59 387 59 387 69.5 374.5 c 128,-1,11
 80 362 80 362 86 344 c 128,-1,12
 92 326 92 326 94.5 302 c 128,-1,13
 97 278 97 278 96 249 c 0,14,15
 98 193 98 193 90.5 129 c 128,-1,16
 83 65 83 65 74 0 c 1,17,-1
 231 0 l 1,0,1
548 -205 m 1,18,19
 558 -152 558 -152 566 -88.5 c 128,-1,20
 574 -25 574 -25 580 39 c 128,-1,21
 586 103 586 103 589 162.5 c 128,-1,22
 592 222 592 222 592 267 c 0,23,24
 592 409 592 409 553.5 471.5 c 128,-1,25
 515 534 515 534 428 534 c 0,26,27
 399 534 399 534 372 524 c 128,-1,28
 345 514 345 514 321 494.5 c 128,-1,29
 297 475 297 475 275.5 446.5 c 128,-1,30
 254 418 254 418 237 381 c 1,31,-1
 251 255 l 1,32,33
 256 277 256 277 268.5 297.5 c 128,-1,34
 281 318 281 318 297 334 c 128,-1,35
 313 350 313 350 331.5 359.5 c 128,-1,36
 350 369 350 369 367 369 c 0,37,38
 404 369 404 369 420 336.5 c 128,-1,39
 436 304 436 304 436 221 c 0,40,41
 436 188 436 188 433.5 148 c 128,-1,42
 431 108 431 108 425 57.5 c 128,-1,43
 419 7 419 7 409.5 -56 c 128,-1,44
 400 -119 400 -119 387 -197 c 1,45,-1
 548 -205 l 1,18,19
333 840 m 1,46,-1
 307 580 l 1,47,-1
 399 566 l 1,48,-1
 461 812 l 1,49,-1
 333 840 l 1,46,-1
EndSplineSet
EndChar

StartChar: iotatonos
Encoding: 943 943 456
Width: 354
GlyphClass: 1
Flags: W
LayerCount: 2
Fore
SplineSet
211 -8 m 0,0,1
 243 -8 243 -8 271 -2.5 c 128,-1,2
 299 3 299 3 319 12 c 1,3,-1
 295 165 l 1,4,5
 287 160 287 160 273.5 155.5 c 128,-1,6
 260 151 260 151 249 151 c 0,7,8
 236 151 236 151 227.5 164 c 128,-1,9
 219 177 219 177 219 225 c 0,10,11
 219 248 219 248 220.5 285 c 128,-1,12
 222 322 222 322 224.5 365 c 128,-1,13
 227 408 227 408 229.5 450.5 c 128,-1,14
 232 493 232 493 233 526 c 1,15,-1
 64 526 l 1,16,17
 63 474 63 474 62.5 429 c 128,-1,18
 62 384 62 384 62 342.5 c 128,-1,19
 62 301 62 301 62 260 c 128,-1,20
 62 219 62 219 62 175 c 0,21,22
 62 130 62 130 72 95.5 c 128,-1,23
 82 61 82 61 101 38 c 128,-1,24
 120 15 120 15 147.5 3.5 c 128,-1,25
 175 -8 175 -8 211 -8 c 0,0,1
127 860 m 1,26,-1
 101 600 l 1,27,-1
 193 586 l 1,28,-1
 255 832 l 1,29,-1
 127 860 l 1,26,-1
EndSplineSet
EndChar

StartChar: upsilondieresistonos
Encoding: 944 944 457
Width: 610
GlyphClass: 1
Flags: W
LayerCount: 2
Fore
SplineSet
68 193 m 0,0,1
 68 145 68 145 84 108 c 128,-1,2
 100 71 100 71 130 45 c 128,-1,3
 160 19 160 19 203 5.5 c 128,-1,4
 246 -8 246 -8 299 -8 c 0,5,6
 363 -8 363 -8 412 12 c 128,-1,7
 461 32 461 32 494 70.5 c 128,-1,8
 527 109 527 109 543.5 164.5 c 128,-1,9
 560 220 560 220 560 291 c 0,10,11
 560 323 560 323 560 356 c 128,-1,12
 560 389 560 389 558.5 420.5 c 128,-1,13
 557 452 557 452 555 479.5 c 128,-1,14
 553 507 553 507 548 526 c 1,15,-1
 385 526 l 1,16,17
 390 490 390 490 392.5 458 c 128,-1,18
 395 426 395 426 396 397 c 128,-1,19
 397 368 397 368 397 342 c 128,-1,20
 397 316 397 316 396 293 c 0,21,22
 398 212 398 212 373 179.5 c 128,-1,23
 348 147 348 147 295 147 c 0,24,25
 278 147 278 147 265 150.5 c 128,-1,26
 252 154 252 154 243.5 162.5 c 128,-1,27
 235 171 235 171 231 185 c 128,-1,28
 227 199 227 199 227 219 c 0,29,30
 227 228 227 228 227.5 238.5 c 128,-1,31
 228 249 228 249 229 263.5 c 128,-1,32
 230 278 230 278 230.5 297.5 c 128,-1,33
 231 317 231 317 231 343 c 0,34,35
 231 384 231 384 229.5 412 c 128,-1,36
 228 440 228 440 225 460.5 c 128,-1,37
 222 481 222 481 218 496 c 128,-1,38
 214 511 214 511 209 526 c 1,39,-1
 50 526 l 1,40,41
 55 508 55 508 64.5 468 c 128,-1,42
 74 428 74 428 74 349 c 0,43,44
 74 326 74 326 73 303 c 128,-1,45
 72 280 72 280 71 259.5 c 128,-1,46
 70 239 70 239 69 222 c 128,-1,47
 68 205 68 205 68 193 c 0,0,1
23 658 m 0,48,49
 23 619 23 619 49.5 592.5 c 128,-1,50
 76 566 76 566 115 566 c 0,51,52
 156 566 156 566 181.5 592.5 c 128,-1,53
 207 619 207 619 207 658 c 0,54,55
 207 699 207 699 181.5 724.5 c 128,-1,56
 156 750 156 750 115 750 c 0,57,58
 76 750 76 750 49.5 724.5 c 128,-1,59
 23 699 23 699 23 658 c 0,48,49
371 658 m 0,60,61
 373 619 373 619 399.5 592.5 c 128,-1,62
 426 566 426 566 465 566 c 256,63,64
 504 566 504 566 530.5 592.5 c 128,-1,65
 557 619 557 619 557 658 c 0,66,67
 557 699 557 699 530.5 724.5 c 128,-1,68
 504 750 504 750 465 750 c 256,69,70
 426 750 426 750 399.5 724.5 c 128,-1,71
 373 699 373 699 371 658 c 0,60,61
255 842 m 1,72,-1
 229 582 l 1,73,-1
 321 568 l 1,74,-1
 383 814 l 1,75,-1
 255 842 l 1,72,-1
EndSplineSet
EndChar

StartChar: alpha
Encoding: 945 945 458
Width: 659
GlyphClass: 1
Flags: W
LayerCount: 2
Fore
SplineSet
379 247 m 2,0,1
 373 229 373 229 365.5 210.5 c 128,-1,2
 358 192 358 192 346 177 c 128,-1,3
 334 162 334 162 317.5 152.5 c 128,-1,4
 301 143 301 143 277 143 c 0,5,6
 255 143 255 143 237 152 c 128,-1,7
 219 161 219 161 206 176.5 c 128,-1,8
 193 192 193 192 185.5 214 c 128,-1,9
 178 236 178 236 177 261 c 0,10,11
 178 287 178 287 186 309 c 128,-1,12
 194 331 194 331 207.5 347 c 128,-1,13
 221 363 221 363 238.5 372 c 128,-1,14
 256 381 256 381 275 381 c 0,15,16
 288 381 288 381 300 377.5 c 128,-1,17
 312 374 312 374 323.5 367 c 128,-1,18
 335 360 335 360 345.5 348.5 c 128,-1,19
 356 337 356 337 364.5 321 c 128,-1,20
 373 305 373 305 379.5 284 c 128,-1,21
 386 263 386 263 389 237 c 1,22,-1
 450 341 l 1,23,24
 440 396 440 396 418 433 c 128,-1,25
 396 470 396 470 368.5 492.5 c 128,-1,26
 341 515 341 515 309.5 524.5 c 128,-1,27
 278 534 278 534 249 534 c 0,28,29
 204 534 204 534 164.5 513 c 128,-1,30
 125 492 125 492 96 454.5 c 128,-1,31
 67 417 67 417 50 366.5 c 128,-1,32
 33 316 33 316 32 257 c 0,33,34
 33 200 33 200 50.5 151 c 128,-1,35
 68 102 68 102 99 67 c 128,-1,36
 130 32 130 32 172 12 c 128,-1,37
 214 -8 214 -8 263 -8 c 0,38,39
 307 -8 307 -8 344 7 c 128,-1,40
 381 22 381 22 411.5 48 c 128,-1,41
 442 74 442 74 464.5 109 c 128,-1,42
 487 144 487 144 500 183 c 2,43,-1
 618 526 l 1,44,-1
 472 526 l 1,45,-1
 379 247 l 2,0,1
636 130 m 1,46,-1
 616 137 l 2,47,48
 606 142 606 142 593.5 147.5 c 128,-1,49
 581 153 581 153 567 163.5 c 128,-1,50
 553 174 553 174 538 191.5 c 128,-1,51
 523 209 523 209 508 237 c 1,52,-1
 430 128 l 1,53,54
 435 94 435 94 445 70.5 c 128,-1,55
 455 47 455 47 469 31.5 c 128,-1,56
 483 16 483 16 501 7 c 128,-1,57
 519 -2 519 -2 538 -8 c 1,58,-1
 552 -8 l 1,59,-1
 636 130 l 1,46,-1
EndSplineSet
EndChar

StartChar: beta
Encoding: 946 946 459
Width: 697
GlyphClass: 1
Flags: W
LayerCount: 2
Fore
SplineSet
211 26 m 1,0,1
 225 18 225 18 246 11.5 c 128,-1,2
 267 5 267 5 291 0.5 c 128,-1,3
 315 -4 315 -4 340.5 -6 c 128,-1,4
 366 -8 366 -8 389 -8 c 0,5,6
 446 -8 446 -8 493.5 11 c 128,-1,7
 541 30 541 30 575 62 c 128,-1,8
 609 94 609 94 627.5 135 c 128,-1,9
 646 176 646 176 646 221 c 0,10,11
 646 253 646 253 637.5 281.5 c 128,-1,12
 629 310 629 310 611 334 c 128,-1,13
 593 358 593 358 565.5 375 c 128,-1,14
 538 392 538 392 500 400 c 1,15,-1
 500 404 l 1,16,17
 522 416 522 416 538 435.5 c 128,-1,18
 554 455 554 455 564.5 478.5 c 128,-1,19
 575 502 575 502 580.5 528.5 c 128,-1,20
 586 555 586 555 586 580 c 0,21,22
 586 619 586 619 567.5 652.5 c 128,-1,23
 549 686 549 686 517.5 710.5 c 128,-1,24
 486 735 486 735 444 748.5 c 128,-1,25
 402 762 402 762 355 761 c 0,26,27
 294 762 294 762 243 739 c 128,-1,28
 192 716 192 716 155 675 c 128,-1,29
 118 634 118 634 97 578 c 128,-1,30
 76 522 76 522 76 456 c 2,31,-1
 76 -205 l 1,32,-1
 247 -205 l 1,33,34
 241 -100 241 -100 234 -44.5 c 128,-1,35
 227 11 227 11 219 32 c 1,36,-1
 221 159 l 2,37,38
 225 203 225 203 227 236 c 128,-1,39
 229 269 229 269 230 302 c 128,-1,40
 231 335 231 335 231 374 c 128,-1,41
 231 413 231 413 231 470 c 0,42,43
 231 502 231 502 240 528.5 c 128,-1,44
 249 555 249 555 264 574.5 c 128,-1,45
 279 594 279 594 300 604.5 c 128,-1,46
 321 615 321 615 345 614 c 0,47,48
 363 615 363 615 379 609 c 128,-1,49
 395 603 395 603 406 592.5 c 128,-1,50
 417 582 417 582 423.5 567 c 128,-1,51
 430 552 430 552 430 534 c 0,52,53
 430 515 430 515 421 499 c 128,-1,54
 412 483 412 483 396 471 c 128,-1,55
 380 459 380 459 360 451.5 c 128,-1,56
 340 444 340 444 317 442 c 1,57,-1
 317 329 l 1,58,59
 320 330 320 330 326 330.5 c 128,-1,60
 332 331 332 331 339 331.5 c 128,-1,61
 346 332 346 332 353.5 332 c 128,-1,62
 361 332 361 332 367 331 c 0,63,64
 395 332 395 332 419.5 325 c 128,-1,65
 444 318 444 318 462 305 c 128,-1,66
 480 292 480 292 490 274 c 128,-1,67
 500 256 500 256 500 235 c 0,68,69
 500 215 500 215 490 197 c 128,-1,70
 480 179 480 179 462 165.5 c 128,-1,71
 444 152 444 152 419.5 144.5 c 128,-1,72
 395 137 395 137 367 137 c 0,73,74
 350 137 350 137 329 140 c 128,-1,75
 308 143 308 143 287 149 c 128,-1,76
 266 155 266 155 245 163 c 128,-1,77
 224 171 224 171 207 181 c 1,78,-1
 211 26 l 1,0,1
EndSplineSet
EndChar

StartChar: gamma
Encoding: 947 947 460
Width: 650
GlyphClass: 1
Flags: W
LayerCount: 2
Fore
SplineSet
398 -205 m 1,0,1
 400 -97 400 -97 395 16.5 c 128,-1,2
 390 130 390 130 365.5 232.5 c 128,-1,3
 341 335 341 335 292.5 418.5 c 128,-1,4
 244 502 244 502 159 550 c 1,5,-1
 66 410 l 1,6,7
 103 392 103 392 130.5 353.5 c 128,-1,8
 158 315 158 315 177 264.5 c 128,-1,9
 196 214 196 214 208 153.5 c 128,-1,10
 220 93 220 93 227 31 c 128,-1,11
 234 -31 234 -31 236.5 -92 c 128,-1,12
 239 -153 239 -153 239 -205 c 1,13,-1
 398 -205 l 1,0,1
383 -4 m 1,14,15
 443 73 443 73 483 137.5 c 128,-1,16
 523 202 523 202 550 264 c 128,-1,17
 577 326 577 326 595 389 c 128,-1,18
 613 452 613 452 630 526 c 1,19,-1
 454 526 l 1,20,21
 449 474 449 474 439.5 424 c 128,-1,22
 430 374 430 374 416.5 330 c 128,-1,23
 403 286 403 286 385 248.5 c 128,-1,24
 367 211 367 211 343 183 c 1,25,-1
 383 -4 l 1,14,15
EndSplineSet
EndChar

StartChar: delta
Encoding: 948 948 461
Width: 604
GlyphClass: 1
Flags: W
LayerCount: 2
Fore
SplineSet
305 -8 m 0,0,1
 359 -8 359 -8 406 10 c 128,-1,2
 453 28 453 28 488 62 c 128,-1,3
 523 96 523 96 543 145 c 128,-1,4
 563 194 563 194 564 255 c 0,5,6
 563 311 563 311 546.5 352.5 c 128,-1,7
 530 394 530 394 506 424 c 128,-1,8
 482 454 482 454 453.5 474.5 c 128,-1,9
 425 495 425 495 400 508 c 0,10,11
 379 521 379 521 355 533.5 c 128,-1,12
 331 546 331 546 311.5 558 c 128,-1,13
 292 570 292 570 279 582 c 128,-1,14
 266 594 266 594 267 606 c 0,15,16
 265 618 265 618 278 625 c 128,-1,17
 291 632 291 632 317 632 c 0,18,19
 340 632 340 632 364.5 626 c 128,-1,20
 389 620 389 620 414 609 c 128,-1,21
 439 598 439 598 464 582.5 c 128,-1,22
 489 567 489 567 514 548 c 1,23,-1
 580 665 l 1,24,25
 558 682 558 682 529 699.5 c 128,-1,26
 500 717 500 717 465.5 730.5 c 128,-1,27
 431 744 431 744 391.5 752 c 128,-1,28
 352 760 352 760 307 759 c 0,29,30
 212 761 212 761 159 723 c 128,-1,31
 106 685 106 685 106 618 c 0,32,33
 106 581 106 581 122 553 c 128,-1,34
 138 525 138 525 163.5 503 c 128,-1,35
 189 481 189 481 221.5 462.5 c 128,-1,36
 254 444 254 444 287 424 c 0,37,38
 316 406 316 406 340.5 389 c 128,-1,39
 365 372 365 372 382 353.5 c 128,-1,40
 399 335 399 335 409 313 c 128,-1,41
 419 291 419 291 420 263 c 0,42,43
 419 233 419 233 408.5 210.5 c 128,-1,44
 398 188 398 188 381 173 c 128,-1,45
 364 158 364 158 343 150.5 c 128,-1,46
 322 143 322 143 299 143 c 0,47,48
 275 143 275 143 253 151.5 c 128,-1,49
 231 160 231 160 214 175 c 128,-1,50
 197 190 197 190 187 211 c 128,-1,51
 177 232 177 232 177 257 c 0,52,53
 177 283 177 283 187 306.5 c 128,-1,54
 197 330 197 330 214.5 347.5 c 128,-1,55
 232 365 232 365 256.5 375 c 128,-1,56
 281 385 281 385 309 385 c 0,57,58
 330 385 330 385 355.5 379 c 128,-1,59
 381 373 381 373 394 359 c 1,60,-1
 323 486 l 1,61,62
 315 489 315 489 294 492.5 c 128,-1,63
 273 496 273 496 249 496 c 0,64,65
 199 496 199 496 159 476 c 128,-1,66
 119 456 119 456 90.5 422.5 c 128,-1,67
 62 389 62 389 47 346 c 128,-1,68
 32 303 32 303 32 257 c 0,69,70
 32 206 32 206 52 158 c 128,-1,71
 72 110 72 110 108 73 c 128,-1,72
 144 36 144 36 194 14 c 128,-1,73
 244 -8 244 -8 305 -8 c 0,0,1
EndSplineSet
EndChar

StartChar: epsilon
Encoding: 949 949 462
Width: 522
GlyphClass: 1
Flags: W
LayerCount: 2
Fore
SplineSet
448 167 m 1,0,1
 418 159 418 159 375.5 149 c 128,-1,2
 333 139 333 139 291 139 c 0,3,4
 247 139 247 139 221 150.5 c 128,-1,5
 195 162 195 162 195 177 c 0,6,7
 195 185 195 185 202.5 190.5 c 128,-1,8
 210 196 210 196 223 200.5 c 128,-1,9
 236 205 236 205 252.5 207 c 128,-1,10
 269 209 269 209 287 209 c 2,11,-1
 329 209 l 1,12,-1
 329 315 l 1,13,-1
 295 315 l 2,14,15
 278 316 278 316 262.5 319.5 c 128,-1,16
 247 323 247 323 235 328 c 128,-1,17
 223 333 223 333 216 339 c 128,-1,18
 209 345 209 345 209 351 c 256,19,20
 209 357 209 357 215.5 362.5 c 128,-1,21
 222 368 222 368 234 372 c 128,-1,22
 246 376 246 376 264.5 378.5 c 128,-1,23
 283 381 283 381 307 381 c 0,24,25
 326 381 326 381 344 379 c 128,-1,26
 362 377 362 377 378 374 c 128,-1,27
 394 371 394 371 408.5 366.5 c 128,-1,28
 423 362 423 362 434 357 c 1,29,-1
 478 506 l 1,30,31
 457 516 457 516 435.5 522.5 c 128,-1,32
 414 529 414 529 392.5 532 c 128,-1,33
 371 535 371 535 351 535.5 c 128,-1,34
 331 536 331 536 313 534 c 0,35,36
 254 536 254 536 207.5 525.5 c 128,-1,37
 161 515 161 515 128.5 494.5 c 128,-1,38
 96 474 96 474 79 445 c 128,-1,39
 62 416 62 416 62 381 c 0,40,41
 62 362 62 362 67.5 344 c 128,-1,42
 73 326 73 326 83 311 c 128,-1,43
 93 296 93 296 107 285.5 c 128,-1,44
 121 275 121 275 139 271 c 1,45,-1
 139 273 l 1,46,47
 117 267 117 267 99 254 c 128,-1,48
 81 241 81 241 68.5 224 c 128,-1,49
 56 207 56 207 49 187 c 128,-1,50
 42 167 42 167 42 147 c 0,51,52
 42 112 42 112 61.5 82.5 c 128,-1,53
 81 53 81 53 114.5 31.5 c 128,-1,54
 148 10 148 10 194.5 -2 c 128,-1,55
 241 -14 241 -14 295 -14 c 0,56,57
 320 -14 320 -14 346 -12 c 128,-1,58
 372 -10 372 -10 397 -6 c 128,-1,59
 422 -2 422 -2 446 3 c 128,-1,60
 470 8 470 8 490 14 c 1,61,-1
 448 167 l 1,0,1
EndSplineSet
EndChar

